0
SECTION
2
HEADER
9
$INSUNITS
70
4
9
$ACADVER
1
AC1014
9
$HANDSEED
5
FFFF
0
ENDSEC
0
SECTION
2
TABLES
0
TABLE
2
VPORT
5
8
100
AcDbSymbolTable
0
ENDTAB
0
TABLE
2
LTYPE
5
5
100
AcDbSymbolTable
0
LTYPE
5
14
100
AcDbSymbolTableRecord
100
AcDbLinetypeTableRecord
2
BYBLOCK
70
0
0
LTYPE
5
15
100
AcDbSymbolTableRecord
100
AcDbLinetypeTableRecord
2
BYLAYER
70
0
0
ENDTAB
0
TABLE
2
LAYER
5
2
100
AcDbSymbolTable
70
2
0
LAYER
5
50
100
AcDbSymbolTableRecord
100
AcDbLayerTableRecord
2
0
70
0
6
CONTINUOUS
0
ENDTAB
0
TABLE
2
STYLE
5
3
100
AcDbSymbolTable
70
1
0
STYLE
5
11
100
AcDbSymbolTableRecord
100
AcDbTextStyleTableRecord
2
STANDARD
70
0
0
ENDTAB
0
TABLE
2
VIEW
5
6
100
AcDbSymbolTable
70
0
0
ENDTAB
0
TABLE
2
UCS
5
7
100
AcDbSymbolTable
70
0
0
ENDTAB
0
TABLE
2
APPID
5
9
100
AcDbSymbolTable
70
2
0
APPID
5
12
100
AcDbSymbolTableRecord
100
AcDbRegAppTableRecord
2
ACAD
70
0
0
ENDTAB
0
TABLE
2
DIMSTYLE
5
A
100
AcDbSymbolTable
70
1
0
ENDTAB
0
TABLE
2
BLOCK_RECORD
5
1
100
AcDbSymbolTable
70
1
0
BLOCK_RECORD
5
1F
100
AcDbSymbolTableRecord
100
AcDbBlockTableRecord
2
*MODEL_SPACE
0
BLOCK_RECORD
5
1B
100
AcDbSymbolTableRecord
100
AcDbBlockTableRecord
2
*PAPER_SPACE
0
ENDTAB
0
ENDSEC
0
SECTION
2
BLOCKS
0
BLOCK
5
20
100
AcDbEntity
100
AcDbBlockBegin
2
*MODEL_SPACE
0
ENDBLK
5
21
100
AcDbEntity
100
AcDbBlockEnd
0
BLOCK
5
1C
100
AcDbEntity
100
AcDbBlockBegin
2
*PAPER_SPACE
0
ENDBLK
5
1D
100
AcDbEntity
100
AcDbBlockEnd
0
ENDSEC
0
SECTION
2
ENTITIES
0
LWPOLYLINE
5
100
100
AcDbEntity
8
0
100
AcDbPolyline
90
8
70
1
43
0.0
10
27.000000000000007
20
29.000000000000004
42
0.41421356237309243
10
26.000000000000007
20
30.000000000000004
10
-26.000000000000007
20
30
42
0.41421356237309243
10
-27.000000000000007
20
29.000000000000004
10
-27
20
-29.000000000000004
42
0.41421356237309243
10
-26.000000000000007
20
-30.000000000000004
10
26.000000000000007
20
-30
42
0.41421356237309243
10
27.000000000000007
20
-29.000000000000004
0
CIRCLE
5
101
100
AcDbEntity
8
0
100
AcDbCircle
10
24.500000000000007
20
-27.5
30
0
40
1.25
210
0
220
-0
230
1
0
CIRCLE
5
102
100
AcDbEntity
8
0
100
AcDbCircle
10
-24.5
20
27.5
30
0
40
1.25
210
0
220
-0
230
1
0
CIRCLE
5
103
100
AcDbEntity
8
0
100
AcDbCircle
10
24.500000000000007
20
27.5
30
0
40
1.25
210
0
220
-0
230
1
0
CIRCLE
5
104
100
AcDbEntity
8
0
100
AcDbCircle
10
-24.5
20
-27.5
30
0
40
1.25
210
0
220
-0
230
1
0
LWPOLYLINE
5
105
100
AcDbEntity
8
0
100
AcDbPolyline
90
4
70
1
43
0.0
10
6.5000000000000018
20
-6.5000000000000018
10
-6.4999999999999991
20
-6.5000000000000018
10
-6.4999999999999991
20
6.4999999999999991
10
6.5000000000000018
20
6.4999999999999991
0
LWPOLYLINE
5
106
100
AcDbEntity
8
0
100
AcDbPolyline
90
7
70
1
43
0.0
10
-2.0000002980232252
20
15.000000044703476
10
-2.6822090049005709e-07
20
17.000000074505799
10
1.9999997615814218
20
15.000000044703476
10
0.99999974668026081
20
15.000000044703476
10
0.99999974668025859
20
10.999999985098832
10
-1.000000283122066
20
10.999999985098832
10
-1.000000283122066
20
15.000000044703476
0
LWPOLYLINE
5
107
100
AcDbEntity
8
0
100
AcDbPolyline
90
7
70
1
43
0.0
10
-2.000000298023223
20
-12.99999995529652
10
-2.682208985471668e-07
20
-10.999999925494199
10
1.9999997615814238
20
-12.999999955296522
10
0.99999974668026259
20
-12.999999955296522
10
0.99999974668026037
20
-17.000000014901168
10
-1.000000283122062
20
-17.000000014901168
10
-1.0000002831220598
20
-12.999999955296522
0
LWPOLYLINE
5
108
100
AcDbEntity
8
0
100
AcDbPolyline
90
7
70
1
43
0.0
10
-13.000000193715096
20
2.0000000298023224
10
-11.000000163912773
20
0
10
-13.000000193715096
20
-2.0000000298023224
10
-13.000000193715096
20
-1.0000000149011612
10
-17.00000025331974
20
-1.0000000149011612
10
-17.00000025331974
20
1.0000000149011612
10
-13.000000193715096
20
1.0000000149011612
0
SPLINE
5
109
100
AcDbEntity
8
0
100
AcDbSpline
70
0
71
2
72
6
73
3
74
0
42
0.000000001
43
0.0000000001
44
0.0000000001
40
0
40
0
40
0
40
1
40
1
40
1
10
17.867963015342582
20
-1.965482234954834
30
0
10
18.169030546451438
20
-1.965482234954834
30
0
10
18.346254526878226
20
-1.7839884757995605
30
0
0
SPLINE
5
110
100
AcDbEntity
8
0
100
AcDbSpline
70
0
71
2
72
6
73
3
74
0
42
0.000000001
43
0.0000000001
44
0.0000000001
40
0
40
0
40
0
40
1
40
1
40
1
10
18.346254526878226
20
-1.7839884757995605
30
0
10
18.523478805328239
20
-1.6003584861755371
30
0
10
18.523478805328239
20
-1.2907505035400391
30
0
0
SPLINE
5
111
100
AcDbEntity
8
0
100
AcDbSpline
70
0
71
2
72
6
73
3
74
0
42
0.000000001
43
0.0000000001
44
0.0000000001
40
0
40
0
40
0
40
1
40
1
40
1
10
18.523478805328239
20
-1.2907505035400391
30
0
10
18.523478805328239
20
-1.0665512084960938
30
0
10
18.393229841495383
20
-0.77615976333618164
30
0
0
LINE
5
112
100
AcDbEntity
8
0
100
AcDbLine
10
18.393229841495383
20
-0.77615976333618164
30
0
11
18.777571319843162
21
-0.77615976333618164
31
0
0
SPLINE
5
113
100
AcDbEntity
8
0
100
AcDbSpline
70
0
71
2
72
6
73
3
74
0
42
0.000000001
43
0.0000000001
44
0.0000000001
40
0
40
0
40
0
40
1
40
1
40
1
10
18.777571319843162
20
-0.77615976333618164
30
0
10
18.886468111778129
20
-1.0686850547790527
30
0
10
18.886468111778129
20
-1.3484001159667969
30
0
0
SPLINE
5
114
100
AcDbEntity
8
0
100
AcDbSpline
70
0
71
2
72
6
73
3
74
0
42
0.000000001
43
0.0000000001
44
0.0000000001
40
0
40
0
40
0
40
1
40
1
40
1
10
18.886468111778129
20
-1.3484001159667969
30
0
10
18.886468111778129
20
-1.8096113204956055
30
0
10
18.613158463741172
20
-2.0850563049316406
30
0
0
SPLINE
5
115
100
AcDbEntity
8
0
100
AcDbSpline
70
0
71
2
72
6
73
3
74
0
42
0.000000001
43
0.0000000001
44
0.0000000001
40
0
40
0
40
0
40
1
40
1
40
1
10
18.613158463741172
20
-2.0850563049316406
30
0
10
18.339848815704215
20
-2.3583650588989258
30
0
10
17.88077413966738
20
-2.3583650588989258
30
0
0
SPLINE
5
116
100
AcDbEntity
8
0
100
AcDbSpline
70
0
71
2
72
6
73
3
74
0
42
0.000000001
43
0.0000000001
44
0.0000000001
40
0
40
0
40
0
40
1
40
1
40
1
10
17.88077413966738
20
-2.3583650588989258
30
0
10
17.417428790832389
20
-2.3583650588989258
30
0
10
17.133443056846488
20
-2.0914626121520996
30
0
0
SPLINE
5
117
100
AcDbEntity
8
0
100
AcDbSpline
70
0
71
2
72
6
73
3
74
0
42
0.000000001
43
0.0000000001
44
0.0000000001
40
0
40
0
40
0
40
1
40
1
40
1
10
17.133443056846488
20
-2.0914626121520996
30
0
10
16.849457322860587
20
-1.8245577812194824
30
0
10
16.849457322860587
20
-1.3889694213867188
30
0
0
SPLINE
5
118
100
AcDbEntity
8
0
100
AcDbSpline
70
0
71
2
72
6
73
3
74
0
42
0.000000001
43
0.0000000001
44
0.0000000001
40
0
40
0
40
0
40
1
40
1
40
1
10
16.849457322860587
20
-1.3889694213867188
30
0
10
16.849457322860587
20
-1.2373685836791992
30
0
10
16.879350542331565
20
-1.1177968978881836
30
0
0
SPLINE
5
119
100
AcDbEntity
8
0
100
AcDbSpline
70
0
71
2
72
6
73
3
74
0
42
0.000000001
43
0.0000000001
44
0.0000000001
40
0
40
0
40
0
40
1
40
1
40
1
10
16.879350542331565
20
-1.1177968978881836
30
0
10
16.907108574415076
20
-0.99608898162841797
30
0
10
16.986112146879066
20
-0.8188629150390625
30
0
0
LINE
5
120
100
AcDbEntity
8
0
100
AcDbLine
10
16.986112146879066
20
-0.8188629150390625
30
0
11
17.400346993709434
21
-0.8188629150390625
31
0
0
SPLINE
5
121
100
AcDbEntity
8
0
100
AcDbSpline
70
0
71
2
72
6
73
3
74
0
42
0.000000001
43
0.0000000001
44
0.0000000001
40
0
40
0
40
0
40
1
40
1
40
1
10
17.400346993709434
20
-0.8188629150390625
30
0
10
17.212446629310477
20
-1.1135244369506836
30
0
10
17.212446629310477
20
-1.3654828071594238
30
0
0
SPLINE
5
122
100
AcDbEntity
8
0
100
AcDbSpline
70
0
71
2
72
6
73
3
74
0
42
0.000000001
43
0.0000000001
44
0.0000000001
40
0
40
0
40
0
40
1
40
1
40
1
10
17.212446629310477
20
-1.3654828071594238
30
0
10
17.212446629310477
20
-1.628115177154541
30
0
10
17.398211657310355
20
-1.7967987060546875
30
0
0
SPLINE
5
123
100
AcDbEntity
8
0
100
AcDbSpline
70
0
71
2
72
6
73
3
74
0
42
0.000000001
43
0.0000000001
44
0.0000000001
40
0
40
0
40
0
40
1
40
1
40
1
10
17.398211657310355
20
-1.7967987060546875
30
0
10
17.581841646934379
20
-1.965482234954834
30
0
10
17.867963015342582
20
-1.965482234954834
30
0
0
LINE
5
124
100
AcDbEntity
8
0
100
AcDbLine
10
18.852304517532218
20
1.5384316444396973
30
0
11
18.852304517532218
21
1.1476850509643555
31
0
0
LINE
5
125
100
AcDbEntity
8
0
100
AcDbLine
10
18.852304517532218
20
1.1476850509643555
30
0
11
16.887891589904655
21
1.1476850509643555
31
0
0
LINE
5
126
100
AcDbEntity
8
0
100
AcDbLine
10
16.887891589904655
20
1.1476850509643555
30
0
11
16.887891589904655
21
1.5384316444396973
31
0
0
LINE
5
127
100
AcDbEntity
8
0
100
AcDbLine
10
16.887891589904655
20
1.5384316444396973
30
0
11
17.3384252183684
21
1.5384316444396973
31
0
0
LINE
5
128
100
AcDbEntity
8
0
100
AcDbLine
10
17.3384252183684
20
1.5384316444396973
30
0
11
17.304261624122489
21
1.5597844123840332
31
0
0
SPLINE
5
129
100
AcDbEntity
8
0
100
AcDbSpline
70
0
71
2
72
6
73
3
74
0
42
0.000000001
43
0.0000000001
44
0.0000000001
40
0
40
0
40
0
40
1
40
1
40
1
10
17.304261624122489
20
1.5597844123840332
30
0
10
16.849457322860587
20
1.8416357040405273
30
0
10
16.849457322860587
20
2.1234846115112305
30
0
0
SPLINE
5
130
100
AcDbEntity
8
0
100
AcDbSpline
70
0
71
2
72
6
73
3
74
0
42
0.000000001
43
0.0000000001
44
0.0000000001
40
0
40
0
40
0
40
1
40
1
40
1
10
16.849457322860587
20
2.1234846115112305
30
0
10
16.849457322860587
20
2.3434138298034668
30
0
10
17.071521430517066
20
2.5825595855712891
30
0
0
LINE
5
131
100
AcDbEntity
8
0
100
AcDbLine
10
17.071521430517066
20
2.5825595855712891
30
0
11
17.41315871408068
21
2.3775768280029297
31
0
0
SPLINE
5
132
100
AcDbEntity
8
0
100
AcDbSpline
70
0
71
2
72
6
73
3
74
0
42
0.000000001
43
0.0000000001
44
0.0000000001
40
0
40
0
40
0
40
1
40
1
40
1
10
17.41315871408068
20
2.3775768280029297
30
0
10
17.220987676883567
20
2.1747303009033203
30
0
10
17.220987676883567
20
2.0017766952514648
30
0
0
SPLINE
5
133
100
AcDbEntity
8
0
100
AcDbSpline
70
0
71
2
72
6
73
3
74
0
42
0.000000001
43
0.0000000001
44
0.0000000001
40
0
40
0
40
0
40
1
40
1
40
1
10
17.220987676883567
20
2.0017766952514648
30
0
10
17.220987676883567
20
1.8138766288757324
30
0
10
17.400347291732658
20
1.6750860214233398
30
0
0
SPLINE
5
134
100
AcDbEntity
8
0
100
AcDbSpline
70
0
71
2
72
6
73
3
74
0
42
0.000000001
43
0.0000000001
44
0.0000000001
40
0
40
0
40
0
40
1
40
1
40
1
10
17.400347291732658
20
1.6750860214233398
30
0
10
17.579706608558524
20
1.5384316444396973
30
0
10
17.825258075500358
20
1.5384316444396973
30
0
0
LINE
5
135
100
AcDbEntity
8
0
100
AcDbLine
10
17.825258075500358
20
1.5384316444396973
30
0
11
18.852304517532218
21
1.5384316444396973
31
0
0
SPLINE
5
136
100
AcDbEntity
8
0
100
AcDbSpline
70
0
71
2
72
6
73
3
74
0
42
0.000000001
43
0.0000000001
44
0.0000000001
40
0
40
0
40
0
40
1
40
1
40
1
10
18.602482377792228
20
3.0373668670654297
30
0
10
18.316361307407249
20
2.7405714988708496
30
0
10
17.88931518724047
20
2.7405714988708496
30
0
0
SPLINE
5
137
100
AcDbEntity
8
0
100
AcDbSpline
70
0
71
2
72
6
73
3
74
0
42
0.000000001
43
0.0000000001
44
0.0000000001
40
0
40
0
40
0
40
1
40
1
40
1
10
17.88931518724047
20
2.7405714988708496
30
0
10
17.457998096252311
20
2.7405714988708496
30
0
10
17.171877323890556
20
3.0395030975341797
30
0
0
SPLINE
5
138
100
AcDbEntity
8
0
100
AcDbSpline
70
0
71
2
72
6
73
3
74
0
42
0.000000001
43
0.0000000001
44
0.0000000001
40
0
40
0
40
0
40
1
40
1
40
1
10
17.171877323890556
20
3.0395030975341797
30
0
10
16.88362106611811
20
3.3405709266662598
30
0
10
16.88362106611811
20
3.7932395935058594
30
0
0
SPLINE
5
139
100
AcDbEntity
8
0
100
AcDbSpline
70
0
71
2
72
6
73
3
74
0
42
0.000000001
43
0.0000000001
44
0.0000000001
40
0
40
0
40
0
40
1
40
1
40
1
10
16.88362106611811
20
3.7932395935058594
30
0
10
16.88362106611811
20
4.24163818359375
30
0
10
17.174012511278022
20
4.5384359359741211
30
0
0
SPLINE
5
140
100
AcDbEntity
8
0
100
AcDbSpline
70
0
71
2
72
6
73
3
74
0
42
0.000000001
43
0.0000000001
44
0.0000000001
40
0
40
0
40
0
40
1
40
1
40
1
10
17.174012511278022
20
4.5384359359741211
30
0
10
17.462268769050468
20
4.8352336883544922
30
0
10
17.899991273189414
20
4.8352336883544922
30
0
0
SPLINE
5
141
100
AcDbEntity
8
0
100
AcDbSpline
70
0
71
2
72
6
73
3
74
0
42
0.000000001
43
0.0000000001
44
0.0000000001
40
0
40
0
40
0
40
1
40
1
40
1
10
17.899991273189414
20
4.8352336883544922
30
0
10
18.324902354980338
20
4.8352336883544922
30
0
10
18.606753050590385
20
4.5341658592224121
30
0
0
SPLINE
5
142
100
AcDbEntity
8
0
100
AcDbSpline
70
0
71
2
72
6
73
3
74
0
42
0.000000001
43
0.0000000001
44
0.0000000001
40
0
40
0
40
0
40
1
40
1
40
1
10
18.606753050590385
20
4.5341658592224121
30
0
10
18.886468111778129
20
4.233098030090332
30
0
10
18.886468111778129
20
3.7761569023132324
30
0
0
SPLINE
5
143
100
AcDbEntity
8
0
100
AcDbSpline
70
0
71
2
72
6
73
3
74
0
42
0.000000001
43
0.0000000001
44
0.0000000001
40
0
40
0
40
0
40
1
40
1
40
1
10
18.886468111778129
20
3.7761569023132324
30
0
10
18.886468111778129
20
3.3341646194458008
30
0
10
18.602482377792228
20
3.0373668670654297
30
0
0
SPLINE
5
144
100
AcDbEntity
8
0
100
AcDbSpline
70
0
71
2
72
6
73
3
74
0
42
0.000000001
43
0.0000000001
44
0.0000000001
40
0
40
0
40
0
40
1
40
1
40
1
10
18.813870250488151
20
-16.630251407623291
30
0
10
18.741272389198173
20
-16.704983711242676
30
0
10
18.634510933662284
20
-16.704983711242676
30
0
0
SPLINE
5
145
100
AcDbEntity
8
0
100
AcDbSpline
70
0
71
2
72
6
73
3
74
0
42
0.000000001
43
0.0000000001
44
0.0000000001
40
0
40
0
40
0
40
1
40
1
40
1
10
18.634510933662284
20
-16.704983711242676
30
0
10
18.525614141727317
20
-16.704983711242676
30
0
10
18.450880944038261
20
-16.630251407623291
30
0
0
SPLINE
5
146
100
AcDbEntity
8
0
100
AcDbSpline
70
0
71
2
72
6
73
3
74
0
42
0.000000001
43
0.0000000001
44
0.0000000001
40
0
40
0
40
0
40
1
40
1
40
1
10
18.450880944038261
20
-16.630251407623291
30
0
10
18.376148044372428
20
-16.555519104003906
30
0
10
18.376148044372428
20
-16.446621417999268
30
0
0
SPLINE
5
147
100
AcDbEntity
8
0
100
AcDbSpline
70
0
71
2
72
6
73
3
74
0
42
0.000000001
43
0.0000000001
44
0.0000000001
40
0
40
0
40
0
40
1
40
1
40
1
10
18.376148044372428
20
-16.446621417999268
30
0
10
18.376148044372428
20
-16.337724924087524
30
0
10
18.450880944038261
20
-16.26085638999939
30
0
0
SPLINE
5
148
100
AcDbEntity
8
0
100
AcDbSpline
70
0
71
2
72
6
73
3
74
0
42
0.000000001
43
0.0000000001
44
0.0000000001
40
0
40
0
40
0
40
1
40
1
40
1
10
18.450880944038261
20
-16.26085638999939
30
0
10
18.525614141727317
20
-16.183987855911255
30
0
10
18.634510933662284
20
-16.183987855911255
30
0
0
SPLINE
5
149
100
AcDbEntity
8
0
100
AcDbSpline
70
0
71
2
72
6
73
3
74
0
42
0.000000001
43
0.0000000001
44
0.0000000001
40
0
40
0
40
0
40
1
40
1
40
1
10
18.634510933662284
20
-16.183987855911255
30
0
10
18.741272389198173
20
-16.183987855911255
30
0
10
18.813870250488151
20
-16.26085638999939
30
0
0
SPLINE
5
150
100
AcDbEntity
8
0
100
AcDbSpline
70
0
71
2
72
6
73
3
74
0
42
0.000000001
43
0.0000000001
44
0.0000000001
40
0
40
0
40
0
40
1
40
1
40
1
10
18.813870250488151
20
-16.26085638999939
30
0
10
18.886468111778129
20
-16.33558988571167
30
0
10
18.886468111778129
20
-16.446621417999268
30
0
0
SPLINE
5
151
100
AcDbEntity
8
0
100
AcDbSpline
70
0
71
2
72
6
73
3
74
0
42
0.000000001
43
0.0000000001
44
0.0000000001
40
0
40
0
40
0
40
1
40
1
40
1
10
18.886468111778129
20
-16.446621417999268
30
0
10
18.886468111778129
20
-16.555519104003906
30
0
10
18.813870250488151
20
-16.630251407623291
30
0
0
SPLINE
5
152
100
AcDbEntity
8
0
100
AcDbSpline
70
0
71
2
72
6
73
3
74
0
42
0.000000001
43
0.0000000001
44
0.0000000001
40
0
40
0
40
0
40
1
40
1
40
1
10
17.688603400493491
20
-13.239504098892212
30
0
10
17.443051635528434
20
-13.239504098892212
30
0
10
17.312802671695579
20
-13.339859247207642
30
0
0
SPLINE
5
153
100
AcDbEntity
8
0
100
AcDbSpline
70
0
71
2
72
6
73
3
74
0
42
0.000000001
43
0.0000000001
44
0.0000000001
40
0
40
0
40
0
40
1
40
1
40
1
10
17.312802671695579
20
-13.339859247207642
30
0
10
17.182553558851112
20
-13.440215587615967
30
0
10
17.182553558851112
20
-13.628115653991699
30
0
0
SPLINE
5
154
100
AcDbEntity
8
0
100
AcDbSpline
70
0
71
2
72
6
73
3
74
0
42
0.000000001
43
0.0000000001
44
0.0000000001
40
0
40
0
40
0
40
1
40
1
40
1
10
17.182553558851112
20
-13.628115653991699
30
0
10
17.182553558851112
20
-13.869397640228271
30
0
10
17.425969838405479
20
-14.078649282455444
30
0
0
LINE
5
155
100
AcDbEntity
8
0
100
AcDbLine
10
17.425969838405479
20
-14.078649282455444
30
0
11
18.852304517532218
21
-14.078649282455444
31
0
0
LINE
5
156
100
AcDbEntity
8
0
100
AcDbLine
10
18.852304517532218
20
-14.078649282455444
30
0
11
18.852304517532218
21
-14.469397068023682
31
0
0
LINE
5
157
100
AcDbEntity
8
0
100
AcDbLine
10
18.852304517532218
20
-14.469397068023682
30
0
11
17.759065925384391
21
-14.469397068023682
31
0
0
SPLINE
5
158
100
AcDbEntity
8
0
100
AcDbSpline
70
0
71
2
72
6
73
3
74
0
42
0.000000001
43
0.0000000001
44
0.0000000001
40
0
40
0
40
0
40
1
40
1
40
1
10
17.759065925384391
20
-14.469397068023682
30
0
10
17.43237554957949
20
-14.469397068023682
30
0
10
17.304261624122489
20
-14.556941986083984
30
0
0
SPLINE
5
159
100
AcDbEntity
8
0
100
AcDbSpline
70
0
71
2
72
6
73
3
74
0
42
0.000000001
43
0.0000000001
44
0.0000000001
40
0
40
0
40
0
40
1
40
1
40
1
10
17.304261624122489
20
-14.556941986083984
30
0
10
17.174012511278022
20
-14.644485712051392
30
0
10
17.174012511278022
20
-14.862279891967773
30
0
0
SPLINE
5
160
100
AcDbEntity
8
0
100
AcDbSpline
70
0
71
2
72
6
73
3
74
0
42
0.000000001
43
0.0000000001
44
0.0000000001
40
0
40
0
40
0
40
1
40
1
40
1
10
17.174012511278022
20
-14.862279891967773
30
0
10
17.174012511278022
20
-14.983987808227539
30
0
10
17.229528575445045
20
-15.086479187011719
30
0
0
SPLINE
5
161
100
AcDbEntity
8
0
100
AcDbSpline
70
0
71
2
72
6
73
3
74
0
42
0.000000001
43
0.0000000001
44
0.0000000001
40
0
40
0
40
0
40
1
40
1
40
1
10
17.229528575445045
20
-15.086479187011719
30
0
10
17.285044639612067
20
-15.186834335327148
30
0
10
17.425969838405479
20
-15.317083597183228
30
0
0
LINE
5
162
100
AcDbEntity
8
0
100
AcDbLine
10
17.425969838405479
20
-15.317083597183228
30
0
11
18.852304517532218
21
-15.317083597183228
31
0
0
LINE
5
163
100
AcDbEntity
8
0
100
AcDbLine
10
18.852304517532218
20
-15.317083597183228
30
0
11
18.852304517532218
21
-15.70569634437561
31
0
0
LINE
5
164
100
AcDbEntity
8
0
100
AcDbLine
10
18.852304517532218
20
-15.70569634437561
30
0
11
16.887891589904655
21
-15.70569634437561
31
0
0
LINE
5
165
100
AcDbEntity
8
0
100
AcDbLine
10
16.887891589904655
20
-15.70569634437561
30
0
11
16.887891589904655
21
-15.317083597183228
31
0
0
LINE
5
166
100
AcDbEntity
8
0
100
AcDbLine
10
16.887891589904655
20
-15.317083597183228
30
0
11
17.146254628206123
21
-15.317083597183228
31
0
0
SPLINE
5
167
100
AcDbEntity
8
0
100
AcDbSpline
70
0
71
2
72
6
73
3
74
0
42
0.000000001
43
0.0000000001
44
0.0000000001
40
0
40
0
40
0
40
1
40
1
40
1
10
17.146254628206123
20
-15.317083597183228
30
0
10
16.849457322860587
20
-15.020287036895752
30
0
10
16.849457322860587
20
-14.736300706863403
30
0
0
SPLINE
5
168
100
AcDbEntity
8
0
100
AcDbSpline
70
0
71
2
72
6
73
3
74
0
42
0.000000001
43
0.0000000001
44
0.0000000001
40
0
40
0
40
0
40
1
40
1
40
1
10
16.849457322860587
20
-14.736300706863403
30
0
10
16.849457322860587
20
-14.362635612487793
30
0
10
17.203905879760612
20
-14.157652854919434
30
0
0
SPLINE
5
169
100
AcDbEntity
8
0
100
AcDbSpline
70
0
71
2
72
6
73
3
74
0
42
0.000000001
43
0.0000000001
44
0.0000000001
40
0
40
0
40
0
40
1
40
1
40
1
10
17.203905879760612
20
-14.157652854919434
30
0
10
16.845186948085654
20
-13.845909833908081
30
0
10
16.845186948085654
20
-13.506407737731934
30
0
0
SPLINE
5
170
100
AcDbEntity
8
0
100
AcDbSpline
70
0
71
2
72
6
73
3
74
0
42
0.000000001
43
0.0000000001
44
0.0000000001
40
0
40
0
40
0
40
1
40
1
40
1
10
16.845186948085654
20
-13.506407737731934
30
0
10
16.845186948085654
20
-13.22028636932373
30
0
10
17.054439633394111
20
-13.036656379699707
30
0
0
SPLINE
5
171
100
AcDbEntity
8
0
100
AcDbSpline
70
0
71
2
72
6
73
3
74
0
42
0.000000001
43
0.0000000001
44
0.0000000001
40
0
40
0
40
0
40
1
40
1
40
1
10
17.054439633394111
20
-13.036656379699707
30
0
10
17.263692318702567
20
-12.850891351699829
30
0
10
17.692873775268424
20
-12.850891351699829
30
0
0
LINE
5
172
100
AcDbEntity
8
0
100
AcDbLine
10
17.692873775268424
20
-12.850891351699829
30
0
11
18.852304517532218
21
-12.850891351699829
31
0
0
LINE
5
173
100
AcDbEntity
8
0
100
AcDbLine
10
18.852304517532218
20
-12.850891351699829
30
0
11
18.852304517532218
21
-13.239504098892212
31
0
0
LINE
5
174
100
AcDbEntity
8
0
100
AcDbLine
10
18.852304517532218
20
-13.239504098892212
30
0
11
17.688603400493491
21
-13.239504098892212
31
0
0
SPLINE
5
175
100
AcDbEntity
8
0
100
AcDbSpline
70
0
71
2
72
6
73
3
74
0
42
0.000000001
43
0.0000000001
44
0.0000000001
40
0
40
0
40
0
40
1
40
1
40
1
10
18.813870250488151
20
16.03238582611084
30
0
10
18.741272389198173
20
15.957651138305664
30
0
10
18.634510933662284
20
15.957651138305664
30
0
0
SPLINE
5
176
100
AcDbEntity
8
0
100
AcDbSpline
70
0
71
2
72
6
73
3
74
0
42
0.000000001
43
0.0000000001
44
0.0000000001
40
0
40
0
40
0
40
1
40
1
40
1
10
18.634510933662284
20
15.957651138305664
30
0
10
18.525614141727317
20
15.957651138305664
30
0
10
18.450880944038261
20
16.03238582611084
30
0
0
SPLINE
5
177
100
AcDbEntity
8
0
100
AcDbSpline
70
0
71
2
72
6
73
3
74
0
42
0.000000001
43
0.0000000001
44
0.0000000001
40
0
40
0
40
0
40
1
40
1
40
1
10
18.450880944038261
20
16.03238582611084
30
0
10
18.376148044372428
20
16.107115745544434
30
0
10
18.376148044372428
20
16.216015815734863
30
0
0
SPLINE
5
178
100
AcDbEntity
8
0
100
AcDbSpline
70
0
71
2
72
6
73
3
74
0
42
0.000000001
43
0.0000000001
44
0.0000000001
40
0
40
0
40
0
40
1
40
1
40
1
10
18.376148044372428
20
16.216015815734863
30
0
10
18.376148044372428
20
16.324911117553711
30
0
10
18.450880944038261
20
16.401777267456055
30
0
0
SPLINE
5
179
100
AcDbEntity
8
0
100
AcDbSpline
70
0
71
2
72
6
73
3
74
0
42
0.000000001
43
0.0000000001
44
0.0000000001
40
0
40
0
40
0
40
1
40
1
40
1
10
18.450880944038261
20
16.401777267456055
30
0
10
18.525614141727317
20
16.47864818572998
30
0
10
18.634510933662284
20
16.47864818572998
30
0
0
SPLINE
5
180
100
AcDbEntity
8
0
100
AcDbSpline
70
0
71
2
72
6
73
3
74
0
42
0.000000001
43
0.0000000001
44
0.0000000001
40
0
40
0
40
0
40
1
40
1
40
1
10
18.634510933662284
20
16.47864818572998
30
0
10
18.741272389198173
20
16.47864818572998
30
0
10
18.813870250488151
20
16.401777267456055
30
0
0
SPLINE
5
181
100
AcDbEntity
8
0
100
AcDbSpline
70
0
71
2
72
6
73
3
74
0
42
0.000000001
43
0.0000000001
44
0.0000000001
40
0
40
0
40
0
40
1
40
1
40
1
10
18.813870250488151
20
16.401777267456055
30
0
10
18.886468111778129
20
16.327047348022461
30
0
10
18.886468111778129
20
16.216015815734863
30
0
0
SPLINE
5
182
100
AcDbEntity
8
0
100
AcDbSpline
70
0
71
2
72
6
73
3
74
0
42
0.000000001
43
0.0000000001
44
0.0000000001
40
0
40
0
40
0
40
1
40
1
40
1
10
18.886468111778129
20
16.216015815734863
30
0
10
18.886468111778129
20
16.107115745544434
30
0
10
18.813870250488151
20
16.03238582611084
30
0
0
LWPOLYLINE
5
183
100
AcDbEntity
8
0
100
AcDbPolyline
90
6
70
1
43
0.0
10
18.852304517532218
20
26.358366012573242
10
18.852304517532218
20
25.837368965148926
10
17.850880920196403
20
24.853029251098633
10
16.887891589904655
20
25.724201202392578
10
16.887891589904655
20
26.187548637390137
10
17.850880920196403
20
25.348401069641113
0
LINE
5
184
100
AcDbEntity
8
0
100
AcDbLine
10
18.852304517532218
20
14.700002670288086
30
0
11
18.852304517532218
21
14.309253692626953
31
0
0
LINE
5
185
100
AcDbEntity
8
0
100
AcDbLine
10
18.852304517532218
20
14.309253692626953
30
0
11
16.887891589904655
21
14.309253692626953
31
0
0
LINE
5
186
100
AcDbEntity
8
0
100
AcDbLine
10
16.887891589904655
20
14.309253692626953
30
0
11
16.887891589904655
21
14.700002670288086
31
0
0
LINE
5
187
100
AcDbEntity
8
0
100
AcDbLine
10
16.887891589904655
20
14.700002670288086
30
0
11
17.3384252183684
21
14.700002670288086
31
0
0
LINE
5
188
100
AcDbEntity
8
0
100
AcDbLine
10
17.3384252183684
20
14.700002670288086
30
0
11
17.304261624122489
21
14.72135066986084
31
0
0
SPLINE
5
189
100
AcDbEntity
8
0
100
AcDbSpline
70
0
71
2
72
6
73
3
74
0
42
0.000000001
43
0.0000000001
44
0.0000000001
40
0
40
0
40
0
40
1
40
1
40
1
10
17.304261624122489
20
14.72135066986084
30
0
10
16.849457322860587
20
15.003204345703125
30
0
10
16.849457322860587
20
15.285053253173828
30
0
0
SPLINE
5
190
100
AcDbEntity
8
0
100
AcDbSpline
70
0
71
2
72
6
73
3
74
0
42
0.000000001
43
0.0000000001
44
0.0000000001
40
0
40
0
40
0
40
1
40
1
40
1
10
16.849457322860587
20
15.285053253173828
30
0
10
16.849457322860587
20
15.504984855651855
30
0
10
17.071521430517066
20
15.744128227233887
30
0
0
LINE
5
191
100
AcDbEntity
8
0
100
AcDbLine
10
17.071521430517066
20
15.744128227233887
30
0
11
17.41315871408068
21
15.539145469665527
31
0
0
SPLINE
5
192
100
AcDbEntity
8
0
100
AcDbSpline
70
0
71
2
72
6
73
3
74
0
42
0.000000001
43
0.0000000001
44
0.0000000001
40
0
40
0
40
0
40
1
40
1
40
1
10
17.41315871408068
20
15.539145469665527
30
0
10
17.220987676883567
20
15.336298942565918
30
0
10
17.220987676883567
20
15.163345336914062
30
0
0
SPLINE
5
193
100
AcDbEntity
8
0
100
AcDbSpline
70
0
71
2
72
6
73
3
74
0
42
0.000000001
43
0.0000000001
44
0.0000000001
40
0
40
0
40
0
40
1
40
1
40
1
10
17.220987676883567
20
15.163345336914062
30
0
10
17.220987676883567
20
14.975447654724121
30
0
10
17.400347291732658
20
14.836654663085938
30
0
0
SPLINE
5
194
100
AcDbEntity
8
0
100
AcDbSpline
70
0
71
2
72
6
73
3
74
0
42
0.000000001
43
0.0000000001
44
0.0000000001
40
0
40
0
40
0
40
1
40
1
40
1
10
17.400347291732658
20
14.836654663085938
30
0
10
17.579706608558524
20
14.700002670288086
30
0
10
17.825258075500358
20
14.700002670288086
30
0
0
LINE
5
195
100
AcDbEntity
8
0
100
AcDbLine
10
17.825258075500358
20
14.700002670288086
30
0
11
18.852304517532218
21
14.700002670288086
31
0
0
LINE
5
196
100
AcDbEntity
8
0
100
AcDbLine
10
10.730923861265182
20
14.17804968729615
30
0
11
11.002677381038666
21
14.17804968729615
31
0
0
LINE
5
197
100
AcDbEntity
8
0
100
AcDbLine
10
11.002677381038666
20
14.17804968729615
30
0
11
11.002677381038666
21
13.672025326639412
31
0
0
LINE
5
198
100
AcDbEntity
8
0
100
AcDbLine
10
11.002677381038666
20
13.672025326639412
30
0
11
12.825301438570023
21
13.672025326639412
31
0
0
SPLINE
5
199
100
AcDbEntity
8
0
100
AcDbSpline
70
0
71
2
72
6
73
3
74
0
42
0.000000001
43
0.0000000001
44
0.0000000001
40
0
40
0
40
0
40
1
40
1
40
1
10
12.825301438570023
20
13.672025326639412
30
0
10
12.951807230710983
20
13.672025326639412
30
0
10
12.975234240293503
20
13.704822186380623
30
0
0
SPLINE
5
200
100
AcDbEntity
8
0
100
AcDbSpline
70
0
71
2
72
6
73
3
74
0
42
0.000000001
43
0.0000000001
44
0.0000000001
40
0
40
0
40
0
40
1
40
1
40
1
10
12.975234240293503
20
13.704822186380623
30
0
10
12.998661249876022
20
13.737623814493416
30
0
10
12.998661249876022
20
13.873498562723396
30
0
0
LINE
5
201
100
AcDbEntity
8
0
100
AcDbLine
10
12.998661249876022
20
13.873498562723396
30
0
11
12.998661249876022
21
14.065601948648689
31
0
0
LINE
5
202
100
AcDbEntity
8
0
100
AcDbLine
10
12.998661249876022
20
14.065601948648689
30
0
11
13.270415216684341
21
14.065601948648689
31
0
0
SPLINE
5
203
100
AcDbEntity
8
0
100
AcDbSpline
70
0
71
2
72
6
73
3
74
0
42
0.000000001
43
0.0000000001
44
0.0000000001
40
0
40
0
40
0
40
1
40
1
40
1
10
13.270415216684341
20
14.065601948648689
30
0
10
13.303212970495224
20
13.86881125345826
30
0
10
13.303212970495224
20
13.756363514810799
30
0
0
SPLINE
5
204
100
AcDbEntity
8
0
100
AcDbSpline
70
0
71
2
72
6
73
3
74
0
42
0.000000001
43
0.0000000001
44
0.0000000001
40
0
40
0
40
0
40
1
40
1
40
1
10
13.303212970495224
20
13.756363514810799
30
0
10
13.303212970495224
20
13.545515660196541
30
0
10
13.200133889913559
20
13.447125080972908
30
0
0
SPLINE
5
205
100
AcDbEntity
8
0
100
AcDbSpline
70
0
71
2
72
6
73
3
74
0
42
0.000000001
43
0.0000000001
44
0.0000000001
40
0
40
0
40
0
40
1
40
1
40
1
10
13.200133889913559
20
13.447125080972908
30
0
10
13.097055107355118
20
13.348734501749275
30
0
10
12.876840680837631
20
13.348734501749275
30
0
0
LINE
5
206
100
AcDbEntity
8
0
100
AcDbLine
10
12.876840680837633
20
13.348734501749275
30
0
11
11.002677381038666
21
13.348734501749275
31
0
0
LINE
5
207
100
AcDbEntity
8
0
100
AcDbLine
10
11.002677381038666
20
13.348734501749275
30
0
11
11.002677381038666
21
12.908303860574959
31
0
0
LINE
5
208
100
AcDbEntity
8
0
100
AcDbLine
10
11.002677381038666
20
12.908303860574959
30
0
11
10.730923861265182
21
12.908303860574959
31
0
0
LINE
5
209
100
AcDbEntity
8
0
100
AcDbLine
10
10.730923861265182
20
12.908303860574959
30
0
11
10.730923861265182
21
13.348734501749275
31
0
0
LINE
5
210
100
AcDbEntity
8
0
100
AcDbLine
10
10.730923861265182
20
13.348734501749275
30
0
11
9.7704149782657623
21
13.348734501749275
31
0
0
LINE
5
211
100
AcDbEntity
8
0
100
AcDbLine
10
9.7704149782657623
20
13.348734501749275
30
0
11
9.7704149782657623
21
13.672025326639412
31
0
0
LINE
5
212
100
AcDbEntity
8
0
100
AcDbLine
10
9.7704149782657623
20
13.672025326639412
30
0
11
10.730923861265182
21
13.672025326639412
31
0
0
LINE
5
213
100
AcDbEntity
8
0
100
AcDbLine
10
10.730923861265182
20
13.672025326639412
30
0
11
10.730923861265182
21
14.17804968729615
31
0
0
LINE
5
214
100
AcDbEntity
8
0
100
AcDbLine
10
12.37550213932991
20
1.3540841378271562
30
0
11
13.218875676393509
21
1.3540841378271562
31
0
0
LINE
5
215
100
AcDbEntity
8
0
100
AcDbLine
10
13.218875676393509
20
1.3540841378271562
30
0
11
13.218875676393509
21
1.0261060036718828
31
0
0
LINE
5
216
100
AcDbEntity
8
0
100
AcDbLine
10
13.218875676393509
20
1.0261060036718828
30
0
11
10.730923563241959
21
1.0261060036718828
31
0
0
LINE
5
217
100
AcDbEntity
8
0
100
AcDbLine
10
10.730923563241959
20
1.0261060036718828
30
0
11
10.730923563241959
21
1.3540841378271562
31
0
0
LINE
5
218
100
AcDbEntity
8
0
100
AcDbLine
10
10.730923563241959
20
1.3540841378271562
30
0
11
11.091700196266174
21
1.3540841378271562
31
0
0
SPLINE
5
219
100
AcDbEntity
8
0
100
AcDbSpline
70
0
71
2
72
6
73
3
74
0
42
0.000000001
43
0.0000000001
44
0.0000000001
40
0
40
0
40
0
40
1
40
1
40
1
10
11.091700196266174
20
1.3540841378271562
30
0
10
10.8714859187603
20
1.485276345163582
30
0
10
10.768406838178635
20
1.6070963181555253
30
0
0
SPLINE
5
220
100
AcDbEntity
8
0
100
AcDbSpline
70
0
71
2
72
6
73
3
74
0
42
0.000000001
43
0.0000000001
44
0.0000000001
40
0
40
0
40
0
40
1
40
1
40
1
10
10.768406838178635
20
1.6070963181555253
30
0
10
10.665328055620193
20
1.7336012162268144
30
0
10
10.665328055620193
20
1.883535508066414
30
0
0
SPLINE
5
221
100
AcDbEntity
8
0
100
AcDbSpline
70
0
71
2
72
6
73
3
74
0
42
0.000000001
43
0.0000000001
44
0.0000000001
40
0
40
0
40
0
40
1
40
1
40
1
10
10.665328055620193
20
1.883535508066414
30
0
10
10.665328055620193
20
2.0381547249853593
30
0
10
10.749665349721909
20
2.1927715577185136
30
0
0
LINE
5
222
100
AcDbEntity
8
0
100
AcDbLine
10
10.749665349721909
20
2.1927715577185136
30
0
11
11.021419018507004
21
2.0240975655615312
31
0
0
SPLINE
5
223
100
AcDbEntity
8
0
100
AcDbSpline
70
0
71
2
72
6
73
3
74
0
42
0.000000001
43
0.0000000001
44
0.0000000001
40
0
40
0
40
0
40
1
40
1
40
1
10
11.021419018507004
20
2.0240975655615312
30
0
10
10.979250222444534
20
1.9538165368139726
30
0
10
10.979250222444534
20
1.8788505829870683
30
0
0
SPLINE
5
224
100
AcDbEntity
8
0
100
AcDbSpline
70
0
71
2
72
6
73
3
74
0
42
0.000000001
43
0.0000000001
44
0.0000000001
40
0
40
0
40
0
40
1
40
1
40
1
10
10.979250222444534
20
1.8788505829870683
30
0
10
10.979250222444534
20
1.7336012162268144
30
0
10
11.12918347120285
20
1.6024113930761796
30
0
0
SPLINE
5
225
100
AcDbEntity
8
0
100
AcDbSpline
70
0
71
2
72
6
73
3
74
0
42
0.000000001
43
0.0000000001
44
0.0000000001
40
0
40
0
40
0
40
1
40
1
40
1
10
11.12918347120285
20
1.6024113930761796
30
0
10
11.279116421937943
20
1.4759041108190996
30
0
10
11.518072336912155
20
1.4149953164160234
30
0
0
SPLINE
5
226
100
AcDbEntity
8
0
100
AcDbSpline
70
0
71
2
72
6
73
3
74
0
42
0.000000001
43
0.0000000001
44
0.0000000001
40
0
40
0
40
0
40
1
40
1
40
1
10
11.518072336912155
20
1.4149953164160234
30
0
10
11.752342730760574
20
1.3540841378271562
30
0
10
12.37550213932991
20
1.3540841378271562
30
0
0
LINE
5
227
100
AcDbEntity
8
0
100
AcDbLine
10
12.792503386735916
20
-9.3895553313195741
30
0
11
14.127844721078873
21
-9.3895553313195723
31
0
0
LINE
5
228
100
AcDbEntity
8
0
100
AcDbLine
10
14.127844721078873
20
-9.3895553313195723
30
0
11
14.127844721078873
21
-9.7081636153161543
31
0
0
LINE
5
229
100
AcDbEntity
8
0
100
AcDbLine
10
14.127844721078873
20
-9.7081636153161543
30
0
11
10.730923563241959
21
-9.7081636153161543
31
0
0
LINE
5
230
100
AcDbEntity
8
0
100
AcDbLine
10
10.730923563241959
20
-9.7081636153161543
30
0
11
10.730923563241959
21
-9.3895553313195723
31
0
0
LINE
5
231
100
AcDbEntity
8
0
100
AcDbLine
10
10.730923563241959
20
-9.3895553313195723
30
0
11
11.185408234596252
21
-9.3895553313195723
31
0
0
SPLINE
5
232
100
AcDbEntity
8
0
100
AcDbSpline
70
0
71
2
72
6
73
3
74
0
42
0.000000001
43
0.0000000001
44
0.0000000001
40
0
40
0
40
0
40
1
40
1
40
1
10
11.185408234596252
20
-9.3895553313195723
30
0
10
10.665328055620193
20
-9.0100382529199141
30
0
10
10.665328055620193
20
-8.4009336195886153
30
0
0
SPLINE
5
233
100
AcDbEntity
8
0
100
AcDbSpline
70
0
71
2
72
6
73
3
74
0
42
0.000000001
43
0.0000000001
44
0.0000000001
40
0
40
0
40
0
40
1
40
1
40
1
10
10.665328055620193
20
-8.4009336195886153
30
0
10
10.665328055620193
20
-7.8761695586144942
30
0
10
11.054216772317886
20
-7.496650096029045
30
0
0
SPLINE
5
234
100
AcDbEntity
8
0
100
AcDbSpline
70
0
71
2
72
6
73
3
74
0
42
0.000000001
43
0.0000000001
44
0.0000000001
40
0
40
0
40
0
40
1
40
1
40
1
10
11.054216772317886
20
-7.496650096029045
30
0
10
11.43842026591301
20
-7.1171330176293868
30
0
10
11.981927901506424
20
-7.1171330176293868
30
0
0
SPLINE
5
235
100
AcDbEntity
8
0
100
AcDbSpline
70
0
71
2
72
6
73
3
74
0
42
0.000000001
43
0.0000000001
44
0.0000000001
40
0
40
0
40
0
40
1
40
1
40
1
10
11.981927901506424
20
-7.1171330176293868
30
0
10
12.525435239076614
20
-7.1171330176293868
30
0
10
12.914323955774307
20
-7.4919675551354903
30
0
0
SPLINE
5
236
100
AcDbEntity
8
0
100
AcDbSpline
70
0
71
2
72
6
73
3
74
0
42
0.000000001
43
0.0000000001
44
0.0000000001
40
0
40
0
40
0
40
1
40
1
40
1
10
12.914323955774307
20
-7.4919675551354903
30
0
10
13.303212970495224
20
-7.8667997084558028
30
0
10
13.303212970495224
20
-8.3915637694299239
30
0
0
SPLINE
5
237
100
AcDbEntity
8
0
100
AcDbSpline
70
0
71
2
72
6
73
3
74
0
42
0.000000001
43
0.0000000001
44
0.0000000001
40
0
40
0
40
0
40
1
40
1
40
1
10
13.303212970495224
20
-8.3915637694299239
30
0
10
13.303212970495224
20
-8.9631842337548751
30
0
10
12.792503386735916
20
-9.3895553313195723
30
0
0
LINE
5
238
100
AcDbEntity
8
0
100
AcDbLine
10
12.305221110582352
20
-16.689423199743032
30
0
11
13.218875676393509
21
-16.689423199743032
31
0
0
LINE
5
239
100
AcDbEntity
8
0
100
AcDbLine
10
13.218875676393509
20
-16.689423199743032
30
0
11
13.218875676393509
21
-17.01271640881896
31
0
0
LINE
5
240
100
AcDbEntity
8
0
100
AcDbLine
10
13.218875676393509
20
-17.01271640881896
30
0
11
10.730923563241959
21
-17.01271640881896
31
0
0
LINE
5
241
100
AcDbEntity
8
0
100
AcDbLine
10
10.730923563241959
20
-17.01271640881896
30
0
11
10.730923563241959
21
-16.689423199743032
31
0
0
LINE
5
242
100
AcDbEntity
8
0
100
AcDbLine
10
10.730923563241959
20
-16.689423199743032
30
0
11
11.176037490367889
21
-16.689423199743032
31
0
0
SPLINE
5
243
100
AcDbEntity
8
0
100
AcDbSpline
70
0
71
2
72
6
73
3
74
0
42
0.000000001
43
0.0000000001
44
0.0000000001
40
0
40
0
40
0
40
1
40
1
40
1
10
11.176037490367889
20
-16.689423199743032
30
0
10
10.665328055620193
20
-16.305220004171133
30
0
10
10.665328055620193
20
-15.757026549428703
30
0
0
SPLINE
5
244
100
AcDbEntity
8
0
100
AcDbSpline
70
0
71
2
72
6
73
3
74
0
42
0.000000001
43
0.0000000001
44
0.0000000001
40
0
40
0
40
0
40
1
40
1
40
1
10
10.665328055620193
20
-15.757026549428703
30
0
10
10.665328055620193
20
-15.475902434438469
30
0
10
10.819946378469467
20
-15.251002188771965
30
0
0
SPLINE
5
245
100
AcDbEntity
8
0
100
AcDbSpline
70
0
71
2
72
6
73
3
74
0
42
0.000000001
43
0.0000000001
44
0.0000000001
40
0
40
0
40
0
40
1
40
1
40
1
10
10.819946378469467
20
-15.251002188771965
30
0
10
10.969879478216171
20
-15.026103135198356
30
0
10
11.218206137418747
20
-14.932395096868278
30
0
0
SPLINE
5
246
100
AcDbEntity
8
0
100
AcDbSpline
70
0
71
2
72
6
73
3
74
0
42
0.000000001
43
0.0000000001
44
0.0000000001
40
0
40
0
40
0
40
1
40
1
40
1
10
11.218206137418747
20
-14.932395096868278
30
0
10
11.461847424507141
20
-14.8386870585382
30
0
10
11.939759105443954
20
-14.8386870585382
30
0
0
LINE
5
247
100
AcDbEntity
8
0
100
AcDbLine
10
11.939759105443954
20
-14.8386870585382
30
0
11
13.218875676393509
21
-14.8386870585382
31
0
0
LINE
5
248
100
AcDbEntity
8
0
100
AcDbLine
10
13.218875676393509
20
-14.8386870585382
30
0
11
13.218875676393509
21
-15.157294150441887
31
0
0
LINE
5
249
100
AcDbEntity
8
0
100
AcDbLine
10
13.218875676393509
20
-15.157294150441887
30
0
11
12.033467441797256
21
-15.157294150441887
31
0
0
SPLINE
5
250
100
AcDbEntity
8
0
100
AcDbSpline
70
0
71
2
72
6
73
3
74
0
42
0.000000001
43
0.0000000001
44
0.0000000001
40
0
40
0
40
0
40
1
40
1
40
1
10
12.033467441797256
20
-15.157294150441887
30
0
10
11.597724258899689
20
-15.157294150441887
30
0
10
11.443105787038803
20
-15.19946324452758
30
0
0
SPLINE
5
251
100
AcDbEntity
8
0
100
AcDbSpline
70
0
71
2
72
6
73
3
74
0
42
0.000000001
43
0.0000000001
44
0.0000000001
40
0
40
0
40
0
40
1
40
1
40
1
10
11.443105787038803
20
-15.19946324452758
30
0
10
11.288487315177917
20
-15.236947413533928
30
0
10
11.180722862482071
20
-15.321283217519523
30
0
0
SPLINE
5
252
100
AcDbEntity
8
0
100
AcDbSpline
70
0
71
2
72
6
73
3
74
0
42
0.000000001
43
0.0000000001
44
0.0000000001
40
0
40
0
40
0
40
1
40
1
40
1
10
11.180722862482071
20
-15.321283217519523
30
0
10
11.072958558797836
20
-15.400936480611565
30
0
10
11.016733646392822
20
-15.527441378682854
30
0
0
SPLINE
5
253
100
AcDbEntity
8
0
100
AcDbSpline
70
0
71
2
72
6
73
3
74
0
42
0.000000001
43
0.0000000001
44
0.0000000001
40
0
40
0
40
0
40
1
40
1
40
1
10
11.016733646392822
20
-15.527441378682854
30
0
10
10.960508733987808
20
-15.653948660939934
30
0
10
10.960508733987808
20
-15.836678620427849
30
0
0
SPLINE
5
254
100
AcDbEntity
8
0
100
AcDbSpline
70
0
71
2
72
6
73
3
74
0
42
0.000000001
43
0.0000000001
44
0.0000000001
40
0
40
0
40
0
40
1
40
1
40
1
10
10.960508733987808
20
-15.836678620427849
30
0
10
10.960508733987808
20
-16.014723654836416
30
0
10
11.049531400203705
20
-16.188084956258535
30
0
0
SPLINE
5
255
100
AcDbEntity
8
0
100
AcDbSpline
70
0
71
2
72
6
73
3
74
0
42
0.000000001
43
0.0000000001
44
0.0000000001
40
0
40
0
40
0
40
1
40
1
40
1
10
11.049531400203705
20
-16.188084956258535
30
0
10
11.138554215431213
20
-16.361443873494864
30
0
10
11.297858059406281
20
-16.483265038579702
30
0
0
SPLINE
5
256
100
AcDbEntity
8
0
100
AcDbSpline
70
0
71
2
72
6
73
3
74
0
42
0.000000001
43
0.0000000001
44
0.0000000001
40
0
40
0
40
0
40
1
40
1
40
1
10
11.297858059406281
20
-16.483265038579702
30
0
10
11.45716205239296
20
-16.605086203664541
30
0
10
11.62583664059639
20
-16.647255297750235
30
0
0
SPLINE
5
257
100
AcDbEntity
8
0
100
AcDbSpline
70
0
71
2
72
6
73
3
74
0
42
0.000000001
43
0.0000000001
44
0.0000000001
40
0
40
0
40
0
40
1
40
1
40
1
10
11.62583664059639
20
-16.647255297750235
30
0
10
11.794511377811432
20
-16.689423199743032
30
0
10
12.305221110582352
20
-16.689423199743032
30
0
0
LWPOLYLINE
5
258
100
AcDbEntity
8
0
100
AcDbPolyline
90
13
70
1
43
0.0
10
13.218875676393509
20
-20.498660679906607
10
10.791833847761154
20
-21.702810999006033
10
13.218875676393509
20
-22.030789133161306
10
13.218875676393509
20
-22.354082342237234
10
9.8547519743442535
20
-21.876171108335257
10
9.8547519743442535
20
-21.824631568044424
10
12.614457756280899
20
-20.456492181867361
10
9.8547519743442535
20
-19.097723837941885
10
9.8547519743442535
20
-19.046183701604605
10
13.218875676393509
20
-18.563587542623281
10
13.218875676393509
20
-18.896250601857901
10
10.81057533621788
20
-19.22422992810607
10
13.218875676393509
20
-20.414323683828115
0
LWPOLYLINE
5
259
100
AcDbEntity
8
0
100
AcDbPolyline
90
4
70
1
43
0.0
10
10.730923563241959
20
-13.878178473562004
10
13.218875676393509
20
-13.878178473562004
10
13.218875676393509
20
-14.201471682637932
10
10.730923563241959
20
-14.201471682637932
0
SPLINE
5
260
100
AcDbEntity
8
0
100
AcDbSpline
70
0
71
2
72
6
73
3
74
0
42
0.000000001
43
0.0000000001
44
0.0000000001
40
0
40
0
40
0
40
1
40
1
40
1
10
12.010040134191513
20
-6.3065599165856856
30
0
10
12.459839433431625
20
-6.2925027571618575
30
0
10
12.736278623342514
20
-6.0254358015954512
30
0
0
SPLINE
5
261
100
AcDbEntity
8
0
100
AcDbSpline
70
0
71
2
72
6
73
3
74
0
42
0.000000001
43
0.0000000001
44
0.0000000001
40
0
40
0
40
0
40
1
40
1
40
1
10
12.736278623342514
20
-6.0254358015954512
30
0
10
13.008032292127609
20
-5.7536815367639083
30
0
10
13.008032292127609
20
-5.3694771490991133
30
0
0
SPLINE
5
262
100
AcDbEntity
8
0
100
AcDbSpline
70
0
71
2
72
6
73
3
74
0
42
0.000000001
43
0.0000000001
44
0.0000000001
40
0
40
0
40
0
40
1
40
1
40
1
10
13.008032292127609
20
-5.3694771490991133
30
0
10
13.008032292127609
20
-4.736945506185295
30
0
10
12.412985414266586
20
-4.4230245314538497
30
0
0
LINE
5
263
100
AcDbEntity
8
0
100
AcDbLine
10
12.412985414266586
20
-4.4230245314538497
30
0
11
12.553547769784927
21
-4.1512702666223067
31
0
0
SPLINE
5
264
100
AcDbEntity
8
0
100
AcDbSpline
70
0
71
2
72
6
73
3
74
0
42
0.000000001
43
0.0000000001
44
0.0000000001
40
0
40
0
40
0
40
1
40
1
40
1
10
12.553547769784927
20
-4.1512702666223067
30
0
10
13.303212970495224
20
-4.5542167387902754
30
0
10
13.303212970495224
20
-5.3413652144372481
30
0
0
SPLINE
5
265
100
AcDbEntity
8
0
100
AcDbSpline
70
0
71
2
72
6
73
3
74
0
42
0.000000001
43
0.0000000001
44
0.0000000001
40
0
40
0
40
0
40
1
40
1
40
1
10
13.303212970495224
20
-5.3413652144372481
30
0
10
13.303212970495224
20
-5.9036134444177168
30
0
10
12.919009476900101
20
-6.2690757475793379
30
0
0
SPLINE
5
266
100
AcDbEntity
8
0
100
AcDbSpline
70
0
71
2
72
6
73
3
74
0
42
0.000000001
43
0.0000000001
44
0.0000000001
40
0
40
0
40
0
40
1
40
1
40
1
10
12.919009476900101
20
-6.2690757475793379
30
0
10
12.530120462179184
20
-6.634538050740959
30
0
10
11.986613124608994
20
-6.634538050740959
30
0
0
SPLINE
5
267
100
AcDbEntity
8
0
100
AcDbSpline
70
0
71
2
72
6
73
3
74
0
42
0.000000001
43
0.0000000001
44
0.0000000001
40
0
40
0
40
0
40
1
40
1
40
1
10
11.986613124608994
20
-6.634538050740959
30
0
10
11.443105638027191
20
-6.634538050740959
30
0
10
11.054216772317886
20
-6.2690757475793379
30
0
0
SPLINE
5
268
100
AcDbEntity
8
0
100
AcDbSpline
70
0
71
2
72
6
73
3
74
0
42
0.000000001
43
0.0000000001
44
0.0000000001
40
0
40
0
40
0
40
1
40
1
40
1
10
11.054216772317886
20
-6.2690757475793379
30
0
10
10.665328055620193
20
-5.8989285193383711
30
0
10
10.665328055620193
20
-5.3601049147546309
30
0
0
SPLINE
5
269
100
AcDbEntity
8
0
100
AcDbSpline
70
0
71
2
72
6
73
3
74
0
42
0.000000001
43
0.0000000001
44
0.0000000001
40
0
40
0
40
0
40
1
40
1
40
1
10
10.665328055620193
20
-5.3601049147546309
30
0
10
10.665328055620193
20
-4.816598769277336
30
0
10
11.026104390621185
20
-4.4511364661157149
30
0
0
SPLINE
5
270
100
AcDbEntity
8
0
100
AcDbSpline
70
0
71
2
72
6
73
3
74
0
42
0.000000001
43
0.0000000001
44
0.0000000001
40
0
40
0
40
0
40
1
40
1
40
1
10
11.026104390621185
20
-4.4511364661157149
30
0
10
11.386880874633789
20
-4.0809892378747481
30
0
10
12.010040134191513
20
-4.06693207845092
30
0
0
LINE
5
271
100
AcDbEntity
8
0
100
AcDbLine
10
12.010040134191513
20
-4.06693207845092
30
0
11
12.010040134191513
21
-6.3065599165856856
31
0
0
SPLINE
5
272
100
AcDbEntity
8
0
100
AcDbSpline
70
0
71
2
72
6
73
3
74
0
42
0.000000001
43
0.0000000001
44
0.0000000001
40
0
40
0
40
0
40
1
40
1
40
1
10
12.919009476900101
20
4.6572972573339921
30
0
10
13.303212970495224
20
4.2871500290930253
30
0
10
13.303212970495224
20
3.7389565743505937
30
0
0
SPLINE
5
273
100
AcDbEntity
8
0
100
AcDbSpline
70
0
71
2
72
6
73
3
74
0
42
0.000000001
43
0.0000000001
44
0.0000000001
40
0
40
0
40
0
40
1
40
1
40
1
10
13.303212970495224
20
3.7389565743505937
30
0
10
13.303212970495224
20
3.1907655037939531
30
0
10
12.919009476900101
20
2.8159333504736406
30
0
0
SPLINE
5
274
100
AcDbEntity
8
0
100
AcDbSpline
70
0
71
2
72
6
73
3
74
0
42
0.000000001
43
0.0000000001
44
0.0000000001
40
0
40
0
40
0
40
1
40
1
40
1
10
12.919009476900101
20
2.8159333504736406
30
0
10
12.530120462179184
20
2.4410988129675371
30
0
10
11.991298347711563
20
2.4410988129675371
30
0
0
SPLINE
5
275
100
AcDbEntity
8
0
100
AcDbSpline
70
0
71
2
72
6
73
3
74
0
42
0.000000001
43
0.0000000001
44
0.0000000001
40
0
40
0
40
0
40
1
40
1
40
1
10
11.991298347711563
20
2.4410988129675371
30
0
10
11.443105638027191
20
2.4410988129675371
30
0
10
11.054216772317886
20
2.8159333504736406
30
0
0
SPLINE
5
276
100
AcDbEntity
8
0
100
AcDbSpline
70
0
71
2
72
6
73
3
74
0
42
0.000000001
43
0.0000000001
44
0.0000000001
40
0
40
0
40
0
40
1
40
1
40
1
10
11.054216772317886
20
2.8159333504736406
30
0
10
10.665328055620193
20
3.1954504288732988
30
0
10
10.665328055620193
20
3.734271649271248
30
0
0
SPLINE
5
277
100
AcDbEntity
8
0
100
AcDbSpline
70
0
71
2
72
6
73
3
74
0
42
0.000000001
43
0.0000000001
44
0.0000000001
40
0
40
0
40
0
40
1
40
1
40
1
10
10.665328055620193
20
3.734271649271248
30
0
10
10.665328055620193
20
4.2777801789343339
30
0
10
11.054216772317886
20
4.6526123322546464
30
0
0
SPLINE
5
278
100
AcDbEntity
8
0
100
AcDbSpline
70
0
71
2
72
6
73
3
74
0
42
0.000000001
43
0.0000000001
44
0.0000000001
40
0
40
0
40
0
40
1
40
1
40
1
10
11.054216772317886
20
4.6526123322546464
30
0
10
11.443105638027191
20
5.0321294106543046
30
0
10
11.986613124608994
20
5.0321294106543046
30
0
0
SPLINE
5
279
100
AcDbEntity
8
0
100
AcDbSpline
70
0
71
2
72
6
73
3
74
0
42
0.000000001
43
0.0000000001
44
0.0000000001
40
0
40
0
40
0
40
1
40
1
40
1
10
11.986613124608994
20
5.0321294106543046
30
0
10
12.530120462179184
20
5.0321294106543046
30
0
10
12.919009476900101
20
4.6572972573339921
30
0
0
SPLINE
5
280
100
AcDbEntity
8
0
100
AcDbSpline
70
0
71
2
72
6
73
3
74
0
42
0.000000001
43
0.0000000001
44
0.0000000001
40
0
40
0
40
0
40
1
40
1
40
1
10
12.010040134191513
20
14.866802815347908
30
0
10
12.459839433431625
20
14.880859974771736
30
0
10
12.736278623342514
20
15.147926930338143
30
0
0
SPLINE
5
281
100
AcDbEntity
8
0
100
AcDbSpline
70
0
71
2
72
6
73
3
74
0
42
0.000000001
43
0.0000000001
44
0.0000000001
40
0
40
0
40
0
40
1
40
1
40
1
10
12.736278623342514
20
15.147926930338143
30
0
10
13.008032292127609
20
15.419676426798103
30
0
10
13.008032292127609
20
15.803883198648689
30
0
0
SPLINE
5
282
100
AcDbEntity
8
0
100
AcDbSpline
70
0
71
2
72
6
73
3
74
0
42
0.000000001
43
0.0000000001
44
0.0000000001
40
0
40
0
40
0
40
1
40
1
40
1
10
13.008032292127609
20
15.803883198648689
30
0
10
13.008032292127609
20
16.436412457376719
30
0
10
12.412985414266586
20
16.750338200479746
30
0
0
LINE
5
283
100
AcDbEntity
8
0
100
AcDbLine
10
12.412985414266586
20
16.750338200479746
30
0
11
12.553547769784927
21
17.022087696939707
31
0
0
SPLINE
5
284
100
AcDbEntity
8
0
100
AcDbSpline
70
0
71
2
72
6
73
3
74
0
42
0.000000001
43
0.0000000001
44
0.0000000001
40
0
40
0
40
0
40
1
40
1
40
1
10
12.553547769784927
20
17.022087696939707
30
0
10
13.303212970495224
20
16.619141224771738
30
0
10
13.303212970495224
20
15.831997517496346
30
0
0
SPLINE
5
285
100
AcDbEntity
8
0
100
AcDbSpline
70
0
71
2
72
6
73
3
74
0
42
0.000000001
43
0.0000000001
44
0.0000000001
40
0
40
0
40
0
40
1
40
1
40
1
10
13.303212970495224
20
15.831997517496346
30
0
10
13.303212970495224
20
15.269749287515877
30
0
10
12.919009476900101
20
14.904282215982674
30
0
0
SPLINE
5
286
100
AcDbEntity
8
0
100
AcDbSpline
70
0
71
2
72
6
73
3
74
0
42
0.000000001
43
0.0000000001
44
0.0000000001
40
0
40
0
40
0
40
1
40
1
40
1
10
12.919009476900101
20
14.904282215982674
30
0
10
12.530120462179184
20
14.538824681192635
30
0
10
11.986613124608994
20
14.538824681192635
30
0
0
SPLINE
5
287
100
AcDbEntity
8
0
100
AcDbSpline
70
0
71
2
72
6
73
3
74
0
42
0.000000001
43
0.0000000001
44
0.0000000001
40
0
40
0
40
0
40
1
40
1
40
1
10
11.986613124608994
20
14.538824681192635
30
0
10
11.443105638027191
20
14.538824681192635
30
0
10
11.054216772317886
20
14.904282215982674
30
0
0
SPLINE
5
288
100
AcDbEntity
8
0
100
AcDbSpline
70
0
71
2
72
6
73
3
74
0
42
0.000000001
43
0.0000000001
44
0.0000000001
40
0
40
0
40
0
40
1
40
1
40
1
10
11.054216772317886
20
14.904282215982674
30
0
10
10.665328055620193
20
15.274431828409432
30
0
10
10.665328055620193
20
15.813257817178963
30
0
0
SPLINE
5
289
100
AcDbEntity
8
0
100
AcDbSpline
70
0
71
2
72
6
73
3
74
0
42
0.000000001
43
0.0000000001
44
0.0000000001
40
0
40
0
40
0
40
1
40
1
40
1
10
10.665328055620193
20
15.813257817178963
30
0
10
10.665328055620193
20
16.356761578470469
30
0
10
11.026104390621185
20
16.72222388163209
30
0
0
SPLINE
5
290
100
AcDbEntity
8
0
100
AcDbSpline
70
0
71
2
72
6
73
3
74
0
42
0.000000001
43
0.0000000001
44
0.0000000001
40
0
40
0
40
0
40
1
40
1
40
1
10
11.026104390621185
20
16.72222388163209
30
0
10
11.386880874633789
20
17.092373494058847
30
0
10
12.010040134191513
20
17.106425885111094
30
0
0
LINE
5
291
100
AcDbEntity
8
0
100
AcDbLine
10
12.010040134191513
20
17.106425885111094
30
0
11
12.010040134191513
21
14.866802815347908
31
0
0
LWPOLYLINE
5
292
100
AcDbEntity
8
0
100
AcDbPolyline
90
4
70
1
43
0.0
10
15.869386195445882
20
24.835944175720215
10
18.852304517532218
20
24.835944175720215
10
18.852304517532218
20
24.447331428527832
10
15.869386195445882
20
24.447331428527832
0
SPLINE
5
293
100
AcDbEntity
8
0
100
AcDbSpline
70
0
71
2
72
6
73
3
74
0
42
0.000000001
43
0.0000000001
44
0.0000000001
40
0
40
0
40
0
40
1
40
1
40
1
10
16.452304273153175
20
-9.129183292388916
30
0
10
16.381841748262275
20
-9.1975116729736328
30
0
10
16.290026604438651
20
-9.1975116729736328
30
0
0
SPLINE
5
294
100
AcDbEntity
8
0
100
AcDbSpline
70
0
71
2
72
6
73
3
74
0
42
0.000000001
43
0.0000000001
44
0.0000000001
40
0
40
0
40
0
40
1
40
1
40
1
10
16.290026604438651
20
-9.1975116729736328
30
0
10
16.200346946025718
20
-9.1975116729736328
30
0
10
16.132019757533897
20
-9.129183292388916
30
0
0
SPLINE
5
295
100
AcDbEntity
8
0
100
AcDbSpline
70
0
71
2
72
6
73
3
74
0
42
0.000000001
43
0.0000000001
44
0.0000000001
40
0
40
0
40
0
40
1
40
1
40
1
10
16.132019757533897
20
-9.129183292388916
30
0
10
16.061556934619773
20
-9.0608549118041992
30
0
10
16.061556934619773
20
-8.9711761474609375
30
0
0
SPLINE
5
296
100
AcDbEntity
8
0
100
AcDbSpline
70
0
71
2
72
6
73
3
74
0
42
0.000000001
43
0.0000000001
44
0.0000000001
40
0
40
0
40
0
40
1
40
1
40
1
10
16.061556934619773
20
-8.9711761474609375
30
0
10
16.061556934619773
20
-8.8750910758972168
30
0
10
16.12774908473574
20
-8.8067626953125
30
0
0
SPLINE
5
297
100
AcDbEntity
8
0
100
AcDbSpline
70
0
71
2
72
6
73
3
74
0
42
0.000000001
43
0.0000000001
44
0.0000000001
40
0
40
0
40
0
40
1
40
1
40
1
10
16.12774908473574
20
-8.8067626953125
30
0
10
16.193941234851707
20
-8.7384366989135742
30
0
10
16.290026604438651
20
-8.7384366989135742
30
0
0
SPLINE
5
298
100
AcDbEntity
8
0
100
AcDbSpline
70
0
71
2
72
6
73
3
74
0
42
0.000000001
43
0.0000000001
44
0.0000000001
40
0
40
0
40
0
40
1
40
1
40
1
10
16.290026604438651
20
-8.7384366989135742
30
0
10
16.383976935649741
20
-8.7384366989135742
30
0
10
16.452304273153175
20
-8.8067626953125
30
0
0
SPLINE
5
299
100
AcDbEntity
8
0
100
AcDbSpline
70
0
71
2
72
6
73
3
74
0
42
0.000000001
43
0.0000000001
44
0.0000000001
40
0
40
0
40
0
40
1
40
1
40
1
10
16.452304273153175
20
-8.8067626953125
30
0
10
16.52063175966822
20
-8.8750910758972168
30
0
10
16.52063175966822
20
-8.9711761474609375
30
0
0
SPLINE
5
300
100
AcDbEntity
8
0
100
AcDbSpline
70
0
71
2
72
6
73
3
74
0
42
0.000000001
43
0.0000000001
44
0.0000000001
40
0
40
0
40
0
40
1
40
1
40
1
10
16.52063175966822
20
-8.9711761474609375
30
0
10
16.52063175966822
20
-9.0608549118041992
30
0
10
16.452304273153175
20
-9.129183292388916
30
0
0
LINE
5
301
100
AcDbEntity
8
0
100
AcDbLine
10
18.852304517532218
20
-10.969753265380859
30
0
11
18.852304517532218
21
-11.36690616607666
31
0
0
LINE
5
302
100
AcDbEntity
8
0
100
AcDbLine
10
18.852304517532218
20
-11.36690616607666
30
0
11
16.887891589904655
21
-11.36690616607666
31
0
0
LINE
5
303
100
AcDbEntity
8
0
100
AcDbLine
10
16.887891589904655
20
-11.36690616607666
30
0
11
16.887891589904655
21
-10.969753265380859
31
0
0
LINE
5
304
100
AcDbEntity
8
0
100
AcDbLine
10
16.887891589904655
20
-10.969753265380859
30
0
11
17.137713580633033
21
-10.969753265380859
31
0
0
SPLINE
5
305
100
AcDbEntity
8
0
100
AcDbSpline
70
0
71
2
72
6
73
3
74
0
42
0.000000001
43
0.0000000001
44
0.0000000001
40
0
40
0
40
0
40
1
40
1
40
1
10
17.137713580633033
20
-10.969753265380859
30
0
10
16.849457322860587
20
-10.709254741668701
30
0
10
16.849457322860587
20
-10.378293991088867
30
0
0
SPLINE
5
306
100
AcDbEntity
8
0
100
AcDbSpline
70
0
71
2
72
6
73
3
74
0
42
0.000000001
43
0.0000000001
44
0.0000000001
40
0
40
0
40
0
40
1
40
1
40
1
10
16.849457322860587
20
-10.378293991088867
30
0
10
16.849457322860587
20
-10.194664001464844
30
0
10
16.945542841459144
20
-10.036656856536865
30
0
0
SPLINE
5
307
100
AcDbEntity
8
0
100
AcDbSpline
70
0
71
2
72
6
73
3
74
0
42
0.000000001
43
0.0000000001
44
0.0000000001
40
0
40
0
40
0
40
1
40
1
40
1
10
16.945542841459144
20
-10.036656856536865
30
0
10
17.039493023658622
20
-9.8786497116088867
30
0
10
17.206041067148078
20
-9.797511100769043
30
0
0
SPLINE
5
308
100
AcDbEntity
8
0
100
AcDbSpline
70
0
71
2
72
6
73
3
74
0
42
0.000000001
43
0.0000000001
44
0.0000000001
40
0
40
0
40
0
40
1
40
1
40
1
10
17.206041067148078
20
-9.797511100769043
30
0
10
17.370453774238456
20
-9.7142362594604492
30
0
10
17.729172705913413
20
-9.7142362594604492
30
0
0
LINE
5
309
100
AcDbEntity
8
0
100
AcDbLine
10
17.729172705913413
20
-9.7142362594604492
30
0
11
18.852304517532218
21
-9.7142362594604492
31
0
0
LINE
5
310
100
AcDbEntity
8
0
100
AcDbLine
10
18.852304517532218
20
-9.7142362594604492
30
0
11
18.852304517532218
21
-10.102849006652832
31
0
0
LINE
5
311
100
AcDbEntity
8
0
100
AcDbLine
10
18.852304517532218
20
-10.102849006652832
30
0
11
17.733443080688346
21
-10.102849006652832
31
0
0
SPLINE
5
312
100
AcDbEntity
8
0
100
AcDbSpline
70
0
71
2
72
6
73
3
74
0
42
0.000000001
43
0.0000000001
44
0.0000000001
40
0
40
0
40
0
40
1
40
1
40
1
10
17.733443080688346
20
-10.102849006652832
30
0
10
17.43237554957949
20
-10.102849006652832
30
0
10
17.304261624122489
20
-10.194664001464844
30
0
0
SPLINE
5
313
100
AcDbEntity
8
0
100
AcDbSpline
70
0
71
2
72
6
73
3
74
0
42
0.000000001
43
0.0000000001
44
0.0000000001
40
0
40
0
40
0
40
1
40
1
40
1
10
17.304261624122489
20
-10.194664001464844
30
0
10
17.174012511278022
20
-10.286478996276855
30
0
10
17.174012511278022
20
-10.502138137817383
30
0
0
SPLINE
5
314
100
AcDbEntity
8
0
100
AcDbSpline
70
0
71
2
72
6
73
3
74
0
42
0.000000001
43
0.0000000001
44
0.0000000001
40
0
40
0
40
0
40
1
40
1
40
1
10
17.174012511278022
20
-10.502138137817383
30
0
10
17.174012511278022
20
-10.777581930160522
30
0
10
17.449457346702445
20
-10.969753265380859
30
0
0
LINE
5
315
100
AcDbEntity
8
0
100
AcDbLine
10
17.449457346702445
20
-10.969753265380859
30
0
11
18.852304517532218
21
-10.969753265380859
31
0
0
SPLINE
5
316
100
AcDbEntity
8
0
100
AcDbSpline
70
0
71
2
72
6
73
3
74
0
42
0.000000001
43
0.0000000001
44
0.0000000001
40
0
40
0
40
0
40
1
40
1
40
1
10
18.602482377792228
20
19.072952270507812
30
0
10
18.316361307407249
20
18.776154518127441
30
0
10
17.88931518724047
20
18.776154518127441
30
0
0
SPLINE
5
317
100
AcDbEntity
8
0
100
AcDbSpline
70
0
71
2
72
6
73
3
74
0
42
0.000000001
43
0.0000000001
44
0.0000000001
40
0
40
0
40
0
40
1
40
1
40
1
10
17.88931518724047
20
18.776154518127441
30
0
10
17.457998096252311
20
18.776154518127441
30
0
10
17.171877323890556
20
19.075088500976562
30
0
0
SPLINE
5
318
100
AcDbEntity
8
0
100
AcDbSpline
70
0
71
2
72
6
73
3
74
0
42
0.000000001
43
0.0000000001
44
0.0000000001
40
0
40
0
40
0
40
1
40
1
40
1
10
17.171877323890556
20
19.075088500976562
30
0
10
16.88362106611811
20
19.376153945922852
30
0
10
16.88362106611811
20
19.828824996948242
30
0
0
SPLINE
5
319
100
AcDbEntity
8
0
100
AcDbSpline
70
0
71
2
72
6
73
3
74
0
42
0.000000001
43
0.0000000001
44
0.0000000001
40
0
40
0
40
0
40
1
40
1
40
1
10
16.88362106611811
20
19.828824996948242
30
0
10
16.88362106611811
20
20.277223587036133
30
0
10
17.174012511278022
20
20.574021339416504
30
0
0
SPLINE
5
320
100
AcDbEntity
8
0
100
AcDbSpline
70
0
71
2
72
6
73
3
74
0
42
0.000000001
43
0.0000000001
44
0.0000000001
40
0
40
0
40
0
40
1
40
1
40
1
10
17.174012511278022
20
20.574021339416504
30
0
10
17.462268769050468
20
20.870819091796875
30
0
10
17.899991273189414
20
20.870819091796875
30
0
0
SPLINE
5
321
100
AcDbEntity
8
0
100
AcDbSpline
70
0
71
2
72
6
73
3
74
0
42
0.000000001
43
0.0000000001
44
0.0000000001
40
0
40
0
40
0
40
1
40
1
40
1
10
17.899991273189414
20
20.870819091796875
30
0
10
18.324902354980338
20
20.870819091796875
30
0
10
18.606753050590385
20
20.569748878479004
30
0
0
SPLINE
5
322
100
AcDbEntity
8
0
100
AcDbSpline
70
0
71
2
72
6
73
3
74
0
42
0.000000001
43
0.0000000001
44
0.0000000001
40
0
40
0
40
0
40
1
40
1
40
1
10
18.606753050590385
20
20.569748878479004
30
0
10
18.886468111778129
20
20.268683433532715
30
0
10
18.886468111778129
20
19.811744689941406
30
0
0
SPLINE
5
323
100
AcDbEntity
8
0
100
AcDbSpline
70
0
71
2
72
6
73
3
74
0
42
0.000000001
43
0.0000000001
44
0.0000000001
40
0
40
0
40
0
40
1
40
1
40
1
10
18.886468111778129
20
19.811744689941406
30
0
10
18.886468111778129
20
19.369750022888184
30
0
10
18.602482377792228
20
19.072952270507812
30
0
0
LINE
5
324
100
AcDbEntity
8
0
100
AcDbLine
10
18.109243809486259
20
-0.26797294616699219
30
0
11
17.238069474006522
21
-0.26797294616699219
31
0
0
LINE
5
325
100
AcDbEntity
8
0
100
AcDbLine
10
17.238069474006522
20
-0.26797294616699219
30
0
11
17.238069474006522
21
-0.60961008071899414
31
0
0
LINE
5
326
100
AcDbEntity
8
0
100
AcDbLine
10
17.238069474006522
20
-0.60961008071899414
30
0
11
17.199635355974067
21
-0.60961008071899414
31
0
0
LINE
5
327
100
AcDbEntity
8
0
100
AcDbLine
10
17.199635355974067
20
-0.60961008071899414
30
0
11
16.482197492624152
21
0.12063980102539062
31
0
0
LINE
5
328
100
AcDbEntity
8
0
100
AcDbLine
10
16.482197492624152
20
0.12063980102539062
30
0
11
16.887891440893043
21
0.12063980102539062
31
0
0
LINE
5
329
100
AcDbEntity
8
0
100
AcDbLine
10
16.887891440893043
20
0.12063980102539062
30
0
11
16.887891440893043
21
0.74199199676513672
31
0
0
LINE
5
330
100
AcDbEntity
8
0
100
AcDbLine
10
16.887891440893043
20
0.74199199676513672
30
0
11
17.238069474006522
21
0.74199199676513672
31
0
0
LINE
5
331
100
AcDbEntity
8
0
100
AcDbLine
10
17.238069474006522
20
0.74199199676513672
30
0
11
17.238069474006522
21
0.12063980102539062
31
0
0
LINE
5
332
100
AcDbEntity
8
0
100
AcDbLine
10
17.238069474006522
20
0.12063980102539062
30
0
11
18.20105880429827
21
0.12063980102539062
31
0
0
SPLINE
5
333
100
AcDbEntity
8
0
100
AcDbSpline
70
0
71
2
72
6
73
3
74
0
42
0.000000001
43
0.0000000001
44
0.0000000001
40
0
40
0
40
0
40
1
40
1
40
1
10
18.20105880429827
20
0.12063980102539062
30
0
10
18.538425564075339
20
0.12063980102539062
30
0
10
18.538425564075339
20
0.40035486221313477
30
0
0
SPLINE
5
334
100
AcDbEntity
8
0
100
AcDbSpline
70
0
71
2
72
6
73
3
74
0
42
0.000000001
43
0.0000000001
44
0.0000000001
40
0
40
0
40
0
40
1
40
1
40
1
10
18.538425564075339
20
0.40035486221313477
30
0
10
18.538425564075339
20
0.60960769653320312
30
0
10
18.397500216270316
20
0.84234714508056641
30
0
0
LINE
5
335
100
AcDbEntity
8
0
100
AcDbLine
10
18.397500216270316
20
0.84234714508056641
30
0
11
18.760489522720206
21
0.84234714508056641
31
0
0
SPLINE
5
336
100
AcDbEntity
8
0
100
AcDbSpline
70
0
71
2
72
6
73
3
74
0
42
0.000000001
43
0.0000000001
44
0.0000000001
40
0
40
0
40
0
40
1
40
1
40
1
10
18.760489522720206
20
0.84234714508056641
30
0
10
18.886468111778129
20
0.61814785003662109
30
0
10
18.886468111778129
20
0.35337924957275391
30
0
0
SPLINE
5
337
100
AcDbEntity
8
0
100
AcDbSpline
70
0
71
2
72
6
73
3
74
0
42
0.000000001
43
0.0000000001
44
0.0000000001
40
0
40
0
40
0
40
1
40
1
40
1
10
18.886468111778129
20
0.35337924957275391
30
0
10
18.886468111778129
20
0.086474418640136719
30
0
10
18.730596303249229
20
-0.090749263763427734
30
0
0
SPLINE
5
338
100
AcDbEntity
8
0
100
AcDbSpline
70
0
71
2
72
6
73
3
74
0
42
0.000000001
43
0.0000000001
44
0.0000000001
40
0
40
0
40
0
40
1
40
1
40
1
10
18.730596303249229
20
-0.090749263763427734
30
0
10
18.683621286655296
20
-0.14626502990722656
30
0
10
18.625969886089194
20
-0.18256425857543945
30
0
0
SPLINE
5
339
100
AcDbEntity
8
0
100
AcDbSpline
70
0
71
2
72
6
73
3
74
0
42
0.000000001
43
0.0000000001
44
0.0000000001
40
0
40
0
40
0
40
1
40
1
40
1
10
18.625969886089194
20
-0.18256425857543945
30
0
10
18.566183447147239
20
-0.21886348724365234
30
0
10
18.472233413959373
20
-0.24448633193969727
30
0
0
SPLINE
5
340
100
AcDbEntity
8
0
100
AcDbSpline
70
0
71
2
72
6
73
3
74
0
42
0.000000001
43
0.0000000001
44
0.0000000001
40
0
40
0
40
0
40
1
40
1
40
1
10
18.472233413959373
20
-0.24448633193969727
30
0
10
18.376148044372428
20
-0.26797294616699219
30
0
10
18.109243809486259
20
-0.26797294616699219
30
0
0
LINE
5
341
100
AcDbEntity
8
0
100
AcDbLine
10
18.109243809486259
20
10.798931121826172
30
0
11
17.238069474006522
21
10.798931121826172
31
0
0
LINE
5
342
100
AcDbEntity
8
0
100
AcDbLine
10
17.238069474006522
20
10.798931121826172
30
0
11
17.238069474006522
21
10.457296371459961
31
0
0
LINE
5
343
100
AcDbEntity
8
0
100
AcDbLine
10
17.238069474006522
20
10.457296371459961
30
0
11
17.199635355974067
21
10.457296371459961
31
0
0
LINE
5
344
100
AcDbEntity
8
0
100
AcDbLine
10
17.199635355974067
20
10.457296371459961
30
0
11
16.482197492624152
21
11.187543869018555
31
0
0
LINE
5
345
100
AcDbEntity
8
0
100
AcDbLine
10
16.482197492624152
20
11.187543869018555
30
0
11
16.887891440893043
21
11.187543869018555
31
0
0
LINE
5
346
100
AcDbEntity
8
0
100
AcDbLine
10
16.887891440893043
20
11.187543869018555
30
0
11
16.887891440893043
21
11.808896064758301
31
0
0
LINE
5
347
100
AcDbEntity
8
0
100
AcDbLine
10
16.887891440893043
20
11.808896064758301
30
0
11
17.238069474006522
21
11.808896064758301
31
0
0
LINE
5
348
100
AcDbEntity
8
0
100
AcDbLine
10
17.238069474006522
20
11.808896064758301
30
0
11
17.238069474006522
21
11.187543869018555
31
0
0
LINE
5
349
100
AcDbEntity
8
0
100
AcDbLine
10
17.238069474006522
20
11.187543869018555
30
0
11
18.20105880429827
21
11.187543869018555
31
0
0
SPLINE
5
350
100
AcDbEntity
8
0
100
AcDbSpline
70
0
71
2
72
6
73
3
74
0
42
0.000000001
43
0.0000000001
44
0.0000000001
40
0
40
0
40
0
40
1
40
1
40
1
10
18.20105880429827
20
11.187543869018555
30
0
10
18.538425564075339
20
11.187543869018555
30
0
10
18.538425564075339
20
11.467256546020508
30
0
0
SPLINE
5
351
100
AcDbEntity
8
0
100
AcDbSpline
70
0
71
2
72
6
73
3
74
0
42
0.000000001
43
0.0000000001
44
0.0000000001
40
0
40
0
40
0
40
1
40
1
40
1
10
18.538425564075339
20
11.467256546020508
30
0
10
18.538425564075339
20
11.676511764526367
30
0
10
18.397500216270316
20
11.90925121307373
30
0
0
LINE
5
352
100
AcDbEntity
8
0
100
AcDbLine
10
18.397500216270316
20
11.90925121307373
30
0
11
18.760489522720206
21
11.90925121307373
31
0
0
SPLINE
5
353
100
AcDbEntity
8
0
100
AcDbSpline
70
0
71
2
72
6
73
3
74
0
42
0.000000001
43
0.0000000001
44
0.0000000001
40
0
40
0
40
0
40
1
40
1
40
1
10
18.760489522720206
20
11.90925121307373
30
0
10
18.886468111778129
20
11.685051918029785
30
0
10
18.886468111778129
20
11.420283317565918
30
0
0
SPLINE
5
354
100
AcDbEntity
8
0
100
AcDbSpline
70
0
71
2
72
6
73
3
74
0
42
0.000000001
43
0.0000000001
44
0.0000000001
40
0
40
0
40
0
40
1
40
1
40
1
10
18.886468111778129
20
11.420283317565918
30
0
10
18.886468111778129
20
11.153378486633301
30
0
10
18.730596303249229
20
10.976152420043945
30
0
0
SPLINE
5
355
100
AcDbEntity
8
0
100
AcDbSpline
70
0
71
2
72
6
73
3
74
0
42
0.000000001
43
0.0000000001
44
0.0000000001
40
0
40
0
40
0
40
1
40
1
40
1
10
18.730596303249229
20
10.976152420043945
30
0
10
18.683621286655296
20
10.920639038085938
30
0
10
18.625969886089194
20
10.884342193603516
30
0
0
SPLINE
5
356
100
AcDbEntity
8
0
100
AcDbSpline
70
0
71
2
72
6
73
3
74
0
42
0.000000001
43
0.0000000001
44
0.0000000001
40
0
40
0
40
0
40
1
40
1
40
1
10
18.625969886089194
20
10.884342193603516
30
0
10
18.566183447147239
20
10.848040580749512
30
0
10
18.472233413959373
20
10.822420120239258
30
0
0
SPLINE
5
357
100
AcDbEntity
8
0
100
AcDbSpline
70
0
71
2
72
6
73
3
74
0
42
0.000000001
43
0.0000000001
44
0.0000000001
40
0
40
0
40
0
40
1
40
1
40
1
10
18.472233413959373
20
10.822420120239258
30
0
10
18.376148044372428
20
10.798931121826172
30
0
10
18.109243809486259
20
10.798931121826172
30
0
0
LWPOLYLINE
5
358
100
AcDbEntity
8
0
100
AcDbPolyline
90
39
70
1
43
0.0
10
16.887891440893043
20
-21.782565116882324
10
16.887891440893043
20
-21.494308710098267
10
18.079350888038505
20
-20.996800065040588
10
16.887891440893043
20
-20.484344959259033
10
16.887891440893043
20
-20.067974328994751
10
18.886468111778129
20
-19.19252872467041
10
18.886468111778129
20
-19.066550731658936
10
17.51778483321749
20
-18.494309186935425
10
18.886468111778129
20
-17.911391258239746
10
18.886468111778129
20
-17.789682149887085
10
16.887891440893043
20
-16.922779083251953
10
16.887891440893043
20
-17.33914852142334
10
18.079350888038505
20
-17.851604223251343
10
16.887891440893043
20
-18.349113464355469
10
16.887891440893043
20
-18.637368679046631
10
18.079350888038505
20
-19.137012958526611
10
16.887891440893043
20
-19.651603698730469
10
16.887891440893043
20
-20.067974328994751
10
18.886468111778129
20
-20.934878587722778
10
18.886468111778129
20
-21.056586503982544
10
17.51778483321749
20
-21.639504432678223
10
18.886468111778129
20
-22.211746573448181
10
18.886468111778129
20
-22.337725162506104
10
16.887891440893043
20
-23.213170170783997
10
16.887891440893043
20
-23.629540205001831
10
18.079350888038505
20
-24.141995906829834
10
16.887891440893043
20
-24.63950514793396
10
16.887891440893043
20
-24.92776095867157
10
18.079350888038505
20
-25.42740523815155
10
16.887891440893043
20
-25.941995978355408
10
16.887891440893043
20
-26.358366012573242
10
18.886468111778129
20
-25.482921004295349
10
18.886468111778129
20
-25.356942415237427
10
17.51778483321749
20
-24.784700870513916
10
18.886468111778129
20
-24.20178234577179
10
18.886468111778129
20
-24.080073833465576
10
16.887891440893043
20
-23.213170170783997
10
16.887891440893043
20
-22.796800136566162
10
18.079350888038505
20
-22.282209396362305
0
SPLINE
5
359
100
AcDbEntity
8
0
100
AcDbSpline
70
0
71
2
72
6
73
3
74
0
42
0.000000001
43
0.0000000001
44
0.0000000001
40
0
40
0
40
0
40
1
40
1
40
1
10
17.688603400493491
20
7.7156567573547363
30
0
10
17.443051635528434
20
7.7156567573547363
30
0
10
17.312802671695579
20
7.6153016090393066
30
0
0
SPLINE
5
360
100
AcDbEntity
8
0
100
AcDbSpline
70
0
71
2
72
6
73
3
74
0
42
0.000000001
43
0.0000000001
44
0.0000000001
40
0
40
0
40
0
40
1
40
1
40
1
10
17.312802671695579
20
7.6153016090393066
30
0
10
17.182553558851112
20
7.5149440765380859
30
0
10
17.182553558851112
20
7.3270440101623535
30
0
0
SPLINE
5
361
100
AcDbEntity
8
0
100
AcDbSpline
70
0
71
2
72
6
73
3
74
0
42
0.000000001
43
0.0000000001
44
0.0000000001
40
0
40
0
40
0
40
1
40
1
40
1
10
17.182553558851112
20
7.3270440101623535
30
0
10
17.182553558851112
20
7.0857644081115723
30
0
10
17.425969838405479
20
6.8765115737915039
30
0
0
LINE
5
362
100
AcDbEntity
8
0
100
AcDbLine
10
17.425969838405479
20
6.8765115737915039
30
0
11
18.852304517532218
21
6.8765115737915039
31
0
0
LINE
5
363
100
AcDbEntity
8
0
100
AcDbLine
10
18.852304517532218
20
6.8765115737915039
30
0
11
18.852304517532218
21
6.4857625961303711
31
0
0
LINE
5
364
100
AcDbEntity
8
0
100
AcDbLine
10
18.852304517532218
20
6.4857625961303711
30
0
11
17.759065925384391
21
6.4857625961303711
31
0
0
SPLINE
5
365
100
AcDbEntity
8
0
100
AcDbSpline
70
0
71
2
72
6
73
3
74
0
42
0.000000001
43
0.0000000001
44
0.0000000001
40
0
40
0
40
0
40
1
40
1
40
1
10
17.759065925384391
20
6.4857625961303711
30
0
10
17.43237554957949
20
6.4857625961303711
30
0
10
17.304261624122489
20
6.3982200622558594
30
0
0
SPLINE
5
366
100
AcDbEntity
8
0
100
AcDbSpline
70
0
71
2
72
6
73
3
74
0
42
0.000000001
43
0.0000000001
44
0.0000000001
40
0
40
0
40
0
40
1
40
1
40
1
10
17.304261624122489
20
6.3982200622558594
30
0
10
17.174012511278022
20
6.3106751441955566
30
0
10
17.174012511278022
20
6.0928821563720703
30
0
0
SPLINE
5
367
100
AcDbEntity
8
0
100
AcDbSpline
70
0
71
2
72
6
73
3
74
0
42
0.000000001
43
0.0000000001
44
0.0000000001
40
0
40
0
40
0
40
1
40
1
40
1
10
17.174012511278022
20
6.0928821563720703
30
0
10
17.174012511278022
20
5.9711718559265137
30
0
10
17.229528575445045
20
5.868682861328125
30
0
0
SPLINE
5
368
100
AcDbEntity
8
0
100
AcDbSpline
70
0
71
2
72
6
73
3
74
0
42
0.000000001
43
0.0000000001
44
0.0000000001
40
0
40
0
40
0
40
1
40
1
40
1
10
17.229528575445045
20
5.868682861328125
30
0
10
17.285044639612067
20
5.7683253288269043
30
0
10
17.425969838405479
20
5.6380772590637207
30
0
0
LINE
5
369
100
AcDbEntity
8
0
100
AcDbLine
10
17.425969838405479
20
5.6380772590637198
30
0
11
18.852304517532218
21
5.6380772590637207
31
0
0
LINE
5
370
100
AcDbEntity
8
0
100
AcDbLine
10
18.852304517532218
20
5.6380772590637207
30
0
11
18.852304517532218
21
5.2494645118713379
31
0
0
LINE
5
371
100
AcDbEntity
8
0
100
AcDbLine
10
18.852304517532218
20
5.2494645118713379
30
0
11
16.887891589904655
21
5.2494645118713379
31
0
0
LINE
5
372
100
AcDbEntity
8
0
100
AcDbLine
10
16.887891589904655
20
5.2494645118713379
30
0
11
16.887891589904655
21
5.6380772590637207
31
0
0
LINE
5
373
100
AcDbEntity
8
0
100
AcDbLine
10
16.887891589904655
20
5.6380772590637207
30
0
11
17.146254628206123
21
5.6380772590637207
31
0
0
SPLINE
5
374
100
AcDbEntity
8
0
100
AcDbSpline
70
0
71
2
72
6
73
3
74
0
42
0.000000001
43
0.0000000001
44
0.0000000001
40
0
40
0
40
0
40
1
40
1
40
1
10
17.146254628206123
20
5.6380772590637207
30
0
10
16.849457322860587
20
5.9348750114440918
30
0
10
16.849457322860587
20
6.2188601493835449
30
0
0
SPLINE
5
375
100
AcDbEntity
8
0
100
AcDbSpline
70
0
71
2
72
6
73
3
74
0
42
0.000000001
43
0.0000000001
44
0.0000000001
40
0
40
0
40
0
40
1
40
1
40
1
10
16.849457322860587
20
6.2188601493835449
30
0
10
16.849457322860587
20
6.5925264358520508
30
0
10
17.203905879760612
20
6.7975068092346191
30
0
0
SPLINE
5
376
100
AcDbEntity
8
0
100
AcDbSpline
70
0
71
2
72
6
73
3
74
0
42
0.000000001
43
0.0000000001
44
0.0000000001
40
0
40
0
40
0
40
1
40
1
40
1
10
17.203905879760612
20
6.7975068092346191
30
0
10
16.845186948085654
20
7.1092510223388672
30
0
10
16.845186948085654
20
7.4487543106079102
30
0
0
SPLINE
5
377
100
AcDbEntity
8
0
100
AcDbSpline
70
0
71
2
72
6
73
3
74
0
42
0.000000001
43
0.0000000001
44
0.0000000001
40
0
40
0
40
0
40
1
40
1
40
1
10
16.845186948085654
20
7.4487543106079102
30
0
10
16.845186948085654
20
7.7348732948303223
30
0
10
17.054439633394111
20
7.9185032844543457
30
0
0
SPLINE
5
378
100
AcDbEntity
8
0
100
AcDbSpline
70
0
71
2
72
6
73
3
74
0
42
0.000000001
43
0.0000000001
44
0.0000000001
40
0
40
0
40
0
40
1
40
1
40
1
10
17.054439633394111
20
7.9185032844543457
30
0
10
17.263692318702567
20
8.1042695045471191
30
0
10
17.692873775268424
20
8.1042695045471191
30
0
0
LINE
5
379
100
AcDbEntity
8
0
100
AcDbLine
10
17.692873775268424
20
8.1042695045471191
30
0
11
18.852304517532218
21
8.1042695045471191
31
0
0
LINE
5
380
100
AcDbEntity
8
0
100
AcDbLine
10
18.852304517532218
20
8.1042695045471191
30
0
11
18.852304517532218
21
7.7156567573547363
31
0
0
LINE
5
381
100
AcDbEntity
8
0
100
AcDbLine
10
18.852304517532218
20
7.7156567573547363
30
0
11
17.688603400493491
21
7.7156567573547363
31
0
0
SPLINE
5
382
100
AcDbEntity
8
0
100
AcDbSpline
70
0
71
2
72
6
73
3
74
0
42
0.000000001
43
0.0000000001
44
0.0000000001
40
0
40
0
40
0
40
1
40
1
40
1
10
16.452304273153175
20
-12.274379730224609
30
0
10
16.381841748262275
20
-12.342708110809326
30
0
10
16.290026604438651
20
-12.342708110809326
30
0
0
SPLINE
5
383
100
AcDbEntity
8
0
100
AcDbSpline
70
0
71
2
72
6
73
3
74
0
42
0.000000001
43
0.0000000001
44
0.0000000001
40
0
40
0
40
0
40
1
40
1
40
1
10
16.290026604438651
20
-12.342708110809326
30
0
10
16.200346946025718
20
-12.342708110809326
30
0
10
16.132019757533897
20
-12.274379730224609
30
0
0
SPLINE
5
384
100
AcDbEntity
8
0
100
AcDbSpline
70
0
71
2
72
6
73
3
74
0
42
0.000000001
43
0.0000000001
44
0.0000000001
40
0
40
0
40
0
40
1
40
1
40
1
10
16.132019757533897
20
-12.274379730224609
30
0
10
16.061556934619773
20
-12.206052541732788
30
0
10
16.061556934619773
20
-12.116372585296631
30
0
0
SPLINE
5
385
100
AcDbEntity
8
0
100
AcDbSpline
70
0
71
2
72
6
73
3
74
0
42
0.000000001
43
0.0000000001
44
0.0000000001
40
0
40
0
40
0
40
1
40
1
40
1
10
16.061556934619773
20
-12.116372585296631
30
0
10
16.061556934619773
20
-12.02028751373291
30
0
10
16.12774908473574
20
-11.951960325241089
30
0
0
SPLINE
5
386
100
AcDbEntity
8
0
100
AcDbSpline
70
0
71
2
72
6
73
3
74
0
42
0.000000001
43
0.0000000001
44
0.0000000001
40
0
40
0
40
0
40
1
40
1
40
1
10
16.12774908473574
20
-11.951960325241089
30
0
10
16.193941234851707
20
-11.883633136749268
30
0
10
16.290026604438651
20
-11.883633136749268
30
0
0
SPLINE
5
387
100
AcDbEntity
8
0
100
AcDbSpline
70
0
71
2
72
6
73
3
74
0
42
0.000000001
43
0.0000000001
44
0.0000000001
40
0
40
0
40
0
40
1
40
1
40
1
10
16.290026604438651
20
-11.883633136749268
30
0
10
16.383976935649741
20
-11.883633136749268
30
0
10
16.452304273153175
20
-11.951960325241089
30
0
0
SPLINE
5
388
100
AcDbEntity
8
0
100
AcDbSpline
70
0
71
2
72
6
73
3
74
0
42
0.000000001
43
0.0000000001
44
0.0000000001
40
0
40
0
40
0
40
1
40
1
40
1
10
16.452304273153175
20
-11.951960325241089
30
0
10
16.52063175966822
20
-12.02028751373291
30
0
10
16.52063175966822
20
-12.116372585296631
30
0
0
SPLINE
5
389
100
AcDbEntity
8
0
100
AcDbSpline
70
0
71
2
72
6
73
3
74
0
42
0.000000001
43
0.0000000001
44
0.0000000001
40
0
40
0
40
0
40
1
40
1
40
1
10
16.52063175966822
20
-12.116372585296631
30
0
10
16.52063175966822
20
-12.206052541732788
30
0
10
16.452304273153175
20
-12.274379730224609
30
0
0
SPLINE
5
390
100
AcDbEntity
8
0
100
AcDbSpline
70
0
71
2
72
6
73
3
74
0
42
0.000000001
43
0.0000000001
44
0.0000000001
40
0
40
0
40
0
40
1
40
1
40
1
10
16.849457471872199
20
13.006763458251953
30
0
10
16.849457471872199
20
13.397507667541504
30
0
10
17.122767119909156
20
13.630247116088867
30
0
0
SPLINE
5
391
100
AcDbEntity
8
0
100
AcDbSpline
70
0
71
2
72
6
73
3
74
0
42
0.000000001
43
0.0000000001
44
0.0000000001
40
0
40
0
40
0
40
1
40
1
40
1
10
17.122767119909156
20
13.630247116088867
30
0
10
17.396076618934501
20
13.862991333007812
30
0
10
17.855151592994559
20
13.862991333007812
30
0
0
LINE
5
392
100
AcDbEntity
8
0
100
AcDbLine
10
17.855151592994559
20
13.862991333007812
30
0
11
17.904261647964347
21
13.862991333007812
31
0
0
LINE
5
393
100
AcDbEntity
8
0
100
AcDbLine
10
17.904261647964347
20
13.862991333007812
30
0
11
17.904261647964347
21
12.481493949890137
31
0
0
SPLINE
5
394
100
AcDbEntity
8
0
100
AcDbSpline
70
0
71
2
72
6
73
3
74
0
42
0.000000001
43
0.0000000001
44
0.0000000001
40
0
40
0
40
0
40
1
40
1
40
1
10
17.904261647964347
20
12.481493949890137
30
0
10
18.186112343574393
20
12.496442794799805
30
0
10
18.352660238052238
20
12.669391632080078
30
0
0
SPLINE
5
395
100
AcDbEntity
8
0
100
AcDbSpline
70
0
71
2
72
6
73
3
74
0
42
0.000000001
43
0.0000000001
44
0.0000000001
40
0
40
0
40
0
40
1
40
1
40
1
10
18.352660238052238
20
12.669391632080078
30
0
10
18.519208430553306
20
12.844486236572266
30
0
10
18.519208430553306
20
13.119926452636719
30
0
0
SPLINE
5
396
100
AcDbEntity
8
0
100
AcDbSpline
70
0
71
2
72
6
73
3
74
0
42
0.000000001
43
0.0000000001
44
0.0000000001
40
0
40
0
40
0
40
1
40
1
40
1
10
18.519208430553306
20
13.119926452636719
30
0
10
18.519208430553306
20
13.504266738891602
30
0
10
18.28006237676226
20
13.828825950622559
30
0
0
LINE
5
397
100
AcDbEntity
8
0
100
AcDbLine
10
18.28006237676226
20
13.828825950622559
30
0
11
18.660133778358329
21
13.828825950622559
31
0
0
SPLINE
5
398
100
AcDbEntity
8
0
100
AcDbSpline
70
0
71
2
72
6
73
3
74
0
42
0.000000001
43
0.0000000001
44
0.0000000001
40
0
40
0
40
0
40
1
40
1
40
1
10
18.660133778358329
20
13.828825950622559
30
0
10
18.77970665624224
20
13.649463653564453
30
0
10
18.83095234563433
20
13.47224235534668
30
0
0
SPLINE
5
399
100
AcDbEntity
8
0
100
AcDbSpline
70
0
71
2
72
6
73
3
74
0
42
0.000000001
43
0.0000000001
44
0.0000000001
40
0
40
0
40
0
40
1
40
1
40
1
10
18.83095234563433
20
13.47224235534668
30
0
10
18.882197737003196
20
13.297152519226074
30
0
10
18.882197737003196
20
13.060140609741211
30
0
0
SPLINE
5
400
100
AcDbEntity
8
0
100
AcDbSpline
70
0
71
2
72
6
73
3
74
0
42
0.000000001
43
0.0000000001
44
0.0000000001
40
0
40
0
40
0
40
1
40
1
40
1
10
18.882197737003196
20
13.060140609741211
30
0
10
18.882197737003196
20
12.735586166381836
30
0
10
18.747678100372184
20
12.534875869750977
30
0
0
SPLINE
5
401
100
AcDbEntity
8
0
100
AcDbSpline
70
0
71
2
72
6
73
3
74
0
42
0.000000001
43
0.0000000001
44
0.0000000001
40
0
40
0
40
0
40
1
40
1
40
1
10
18.747678100372184
20
12.534875869750977
30
0
10
18.613158463741172
20
12.334165573120117
30
0
10
18.386824130321372
20
12.212457656860352
30
0
0
SPLINE
5
402
100
AcDbEntity
8
0
100
AcDbSpline
70
0
71
2
72
6
73
3
74
0
42
0.000000001
43
0.0000000001
44
0.0000000001
40
0
40
0
40
0
40
1
40
1
40
1
10
18.386824130321372
20
12.212457656860352
30
0
10
18.158354460502494
20
12.092881202697754
30
0
10
17.859421967769492
20
12.092881202697754
30
0
0
SPLINE
5
403
100
AcDbEntity
8
0
100
AcDbSpline
70
0
71
2
72
6
73
3
74
0
42
0.000000001
43
0.0000000001
44
0.0000000001
40
0
40
0
40
0
40
1
40
1
40
1
10
17.859421967769492
20
12.092881202697754
30
0
10
17.411023377681602
20
12.092881202697754
30
0
10
17.131308018470634
20
12.346973419189453
30
0
0
SPLINE
5
404
100
AcDbEntity
8
0
100
AcDbSpline
70
0
71
2
72
6
73
3
74
0
42
0.000000001
43
0.0000000001
44
0.0000000001
40
0
40
0
40
0
40
1
40
1
40
1
10
17.131308018470634
20
12.346973419189453
30
0
10
16.849457471872199
20
12.601070404052734
30
0
10
16.849457471872199
20
13.006763458251953
30
0
0
SPLINE
5
405
100
AcDbEntity
8
0
100
AcDbSpline
70
0
71
2
72
6
73
3
74
0
42
0.000000001
43
0.0000000001
44
0.0000000001
40
0
40
0
40
0
40
1
40
1
40
1
10
18.732731639648307
20
-7.169041633605957
30
0
10
18.886468111778129
20
-7.3569393157958984
30
0
10
18.886468111778129
20
-7.6537370681762695
30
0
0
SPLINE
5
406
100
AcDbEntity
8
0
100
AcDbSpline
70
0
71
2
72
6
73
3
74
0
42
0.000000001
43
0.0000000001
44
0.0000000001
40
0
40
0
40
0
40
1
40
1
40
1
10
18.886468111778129
20
-7.6537370681762695
30
0
10
18.886468111778129
20
-7.828826904296875
30
0
10
18.85016918113314
20
-7.9654812812805176
30
0
0
SPLINE
5
407
100
AcDbEntity
8
0
100
AcDbSpline
70
0
71
2
72
6
73
3
74
0
42
0.000000001
43
0.0000000001
44
0.0000000001
40
0
40
0
40
0
40
1
40
1
40
1
10
18.85016918113314
20
-7.9654812812805176
30
0
10
18.811735212112296
20
-8.1021356582641602
30
0
10
18.711379169727195
20
-8.3092546463012695
30
0
0
LINE
5
408
100
AcDbEntity
8
0
100
AcDbLine
10
18.711379169727195
20
-8.3092546463012695
30
0
11
18.292873799110282
21
-8.3092546463012695
31
0
0
SPLINE
5
409
100
AcDbEntity
8
0
100
AcDbSpline
70
0
71
2
72
6
73
3
74
0
42
0.000000001
43
0.0000000001
44
0.0000000001
40
0
40
0
40
0
40
1
40
1
40
1
10
18.292873799110282
20
-8.3092546463012695
30
0
10
18.40817630221926
20
-8.144841194152832
30
0
10
18.480774163509238
20
-7.9740238189697266
30
0
0
SPLINE
5
410
100
AcDbEntity
8
0
100
AcDbSpline
70
0
71
2
72
6
73
3
74
0
42
0.000000001
43
0.0000000001
44
0.0000000001
40
0
40
0
40
0
40
1
40
1
40
1
10
18.480774163509238
20
-7.9740238189697266
30
0
10
18.551236986423362
20
-7.8010702133178711
30
0
10
18.551236986423362
20
-7.6836299896240234
30
0
0
SPLINE
5
411
100
AcDbEntity
8
0
100
AcDbSpline
70
0
71
2
72
6
73
3
74
0
42
0.000000001
43
0.0000000001
44
0.0000000001
40
0
40
0
40
0
40
1
40
1
40
1
10
18.551236986423362
20
-7.6836299896240234
30
0
10
18.551236986423362
20
-7.5619220733642578
30
0
10
18.491450249458182
20
-7.4743795394897461
30
0
0
SPLINE
5
412
100
AcDbEntity
8
0
100
AcDbSpline
70
0
71
2
72
6
73
3
74
0
42
0.000000001
43
0.0000000001
44
0.0000000001
40
0
40
0
40
0
40
1
40
1
40
1
10
18.491450249458182
20
-7.4743795394897461
30
0
10
18.431663810516227
20
-7.3868322372436523
30
0
10
18.348389863277305
20
-7.3868322372436523
30
0
0
SPLINE
5
413
100
AcDbEntity
8
0
100
AcDbSpline
70
0
71
2
72
6
73
3
74
0
42
0.000000001
43
0.0000000001
44
0.0000000001
40
0
40
0
40
0
40
1
40
1
40
1
10
18.348389863277305
20
-7.3868322372436523
30
0
10
18.262980579639304
20
-7.3868322372436523
30
0
10
18.207464515472282
20
-7.4444866180419922
30
0
0
SPLINE
5
414
100
AcDbEntity
8
0
100
AcDbSpline
70
0
71
2
72
6
73
3
74
0
42
0.000000001
43
0.0000000001
44
0.0000000001
40
0
40
0
40
0
40
1
40
1
40
1
10
18.207464515472282
20
-7.4444866180419922
30
0
10
18.149813412929404
20
-7.5
30
0
10
18.043051659370292
20
-7.6879024505615234
30
0
0
SPLINE
5
415
100
AcDbEntity
8
0
100
AcDbSpline
70
0
71
2
72
6
73
3
74
0
42
0.000000001
43
0.0000000001
44
0.0000000001
40
0
40
0
40
0
40
1
40
1
40
1
10
18.043051659370292
20
-7.6879024505615234
30
0
10
17.833799123073447
20
-8.0637025833129883
30
0
10
17.686468064094413
20
-8.1811404228210449
30
0
0
SPLINE
5
416
100
AcDbEntity
8
0
100
AcDbSpline
70
0
71
2
72
6
73
3
74
0
42
0.000000001
43
0.0000000001
44
0.0000000001
40
0
40
0
40
0
40
1
40
1
40
1
10
17.686468064094413
20
-8.1811404228210449
30
0
10
17.5370016687163
20
-8.2964420318603516
30
0
10
17.36191302468859
20
-8.2964420318603516
30
0
0
SPLINE
5
417
100
AcDbEntity
8
0
100
AcDbSpline
70
0
71
2
72
6
73
3
74
0
42
0.000000001
43
0.0000000001
44
0.0000000001
40
0
40
0
40
0
40
1
40
1
40
1
10
17.36191302468859
20
-8.2964420318603516
30
0
10
17.135578393245567
20
-8.2964420318603516
30
0
10
16.992517858053077
20
-8.1213521957397461
30
0
0
SPLINE
5
418
100
AcDbEntity
8
0
100
AcDbSpline
70
0
71
2
72
6
73
3
74
0
42
0.000000001
43
0.0000000001
44
0.0000000001
40
0
40
0
40
0
40
1
40
1
40
1
10
16.992517858053077
20
-8.1213521957397461
30
0
10
16.849457322860587
20
-7.9441308975219727
30
0
10
16.849457322860587
20
-7.6665496826171875
30
0
0
SPLINE
5
419
100
AcDbEntity
8
0
100
AcDbSpline
70
0
71
2
72
6
73
3
74
0
42
0.000000001
43
0.0000000001
44
0.0000000001
40
0
40
0
40
0
40
1
40
1
40
1
10
16.849457322860587
20
-7.6665496826171875
30
0
10
16.849457322860587
20
-7.3782920837402344
30
0
10
17.011734991575111
20
-7.0750904083251953
30
0
0
LINE
5
420
100
AcDbEntity
8
0
100
AcDbLine
10
17.011734991575111
20
-7.0750904083251953
30
0
11
17.396076618934501
21
-7.0750904083251953
31
0
0
SPLINE
5
421
100
AcDbEntity
8
0
100
AcDbSpline
70
0
71
2
72
6
73
3
74
0
42
0.000000001
43
0.0000000001
44
0.0000000001
40
0
40
0
40
0
40
1
40
1
40
1
10
17.396076618934501
20
-7.0750904083251953
30
0
10
17.186823933626044
20
-7.4209976196289062
30
0
10
17.186823933626044
20
-7.6409268379211426
30
0
0
SPLINE
5
422
100
AcDbEntity
8
0
100
AcDbSpline
70
0
71
2
72
6
73
3
74
0
42
0.000000001
43
0.0000000001
44
0.0000000001
40
0
40
0
40
0
40
1
40
1
40
1
10
17.186823933626044
20
-7.6409268379211426
30
0
10
17.186823933626044
20
-7.7540922164916992
30
0
10
17.235934286619056
20
-7.824556827545166
30
0
0
SPLINE
5
423
100
AcDbEntity
8
0
100
AcDbSpline
70
0
71
2
72
6
73
3
74
0
42
0.000000001
43
0.0000000001
44
0.0000000001
40
0
40
0
40
0
40
1
40
1
40
1
10
17.235934286619056
20
-7.824556827545166
30
0
10
17.282909303212989
20
-7.8928852081298828
30
0
10
17.36191302468859
20
-7.8928852081298828
30
0
0
SPLINE
5
424
100
AcDbEntity
8
0
100
AcDbSpline
70
0
71
2
72
6
73
3
74
0
42
0.000000001
43
0.0000000001
44
0.0000000001
40
0
40
0
40
0
40
1
40
1
40
1
10
17.36191302468859
20
-7.8928852081298828
30
0
10
17.430240213180412
20
-7.8928852081298828
30
0
10
17.492161988521445
20
-7.830963134765625
30
0
0
SPLINE
5
425
100
AcDbEntity
8
0
100
AcDbSpline
70
0
71
2
72
6
73
3
74
0
42
0.000000001
43
0.0000000001
44
0.0000000001
40
0
40
0
40
0
40
1
40
1
40
1
10
17.492161988521445
20
-7.830963134765625
30
0
10
17.554083763862479
20
-7.7669048309326172
30
0
10
17.641628383899558
20
-7.6088976860046387
30
0
0
LINE
5
426
100
AcDbEntity
8
0
100
AcDbLine
10
17.641628383899558
20
-7.6088976860046387
30
0
11
17.720631956363547
21
-7.4701070785522461
31
0
0
SPLINE
5
427
100
AcDbEntity
8
0
100
AcDbSpline
70
0
71
2
72
6
73
3
74
0
42
0.000000001
43
0.0000000001
44
0.0000000001
40
0
40
0
40
0
40
1
40
1
40
1
10
17.720631956363547
20
-7.4701070785522461
30
0
10
17.998211979175437
20
-6.9790053367614746
30
0
10
18.335578440929282
20
-6.9790053367614746
30
0
0
SPLINE
5
428
100
AcDbEntity
8
0
100
AcDbSpline
70
0
71
2
72
6
73
3
74
0
42
0.000000001
43
0.0000000001
44
0.0000000001
40
0
40
0
40
0
40
1
40
1
40
1
10
18.335578440929282
20
-6.9790053367614746
30
0
10
18.576859533096183
20
-6.9790053367614746
30
0
10
18.732731639648307
20
-7.169041633605957
30
0
0
LWPOLYLINE
5
429
100
AcDbEntity
8
0
100
AcDbPolyline
90
4
70
1
43
0.0
10
16.887891589904655
20
-8.7747359275817871
10
18.852304517532218
20
-8.7747359275817871
10
18.852304517532218
20
-9.1633462905883789
10
16.887891589904655
20
-9.1633462905883789
0
SPLINE
5
430
100
AcDbEntity
8
0
100
AcDbSpline
70
0
71
2
72
6
73
3
74
0
42
0.000000001
43
0.0000000001
44
0.0000000001
40
0
40
0
40
0
40
1
40
1
40
1
10
10.295180827379227
20
21.76372778788209
30
0
10
10.089022666215897
20
21.552879933267832
30
0
10
10.089022666215897
20
21.234276417642832
30
0
0
SPLINE
5
431
100
AcDbEntity
8
0
100
AcDbSpline
70
0
71
2
72
6
73
3
74
0
42
0.000000001
43
0.0000000001
44
0.0000000001
40
0
40
0
40
0
40
1
40
1
40
1
10
10.089022666215897
20
21.234276417642832
30
0
10
10.089022666215897
20
20.920355442911386
30
0
10
10.30455157160759
20
20.709507588297129
30
0
0
SPLINE
5
432
100
AcDbEntity
8
0
100
AcDbSpline
70
0
71
2
72
6
73
3
74
0
42
0.000000001
43
0.0000000001
44
0.0000000001
40
0
40
0
40
0
40
1
40
1
40
1
10
10.30455157160759
20
20.709507588297129
30
0
10
10.515394955873489
20
20.50335181131959
30
0
10
10.908969193696976
20
20.470554951578379
30
0
0
LINE
5
433
100
AcDbEntity
8
0
100
AcDbLine
10
10.908969193696977
20
20.470554951578379
30
0
11
10.908969193696976
21
20.14725935831666
31
0
0
SPLINE
5
434
100
AcDbEntity
8
0
100
AcDbSpline
70
0
71
2
72
6
73
3
74
0
42
0.000000001
43
0.0000000001
44
0.0000000001
40
0
40
0
40
0
40
1
40
1
40
1
10
10.908969193696976
20
20.14725935831666
30
0
10
10.393574386835098
20
20.170691136270761
30
0
10
10.084337443113327
20
20.489294651895761
30
0
0
SPLINE
5
435
100
AcDbEntity
8
0
100
AcDbSpline
70
0
71
2
72
6
73
3
74
0
42
0.000000001
43
0.0000000001
44
0.0000000001
40
0
40
0
40
0
40
1
40
1
40
1
10
10.084337443113327
20
20.489294651895761
30
0
10
9.7704149782657623
20
20.807898167520761
30
0
10
9.7704149782657623
20
21.257698658853769
30
0
0
SPLINE
5
436
100
AcDbEntity
8
0
100
AcDbSpline
70
0
71
2
72
6
73
3
74
0
42
0.000000001
43
0.0000000001
44
0.0000000001
40
0
40
0
40
0
40
1
40
1
40
1
10
9.7704149782657623
20
21.257698658853769
30
0
10
9.7704149782657623
20
21.712191227823496
30
0
10
10.065595656633377
20
22.007362965494394
30
0
0
SPLINE
5
437
100
AcDbEntity
8
0
100
AcDbSpline
70
0
71
2
72
6
73
3
74
0
42
0.000000001
43
0.0000000001
44
0.0000000001
40
0
40
0
40
0
40
1
40
1
40
1
10
10.065595656633377
20
22.007362965494394
30
0
10
10.356091111898422
20
22.307236317545176
30
0
10
10.777777880430222
20
22.307236317545176
30
0
0
SPLINE
5
438
100
AcDbEntity
8
0
100
AcDbSpline
70
0
71
2
72
6
73
3
74
0
42
0.000000001
43
0.0000000001
44
0.0000000001
40
0
40
0
40
0
40
1
40
1
40
1
10
10.777777880430222
20
22.307236317545176
30
0
10
11.091700196266174
20
22.307236317545176
30
0
10
11.358768343925476
20
22.138559941202402
30
0
0
SPLINE
5
439
100
AcDbEntity
8
0
100
AcDbSpline
70
0
71
2
72
6
73
3
74
0
42
0.000000001
43
0.0000000001
44
0.0000000001
40
0
40
0
40
0
40
1
40
1
40
1
10
11.358768343925476
20
22.138559941202402
30
0
10
11.62583664059639
20
21.974566105753183
30
0
10
11.991298347711563
20
21.637222889810801
30
0
0
LINE
5
440
100
AcDbEntity
8
0
100
AcDbLine
10
11.991298347711561
20
21.637222889810793
30
0
11
12.895582467317581
21
20.798533085733652
31
0
0
LINE
5
441
100
AcDbEntity
8
0
100
AcDbLine
10
12.895582467317581
20
20.798533085733652
30
0
11
12.895582467317581
21
22.354090336710215
31
0
0
LINE
5
442
100
AcDbEntity
8
0
100
AcDbLine
10
12.895582467317581
20
22.354090336710215
30
0
11
13.218875676393509
21
22.354090336710215
31
0
0
LINE
5
443
100
AcDbEntity
8
0
100
AcDbLine
10
13.218875676393509
20
22.354090336710215
30
0
11
13.218875676393509
21
20.06760847941041
31
0
0
LINE
5
444
100
AcDbEntity
8
0
100
AcDbLine
10
13.218875676393509
20
20.06760847941041
30
0
11
11.831994652748108
21
21.351406697183847
31
0
0
SPLINE
5
445
100
AcDbEntity
8
0
100
AcDbSpline
70
0
71
2
72
6
73
3
74
0
42
0.000000001
43
0.0000000001
44
0.0000000001
40
0
40
0
40
0
40
1
40
1
40
1
10
11.831994652748108
20
21.351406697183847
30
0
10
11.466532796621323
20
21.688759449869394
30
0
10
11.255689412355423
20
21.834004048258066
30
0
0
SPLINE
5
446
100
AcDbEntity
8
0
100
AcDbSpline
70
0
71
2
72
6
73
3
74
0
42
0.000000001
43
0.0000000001
44
0.0000000001
40
0
40
0
40
0
40
1
40
1
40
1
10
11.255689412355423
20
21.834004048258066
30
0
10
11.044846028089523
20
21.979258183389902
30
0
10
10.773092359304428
20
21.979258183389902
30
0
0
SPLINE
5
447
100
AcDbEntity
8
0
100
AcDbSpline
70
0
71
2
72
6
73
3
74
0
42
0.000000001
43
0.0000000001
44
0.0000000001
40
0
40
0
40
0
40
1
40
1
40
1
10
10.773092359304428
20
21.979258183389902
30
0
10
10.501338690519333
20
21.979258183389902
30
0
10
10.295180827379227
20
21.76372778788209
30
0
0
SPLINE
5
448
100
AcDbEntity
8
0
100
AcDbSpline
70
0
71
2
72
6
73
3
74
0
42
0.000000001
43
0.0000000001
44
0.0000000001
40
0
40
0
40
0
40
1
40
1
40
1
10
12.010040134191513
20
10.232935074716805
30
0
10
12.459839433431625
20
10.246989849954842
30
0
10
12.736278623342514
20
10.51406157389283
30
0
0
SPLINE
5
449
100
AcDbEntity
8
0
100
AcDbSpline
70
0
71
2
72
6
73
3
74
0
42
0.000000001
43
0.0000000001
44
0.0000000001
40
0
40
0
40
0
40
1
40
1
40
1
10
12.736278623342514
20
10.51406157389283
30
0
10
13.008032292127609
20
10.785811070352791
30
0
10
13.008032292127609
20
11.170017842203377
30
0
0
SPLINE
5
450
100
AcDbEntity
8
0
100
AcDbSpline
70
0
71
2
72
6
73
3
74
0
42
0.000000001
43
0.0000000001
44
0.0000000001
40
0
40
0
40
0
40
1
40
1
40
1
10
13.008032292127609
20
11.170017842203377
30
0
10
13.008032292127609
20
11.802542332559822
30
0
10
12.412985414266586
20
12.11646807566285
30
0
0
LINE
5
451
100
AcDbEntity
8
0
100
AcDbLine
10
12.412985414266586
20
12.11646807566285
30
0
11
12.553547769784927
21
12.388222340494393
31
0
0
SPLINE
5
452
100
AcDbEntity
8
0
100
AcDbSpline
70
0
71
2
72
6
73
3
74
0
42
0.000000001
43
0.0000000001
44
0.0000000001
40
0
40
0
40
0
40
1
40
1
40
1
10
12.553547769784927
20
12.388222340494393
30
0
10
13.303212970495224
20
11.985275868326424
30
0
10
13.303212970495224
20
11.198127392679451
30
0
0
SPLINE
5
453
100
AcDbEntity
8
0
100
AcDbSpline
70
0
71
2
72
6
73
3
74
0
42
0.000000001
43
0.0000000001
44
0.0000000001
40
0
40
0
40
0
40
1
40
1
40
1
10
13.303212970495224
20
11.198127392679451
30
0
10
13.303212970495224
20
10.635879162698982
30
0
10
12.919009476900101
20
10.270416859537361
30
0
0
SPLINE
5
454
100
AcDbEntity
8
0
100
AcDbSpline
70
0
71
2
72
6
73
3
74
0
42
0.000000001
43
0.0000000001
44
0.0000000001
40
0
40
0
40
0
40
1
40
1
40
1
10
12.919009476900101
20
10.270416859537361
30
0
10
12.530120462179184
20
9.9049545563757402
30
0
10
11.986613124608994
20
9.9049545563757402
30
0
0
SPLINE
5
455
100
AcDbEntity
8
0
100
AcDbSpline
70
0
71
2
72
6
73
3
74
0
42
0.000000001
43
0.0000000001
44
0.0000000001
40
0
40
0
40
0
40
1
40
1
40
1
10
11.986613124608994
20
9.9049545563757402
30
0
10
11.443105638027191
20
9.9049545563757402
30
0
10
11.054216772317886
20
10.270416859537361
30
0
0
SPLINE
5
456
100
AcDbEntity
8
0
100
AcDbSpline
70
0
71
2
72
6
73
3
74
0
42
0.000000001
43
0.0000000001
44
0.0000000001
40
0
40
0
40
0
40
1
40
1
40
1
10
11.054216772317886
20
10.270416859537361
30
0
10
10.665328055620193
20
10.640566471964119
30
0
10
10.665328055620193
20
11.179382923990486
30
0
0
SPLINE
5
457
100
AcDbEntity
8
0
100
AcDbSpline
70
0
71
2
72
6
73
3
74
0
42
0.000000001
43
0.0000000001
44
0.0000000001
40
0
40
0
40
0
40
1
40
1
40
1
10
10.665328055620193
20
11.179382923990486
30
0
10
10.665328055620193
20
11.722891453653572
30
0
10
11.026104390621185
20
12.088358525186775
30
0
0
SPLINE
5
458
100
AcDbEntity
8
0
100
AcDbSpline
70
0
71
2
72
6
73
3
74
0
42
0.000000001
43
0.0000000001
44
0.0000000001
40
0
40
0
40
0
40
1
40
1
40
1
10
11.026104390621185
20
12.088358525186775
30
0
10
11.386880874633789
20
12.458503369241951
30
0
10
12.010040134191513
20
12.472555760294197
30
0
0
LINE
5
459
100
AcDbEntity
8
0
100
AcDbLine
10
12.010040134191513
20
12.472555760294197
30
0
11
12.010040134191513
21
10.232935074716805
31
0
0
LINE
5
460
100
AcDbEntity
8
0
100
AcDbLine
10
10.730923861265182
20
0.67001593485474409
30
0
11
11.002677381038666
21
0.67001593485474409
31
0
0
LINE
5
461
100
AcDbEntity
8
0
100
AcDbLine
10
11.002677381038666
20
0.67001593485474409
30
0
11
11.002677381038666
21
0.16399157419800581
31
0
0
LINE
5
462
100
AcDbEntity
8
0
100
AcDbLine
10
11.002677381038666
20
0.16399157419800581
30
0
11
12.825301438570023
21
0.16399157419800581
31
0
0
SPLINE
5
463
100
AcDbEntity
8
0
100
AcDbSpline
70
0
71
2
72
6
73
3
74
0
42
0.000000001
43
0.0000000001
44
0.0000000001
40
0
40
0
40
0
40
1
40
1
40
1
10
12.825301438570023
20
0.16399157419800581
30
0
10
12.951807230710983
20
0.16399157419800581
30
0
10
12.975234240293503
20
0.19678843393921674
30
0
0
SPLINE
5
464
100
AcDbEntity
8
0
100
AcDbSpline
70
0
71
2
72
6
73
3
74
0
42
0.000000001
43
0.0000000001
44
0.0000000001
40
0
40
0
40
0
40
1
40
1
40
1
10
12.975234240293503
20
0.19678843393921674
30
0
10
12.998661249876022
20
0.2295876778662187
30
0
10
12.998661249876022
20
0.36546481028199018
30
0
0
LINE
5
465
100
AcDbEntity
8
0
100
AcDbLine
10
12.998661249876022
20
0.36546481028199018
30
0
11
12.998661249876022
21
0.55756581202149214
31
0
0
LINE
5
466
100
AcDbEntity
8
0
100
AcDbLine
10
12.998661249876022
20
0.55756581202149214
30
0
11
13.270415216684341
21
0.55756581202149214
31
0
0
SPLINE
5
467
100
AcDbEntity
8
0
100
AcDbSpline
70
0
71
2
72
6
73
3
74
0
42
0.000000001
43
0.0000000001
44
0.0000000001
40
0
40
0
40
0
40
1
40
1
40
1
10
13.270415216684341
20
0.55756581202149214
30
0
10
13.303212970495224
20
0.36077750101685346
30
0
10
13.303212970495224
20
0.24832976236939253
30
0
0
SPLINE
5
468
100
AcDbEntity
8
0
100
AcDbSpline
70
0
71
2
72
6
73
3
74
0
42
0.000000001
43
0.0000000001
44
0.0000000001
40
0
40
0
40
0
40
1
40
1
40
1
10
13.303212970495224
20
0.24832976236939253
30
0
10
13.303212970495224
20
0.037484291940925729
30
0
10
13.200133889913559
20
-0.060908671468498099
30
0
0
SPLINE
5
469
100
AcDbEntity
8
0
100
AcDbSpline
70
0
71
2
72
6
73
3
74
0
42
0.000000001
43
0.0000000001
44
0.0000000001
40
0
40
0
40
0
40
1
40
1
40
1
10
13.200133889913559
20
-0.060908671468498099
30
0
10
13.097055107355118
20
-0.15930163487792193
30
0
10
12.876840680837631
20
-0.15930163487792193
30
0
0
LINE
5
470
100
AcDbEntity
8
0
100
AcDbLine
10
12.876840680837633
20
-0.15930163487792193
30
0
11
11.002677381038666
21
-0.15930163487792193
31
0
0
LINE
5
471
100
AcDbEntity
8
0
100
AcDbLine
10
11.002677381038666
20
-0.15930163487792193
30
0
11
11.002677381038666
21
-0.59972989186644732
31
0
0
LINE
5
472
100
AcDbEntity
8
0
100
AcDbLine
10
11.002677381038666
20
-0.59972989186644732
30
0
11
10.730923861265182
21
-0.59972989186644732
31
0
0
LINE
5
473
100
AcDbEntity
8
0
100
AcDbLine
10
10.730923861265182
20
-0.59972989186644732
30
0
11
10.730923861265182
21
-0.15930163487792193
31
0
0
LINE
5
474
100
AcDbEntity
8
0
100
AcDbLine
10
10.730923861265182
20
-0.15930163487792193
30
0
11
9.7704149782657623
21
-0.15930163487792193
31
0
0
LINE
5
475
100
AcDbEntity
8
0
100
AcDbLine
10
9.7704149782657623
20
-0.15930163487792193
30
0
11
9.7704149782657623
21
0.16399157419800581
31
0
0
LINE
5
476
100
AcDbEntity
8
0
100
AcDbLine
10
9.7704149782657623
20
0.16399157419800581
30
0
11
10.730923861265182
21
0.16399157419800581
31
0
0
LINE
5
477
100
AcDbEntity
8
0
100
AcDbLine
10
10.730923861265182
20
0.16399157419800581
30
0
11
10.730923861265182
21
0.67001593485474409
31
0
0
SPLINE
5
478
100
AcDbEntity
8
0
100
AcDbSpline
70
0
71
2
72
6
73
3
74
0
42
0.000000001
43
0.0000000001
44
0.0000000001
40
0
40
0
40
0
40
1
40
1
40
1
10
12.39892914891243
20
-10.368807192891838
30
0
10
12.764390856027603
20
-10.368807192891838
30
0
10
13.036144524812698
20
-10.654617425054314
30
0
0
SPLINE
5
479
100
AcDbEntity
8
0
100
AcDbSpline
70
0
71
2
72
6
73
3
74
0
42
0.000000001
43
0.0000000001
44
0.0000000001
40
0
40
0
40
0
40
1
40
1
40
1
10
13.036144524812698
20
-10.654617425054314
30
0
10
13.303212970495224
20
-10.935741540044548
30
0
10
13.303212970495224
20
-11.310574885457756
30
0
0
SPLINE
5
480
100
AcDbEntity
8
0
100
AcDbSpline
70
0
71
2
72
6
73
3
74
0
42
0.000000001
43
0.0000000001
44
0.0000000001
40
0
40
0
40
0
40
1
40
1
40
1
10
13.303212970495224
20
-11.310574885457756
30
0
10
13.303212970495224
20
-11.971217270940544
30
0
10
12.59103074669838
20
-12.341364499181511
30
0
0
LINE
5
481
100
AcDbEntity
8
0
100
AcDbLine
10
12.59103074669838
20
-12.341364499181511
30
0
11
12.422356158494949
21
-12.055554267019035
31
0
0
SPLINE
5
482
100
AcDbEntity
8
0
100
AcDbSpline
70
0
71
2
72
6
73
3
74
0
42
0.000000001
43
0.0000000001
44
0.0000000001
40
0
40
0
40
0
40
1
40
1
40
1
10
12.422356158494949
20
-12.055554267019035
30
0
10
12.975234240293503
20
-11.755688067525627
30
0
10
12.975234240293503
20
-11.357428904622795
30
0
0
SPLINE
5
483
100
AcDbEntity
8
0
100
AcDbSpline
70
0
71
2
72
6
73
3
74
0
42
0.000000001
43
0.0000000001
44
0.0000000001
40
0
40
0
40
0
40
1
40
1
40
1
10
12.975234240293503
20
-11.357428904622795
30
0
10
12.975234240293503
20
-11.09973179921508
30
0
10
12.811244875192642
20
-10.91700064763427
30
0
0
SPLINE
5
484
100
AcDbEntity
8
0
100
AcDbSpline
70
0
71
2
72
6
73
3
74
0
42
0.000000001
43
0.0000000001
44
0.0000000001
40
0
40
0
40
0
40
1
40
1
40
1
10
12.811244875192642
20
-10.91700064763427
30
0
10
12.647255808115005
20
-10.734269496053459
30
0
10
12.403614670038223
20
-10.734269496053459
30
0
0
SPLINE
5
485
100
AcDbEntity
8
0
100
AcDbSpline
70
0
71
2
72
6
73
3
74
0
42
0.000000001
43
0.0000000001
44
0.0000000001
40
0
40
0
40
0
40
1
40
1
40
1
10
12.403614670038223
20
-10.734269496053459
30
0
10
12.211512476205826
20
-10.734269496053459
30
0
10
12.014725357294083
20
-10.888887520879509
30
0
0
SPLINE
5
486
100
AcDbEntity
8
0
100
AcDbSpline
70
0
71
2
72
6
73
3
74
0
42
0.000000001
43
0.0000000001
44
0.0000000001
40
0
40
0
40
0
40
1
40
1
40
1
10
12.014725357294083
20
-10.888887520879509
30
0
10
11.817938387393951
20
-11.043506737798454
30
0
10
11.550870090723038
20
-11.404282923787834
30
0
0
SPLINE
5
487
100
AcDbEntity
8
0
100
AcDbSpline
70
0
71
2
72
6
73
3
74
0
42
0.000000001
43
0.0000000001
44
0.0000000001
40
0
40
0
40
0
40
1
40
1
40
1
10
11.550870090723038
20
-11.404282923787834
30
0
10
11.279116421937943
20
-11.760374184697868
30
0
10
11.147924959659576
20
-11.886880274862053
30
0
0
SPLINE
5
488
100
AcDbEntity
8
0
100
AcDbSpline
70
0
71
2
72
6
73
3
74
0
42
0.000000001
43
0.0000000001
44
0.0000000001
40
0
40
0
40
0
40
1
40
1
40
1
10
11.147924959659576
20
-11.886880274862053
30
0
10
11.012048125267029
20
-12.008700247853996
30
0
10
10.862115174531937
20
-12.069611426442863
30
0
0
SPLINE
5
489
100
AcDbEntity
8
0
100
AcDbSpline
70
0
71
2
72
6
73
3
74
0
42
0.000000001
43
0.0000000001
44
0.0000000001
40
0
40
0
40
0
40
1
40
1
40
1
10
10.862115174531937
20
-12.069611426442863
30
0
10
10.707496851682663
20
-12.125835295766594
30
0
10
10.552878230810165
20
-12.125835295766594
30
0
0
SPLINE
5
490
100
AcDbEntity
8
0
100
AcDbSpline
70
0
71
2
72
6
73
3
74
0
42
0.000000001
43
0.0000000001
44
0.0000000001
40
0
40
0
40
0
40
1
40
1
40
1
10
10.552878230810165
20
-12.125835295766594
30
0
10
10.224899500608444
20
-12.125835295766594
30
0
10
10.000000149011612
20
-11.89625131711364
30
0
0
SPLINE
5
491
100
AcDbEntity
8
0
100
AcDbSpline
70
0
71
2
72
6
73
3
74
0
42
0.000000001
43
0.0000000001
44
0.0000000001
40
0
40
0
40
0
40
1
40
1
40
1
10
10.000000149011612
20
-11.89625131711364
30
0
10
9.7704149782657623
20
-11.661980029195549
30
0
10
9.7704149782657623
20
-11.310574885457756
30
0
0
SPLINE
5
492
100
AcDbEntity
8
0
100
AcDbSpline
70
0
71
2
72
6
73
3
74
0
42
0.000000001
43
0.0000000001
44
0.0000000001
40
0
40
0
40
0
40
1
40
1
40
1
10
9.7704149782657623
20
-11.310574885457756
30
0
10
9.7704149782657623
20
-11.034135695546867
30
0
10
9.9109773337841034
20
-10.827977534383537
30
0
0
SPLINE
5
493
100
AcDbEntity
8
0
100
AcDbSpline
70
0
71
2
72
6
73
3
74
0
42
0.000000001
43
0.0000000001
44
0.0000000001
40
0
40
0
40
0
40
1
40
1
40
1
10
9.9109773337841034
20
-10.827977534383537
30
0
10
10.046854168176651
20
-10.621819373220207
30
0
10
10.318607836961746
20
-10.429718371480705
30
0
0
LINE
5
494
100
AcDbEntity
8
0
100
AcDbLine
10
10.318607836961744
20
-10.429718371480705
30
0
11
10.529451221227646
21
-10.701471444219353
31
0
0
SPLINE
5
495
100
AcDbEntity
8
0
100
AcDbSpline
70
0
71
2
72
6
73
3
74
0
42
0.000000001
43
0.0000000001
44
0.0000000001
40
0
40
0
40
0
40
1
40
1
40
1
10
10.529451221227646
20
-10.701471444219353
30
0
10
10.351405590772629
20
-10.832662459462883
30
0
10
10.234270542860031
20
-10.973225709050896
30
0
0
SPLINE
5
496
100
AcDbEntity
8
0
100
AcDbSpline
70
0
71
2
72
6
73
3
74
0
42
0.000000001
43
0.0000000001
44
0.0000000001
40
0
40
0
40
0
40
1
40
1
40
1
10
10.234270542860031
20
-10.973225709050896
30
0
10
10.11713519692421
20
-11.113787766546013
30
0
10
10.11713519692421
20
-11.319945927709343
30
0
0
SPLINE
5
497
100
AcDbEntity
8
0
100
AcDbSpline
70
0
71
2
72
6
73
3
74
0
42
0.000000001
43
0.0000000001
44
0.0000000001
40
0
40
0
40
0
40
1
40
1
40
1
10
10.11713519692421
20
-11.319945927709343
30
0
10
10.11713519692421
20
-11.521417971700432
30
0
10
10.238955765962601
20
-11.652610179036857
30
0
0
SPLINE
5
498
100
AcDbEntity
8
0
100
AcDbSpline
70
0
71
2
72
6
73
3
74
0
42
0.000000001
43
0.0000000001
44
0.0000000001
40
0
40
0
40
0
40
1
40
1
40
1
10
10.238955765962601
20
-11.652610179036857
30
0
10
10.360776633024216
20
-11.779115077108147
30
0
10
10.548192709684372
20
-11.779115077108147
30
0
0
SPLINE
5
499
100
AcDbEntity
8
0
100
AcDbSpline
70
0
71
2
72
6
73
3
74
0
42
0.000000001
43
0.0000000001
44
0.0000000001
40
0
40
0
40
0
40
1
40
1
40
1
10
10.548192709684372
20
-11.779115077108147
30
0
10
10.735609084367752
20
-11.779115077108147
30
0
10
10.876171439886093
20
-11.66666614636779
30
0
0
SPLINE
5
500
100
AcDbEntity
8
0
100
AcDbSpline
70
0
71
2
72
6
73
3
74
0
42
0.000000001
43
0.0000000001
44
0.0000000001
40
0
40
0
40
0
40
1
40
1
40
1
10
10.876171439886093
20
-11.66666614636779
30
0
10
11.012048125267029
20
-11.549531098455192
30
0
10
11.311914324760437
20
-11.146585818380119
30
0
0
SPLINE
5
501
100
AcDbEntity
8
0
100
AcDbSpline
70
0
71
2
72
6
73
3
74
0
42
0.000000001
43
0.0000000001
44
0.0000000001
40
0
40
0
40
0
40
1
40
1
40
1
10
11.311914324760437
20
-11.146585818380119
30
0
10
11.611780375242233
20
-10.738954421132805
30
0
10
11.86479240655899
20
-10.55622446164489
30
0
0
SPLINE
5
502
100
AcDbEntity
8
0
100
AcDbSpline
70
0
71
2
72
6
73
3
74
0
42
0.000000001
43
0.0000000001
44
0.0000000001
40
0
40
0
40
0
40
1
40
1
40
1
10
11.86479240655899
20
-10.55622446164489
30
0
10
12.117804437875748
20
-10.368807192891838
30
0
10
12.39892914891243
20
-10.368807192891838
30
0
0
SPLINE
5
503
100
AcDbEntity
8
0
100
AcDbSpline
70
0
71
2
72
6
73
3
74
0
42
0.000000001
43
0.0000000001
44
0.0000000001
40
0
40
0
40
0
40
1
40
1
40
1
10
10.224899500608444
20
-17.649931784719229
30
0
10
10.299866050481796
20
-17.724898930639029
30
0
10
10.299866050481796
20
-17.837347861379385
30
0
0
SPLINE
5
504
100
AcDbEntity
8
0
100
AcDbSpline
70
0
71
2
72
6
73
3
74
0
42
0.000000001
43
0.0000000001
44
0.0000000001
40
0
40
0
40
0
40
1
40
1
40
1
10
10.299866050481796
20
-17.837347861379385
30
0
10
10.299866050481796
20
-17.945113059133291
30
0
10
10.220214277505875
20
-18.024765130132437
30
0
0
SPLINE
5
505
100
AcDbEntity
8
0
100
AcDbSpline
70
0
71
2
72
6
73
3
74
0
42
0.000000001
43
0.0000000001
44
0.0000000001
40
0
40
0
40
0
40
1
40
1
40
1
10
10.220214277505875
20
-18.024765130132437
30
0
10
10.140562206506729
20
-18.099731083959341
30
0
10
10.037483125925064
20
-18.099731083959341
30
0
0
SPLINE
5
506
100
AcDbEntity
8
0
100
AcDbSpline
70
0
71
2
72
6
73
3
74
0
42
0.000000001
43
0.0000000001
44
0.0000000001
40
0
40
0
40
0
40
1
40
1
40
1
10
10.037483125925064
20
-18.099731083959341
30
0
10
9.9297188222408295
20
-18.099731083959341
30
0
10
9.850066751241684
20
-18.024765130132437
30
0
0
SPLINE
5
507
100
AcDbEntity
8
0
100
AcDbSpline
70
0
71
2
72
6
73
3
74
0
42
0.000000001
43
0.0000000001
44
0.0000000001
40
0
40
0
40
0
40
1
40
1
40
1
10
9.850066751241684
20
-18.024765130132437
30
0
10
9.7704149782657623
20
-17.945113059133291
30
0
10
9.7704149782657623
20
-17.837347861379385
30
0
0
SPLINE
5
508
100
AcDbEntity
8
0
100
AcDbSpline
70
0
71
2
72
6
73
3
74
0
42
0.000000001
43
0.0000000001
44
0.0000000001
40
0
40
0
40
0
40
1
40
1
40
1
10
9.7704149782657623
20
-17.837347861379385
30
0
10
9.7704149782657623
20
-17.724898930639029
30
0
10
9.850066751241684
20
-17.649931784719229
30
0
0
SPLINE
5
509
100
AcDbEntity
8
0
100
AcDbSpline
70
0
71
2
72
6
73
3
74
0
42
0.000000001
43
0.0000000001
44
0.0000000001
40
0
40
0
40
0
40
1
40
1
40
1
10
9.850066751241684
20
-17.649931784719229
30
0
10
9.925033301115036
20
-17.570280905812979
30
0
10
10.037483125925064
20
-17.570280905812979
30
0
0
SPLINE
5
510
100
AcDbEntity
8
0
100
AcDbSpline
70
0
71
2
72
6
73
3
74
0
42
0.000000001
43
0.0000000001
44
0.0000000001
40
0
40
0
40
0
40
1
40
1
40
1
10
10.037483125925064
20
-17.570280905812979
30
0
10
10.145247727632523
20
-17.570280905812979
30
0
10
10.224899500608444
20
-17.649931784719229
30
0
0
LWPOLYLINE
5
511
100
AcDbEntity
8
0
100
AcDbPolyline
90
4
70
1
43
0.0
10
10.730923563241959
20
-17.673358794301748
10
13.218875676393509
20
-17.673358794301748
10
13.218875676393509
20
-17.996652003377676
10
10.730923563241959
20
-17.996652003377676
0
SPLINE
5
512
100
AcDbEntity
8
0
100
AcDbSpline
70
0
71
2
72
6
73
3
74
0
42
0.000000001
43
0.0000000001
44
0.0000000001
40
0
40
0
40
0
40
1
40
1
40
1
10
10.224899500608444
20
-13.854751463979484
30
0
10
10.299866050481796
20
-13.929718609899284
30
0
10
10.299866050481796
20
-14.042167540639641
30
0
0
SPLINE
5
513
100
AcDbEntity
8
0
100
AcDbSpline
70
0
71
2
72
6
73
3
74
0
42
0.000000001
43
0.0000000001
44
0.0000000001
40
0
40
0
40
0
40
1
40
1
40
1
10
10.299866050481796
20
-14.042167540639641
30
0
10
10.299866050481796
20
-14.149932738393547
30
0
10
10.220214277505875
20
-14.229584809392692
30
0
0
SPLINE
5
514
100
AcDbEntity
8
0
100
AcDbSpline
70
0
71
2
72
6
73
3
74
0
42
0.000000001
43
0.0000000001
44
0.0000000001
40
0
40
0
40
0
40
1
40
1
40
1
10
10.220214277505875
20
-14.229584809392692
30
0
10
10.140562206506729
20
-14.304551955312492
30
0
10
10.037483125925064
20
-14.304551955312492
30
0
0
SPLINE
5
515
100
AcDbEntity
8
0
100
AcDbSpline
70
0
71
2
72
6
73
3
74
0
42
0.000000001
43
0.0000000001
44
0.0000000001
40
0
40
0
40
0
40
1
40
1
40
1
10
10.037483125925064
20
-14.304551955312492
30
0
10
9.9297188222408295
20
-14.304551955312492
30
0
10
9.850066751241684
20
-14.229584809392692
30
0
0
SPLINE
5
516
100
AcDbEntity
8
0
100
AcDbSpline
70
0
71
2
72
6
73
3
74
0
42
0.000000001
43
0.0000000001
44
0.0000000001
40
0
40
0
40
0
40
1
40
1
40
1
10
9.850066751241684
20
-14.229584809392692
30
0
10
9.7704149782657623
20
-14.149932738393547
30
0
10
9.7704149782657623
20
-14.042167540639641
30
0
0
SPLINE
5
517
100
AcDbEntity
8
0
100
AcDbSpline
70
0
71
2
72
6
73
3
74
0
42
0.000000001
43
0.0000000001
44
0.0000000001
40
0
40
0
40
0
40
1
40
1
40
1
10
9.7704149782657623
20
-14.042167540639641
30
0
10
9.7704149782657623
20
-13.929718609899284
30
0
10
9.850066751241684
20
-13.854751463979484
30
0
0
SPLINE
5
518
100
AcDbEntity
8
0
100
AcDbSpline
70
0
71
2
72
6
73
3
74
0
42
0.000000001
43
0.0000000001
44
0.0000000001
40
0
40
0
40
0
40
1
40
1
40
1
10
9.850066751241684
20
-13.854751463979484
30
0
10
9.925033301115036
20
-13.775100585073234
30
0
10
10.037483125925064
20
-13.775100585073234
30
0
0
SPLINE
5
519
100
AcDbEntity
8
0
100
AcDbSpline
70
0
71
2
72
6
73
3
74
0
42
0.000000001
43
0.0000000001
44
0.0000000001
40
0
40
0
40
0
40
1
40
1
40
1
10
10.037483125925064
20
-13.775100585073234
30
0
10
10.145247727632523
20
-13.775100585073234
30
0
10
10.224899500608444
20
-13.854751463979484
30
0
0
SPLINE
5
520
100
AcDbEntity
8
0
100
AcDbSpline
70
0
71
2
72
6
73
3
74
0
42
0.000000001
43
0.0000000001
44
0.0000000001
40
0
40
0
40
0
40
1
40
1
40
1
10
11.058902144432068
20
-3.1860755644738692
30
0
10
10.665328055620193
20
-2.7925037108361739
30
0
10
10.665328055620193
20
-2.1787141524255293
30
0
0
SPLINE
5
521
100
AcDbEntity
8
0
100
AcDbSpline
70
0
71
2
72
6
73
3
74
0
42
0.000000001
43
0.0000000001
44
0.0000000001
40
0
40
0
40
0
40
1
40
1
40
1
10
10.665328055620193
20
-2.1787141524255293
30
0
10
10.665328055620193
20
-1.817936774343254
30
0
10
10.819946378469467
20
-1.5133856497705001
30
0
0
SPLINE
5
522
100
AcDbEntity
8
0
100
AcDbSpline
70
0
71
2
72
6
73
3
74
0
42
0.000000001
43
0.0000000001
44
0.0000000001
40
0
40
0
40
0
40
1
40
1
40
1
10
10.819946378469467
20
-1.5133856497705001
30
0
10
10.974564999341965
20
-1.2041472159326094
30
0
10
11.246318519115448
20
-1.0401581488549727
30
0
0
LINE
5
523
100
AcDbEntity
8
0
100
AcDbLine
10
11.246318519115448
20
-1.0401581488549729
30
0
11
11.405622363090515
21
-1.2931703291833418
31
0
0
SPLINE
5
524
100
AcDbEntity
8
0
100
AcDbSpline
70
0
71
2
72
6
73
3
74
0
42
0.000000001
43
0.0000000001
44
0.0000000001
40
0
40
0
40
0
40
1
40
1
40
1
10
11.405622363090515
20
-1.2931703291833418
30
0
10
10.969879478216171
20
-1.6211508475244063
30
0
10
10.969879478216171
20
-2.1927689276635665
30
0
0
SPLINE
5
525
100
AcDbEntity
8
0
100
AcDbSpline
70
0
71
2
72
6
73
3
74
0
42
0.000000001
43
0.0000000001
44
0.0000000001
40
0
40
0
40
0
40
1
40
1
40
1
10
10.969879478216171
20
-2.1927689276635665
30
0
10
10.969879478216171
20
-2.6425694189965743
30
0
10
11.260374784469604
20
-2.9471205435693282
30
0
0
SPLINE
5
526
100
AcDbEntity
8
0
100
AcDbSpline
70
0
71
2
72
6
73
3
74
0
42
0.000000001
43
0.0000000001
44
0.0000000001
40
0
40
0
40
0
40
1
40
1
40
1
10
11.260374784469604
20
-2.9471205435693282
30
0
10
11.546184718608856
20
-3.2516716681420821
30
0
10
11.972556859254837
20
-3.2516716681420821
30
0
0
SPLINE
5
527
100
AcDbEntity
8
0
100
AcDbSpline
70
0
71
2
72
6
73
3
74
0
42
0.000000001
43
0.0000000001
44
0.0000000001
40
0
40
0
40
0
40
1
40
1
40
1
10
11.972556859254837
20
-3.2516716681420821
30
0
10
12.39892914891243
20
-3.2516716681420821
30
0
10
12.703480571508408
20
-2.9518054686486739
30
0
0
SPLINE
5
528
100
AcDbEntity
8
0
100
AcDbSpline
70
0
71
2
72
6
73
3
74
0
42
0.000000001
43
0.0000000001
44
0.0000000001
40
0
40
0
40
0
40
1
40
1
40
1
10
12.703480571508408
20
-2.9518054686486739
30
0
10
13.008032292127609
20
-2.6519392691552657
30
0
10
13.008032292127609
20
-2.1927689276635665
30
0
0
SPLINE
5
529
100
AcDbEntity
8
0
100
AcDbSpline
70
0
71
2
72
6
73
3
74
0
42
0.000000001
43
0.0000000001
44
0.0000000001
40
0
40
0
40
0
40
1
40
1
40
1
10
13.008032292127609
20
-2.1927689276635665
30
0
10
13.008032292127609
20
-1.6445778571069258
30
0
10
12.572289258241653
20
-1.2931703291833418
30
0
0
LINE
5
530
100
AcDbEntity
8
0
100
AcDbLine
10
12.572289258241653
20
-1.2931703291833418
30
0
11
12.740963846445084
21
-1.0401581488549727
31
0
0
SPLINE
5
531
100
AcDbEntity
8
0
100
AcDbSpline
70
0
71
2
72
6
73
3
74
0
42
0.000000001
43
0.0000000001
44
0.0000000001
40
0
40
0
40
0
40
1
40
1
40
1
10
12.740963846445084
20
-1.0401581488549727
30
0
10
13.012717515230179
20
-1.227574225515129
30
0
10
13.157965093851089
20
-1.546182509511711
30
0
0
SPLINE
5
532
100
AcDbEntity
8
0
100
AcDbSpline
70
0
71
2
72
6
73
3
74
0
42
0.000000001
43
0.0000000001
44
0.0000000001
40
0
40
0
40
0
40
1
40
1
40
1
10
13.157965093851089
20
-1.546182509511711
30
0
10
13.303212970495224
20
-1.8601058684289473
30
0
10
13.303212970495224
20
-2.2255681715905684
30
0
0
SPLINE
5
533
100
AcDbEntity
8
0
100
AcDbSpline
70
0
71
2
72
6
73
3
74
0
42
0.000000001
43
0.0000000001
44
0.0000000001
40
0
40
0
40
0
40
1
40
1
40
1
10
13.303212970495224
20
-2.2255681715905684
30
0
10
13.303212970495224
20
-2.8018735609948653
30
0
10
12.92369470000267
20
-3.1907628737390059
30
0
0
SPLINE
5
534
100
AcDbEntity
8
0
100
AcDbSpline
70
0
71
2
72
6
73
3
74
0
42
0.000000001
43
0.0000000001
44
0.0000000001
40
0
40
0
40
0
40
1
40
1
40
1
10
12.92369470000267
20
-3.1907628737390059
30
0
10
12.54417672753334
20
-3.5749648772180098
30
0
10
11.995983868837357
20
-3.5749648772180098
30
0
0
SPLINE
5
535
100
AcDbEntity
8
0
100
AcDbSpline
70
0
71
2
72
6
73
3
74
0
42
0.000000001
43
0.0000000001
44
0.0000000001
40
0
40
0
40
0
40
1
40
1
40
1
10
11.995983868837357
20
-3.5749648772180098
30
0
10
11.447791159152985
20
-3.5749648772180098
30
0
10
11.058902144432068
20
-3.1860755644738692
30
0
0
LINE
5
536
100
AcDbEntity
8
0
100
AcDbLine
10
12.164658457040787
20
5.9457875527441484
30
0
11
13.218875676393509
21
5.9457875527441484
31
0
0
LINE
5
537
100
AcDbEntity
8
0
100
AcDbLine
10
13.218875676393509
20
5.9457875527441484
30
0
11
13.218875676393509
21
5.6271792687475664
31
0
0
LINE
5
538
100
AcDbEntity
8
0
100
AcDbLine
10
13.218875676393509
20
5.6271792687475664
30
0
11
10.730923563241959
21
5.6271792687475664
31
0
0
LINE
5
539
100
AcDbEntity
8
0
100
AcDbLine
10
10.730923563241959
20
5.6271792687475664
30
0
11
10.730923563241959
21
5.9457875527441484
31
0
0
LINE
5
540
100
AcDbEntity
8
0
100
AcDbLine
10
10.730923563241959
20
5.9457875527441484
30
0
11
11.161981225013733
21
5.9457875527441484
31
0
0
SPLINE
5
541
100
AcDbEntity
8
0
100
AcDbSpline
70
0
71
2
72
6
73
3
74
0
42
0.000000001
43
0.0000000001
44
0.0000000001
40
0
40
0
40
0
40
1
40
1
40
1
10
11.161981225013733
20
5.9457875527441484
30
0
10
10.665328055620193
20
6.2784506119787675
30
0
10
10.665328055620193
20
6.7985297478735429
30
0
0
SPLINE
5
542
100
AcDbEntity
8
0
100
AcDbSpline
70
0
71
2
72
6
73
3
74
0
42
0.000000001
43
0.0000000001
44
0.0000000001
40
0
40
0
40
0
40
1
40
1
40
1
10
10.665328055620193
20
6.7985297478735429
30
0
10
10.665328055620193
20
7.0749689377844316
30
0
10
10.824631899595261
20
7.2904993332922441
30
0
0
SPLINE
5
543
100
AcDbEntity
8
0
100
AcDbSpline
70
0
71
2
72
6
73
3
74
0
42
0.000000001
43
0.0000000001
44
0.0000000001
40
0
40
0
40
0
40
1
40
1
40
1
10
10.824631899595261
20
7.2904993332922441
30
0
10
10.979250222444534
20
7.5107122696936113
30
0
10
11.265060305595398
20
7.5856782235205156
30
0
0
SPLINE
5
544
100
AcDbEntity
8
0
100
AcDbSpline
70
0
71
2
72
6
73
3
74
0
42
0.000000001
43
0.0000000001
44
0.0000000001
40
0
40
0
40
0
40
1
40
1
40
1
10
11.265060305595398
20
7.5856782235205156
30
0
10
10.974564999341965
20
7.7402974404394609
30
0
10
10.819946378469467
20
7.9792548455297929
30
0
0
SPLINE
5
545
100
AcDbEntity
8
0
100
AcDbSpline
70
0
71
2
72
6
73
3
74
0
42
0.000000001
43
0.0000000001
44
0.0000000001
40
0
40
0
40
0
40
1
40
1
40
1
10
10.819946378469467
20
7.9792548455297929
30
0
10
10.665328055620193
20
8.2182098664343339
30
0
10
10.665328055620193
20
8.5274459160864335
30
0
0
SPLINE
5
546
100
AcDbEntity
8
0
100
AcDbSpline
70
0
71
2
72
6
73
3
74
0
42
0.000000001
43
0.0000000001
44
0.0000000001
40
0
40
0
40
0
40
1
40
1
40
1
10
10.665328055620193
20
8.5274459160864335
30
0
10
10.665328055620193
20
8.8413692750036699
30
0
10
10.908969193696976
20
9.094381455332039
30
0
0
SPLINE
5
547
100
AcDbEntity
8
0
100
AcDbSpline
70
0
71
2
72
6
73
3
74
0
42
0.000000001
43
0.0000000001
44
0.0000000001
40
0
40
0
40
0
40
1
40
1
40
1
10
10.908969193696976
20
9.094381455332039
30
0
10
11.147924959659576
20
9.3473936356604082
30
0
10
11.860107183456421
20
9.3473936356604082
30
0
0
LINE
5
548
100
AcDbEntity
8
0
100
AcDbLine
10
11.860107183456421
20
9.3473936356604082
30
0
11
13.218875676393509
21
9.3473936356604082
31
0
0
LINE
5
549
100
AcDbEntity
8
0
100
AcDbLine
10
13.218875676393509
20
9.3473936356604082
30
0
11
13.218875676393509
21
9.0194131173193437
31
0
0
LINE
5
550
100
AcDbEntity
8
0
100
AcDbLine
10
13.218875676393509
20
9.0194131173193437
30
0
11
11.860107183456421
21
9.0194131173193437
31
0
0
SPLINE
5
551
100
AcDbEntity
8
0
100
AcDbSpline
70
0
71
2
72
6
73
3
74
0
42
0.000000001
43
0.0000000001
44
0.0000000001
40
0
40
0
40
0
40
1
40
1
40
1
10
11.860107183456421
20
9.0194131173193437
30
0
10
11.518072336912155
20
9.0194131173193437
30
0
10
11.358768343925476
20
8.9772464074194414
30
0
0
SPLINE
5
552
100
AcDbEntity
8
0
100
AcDbSpline
70
0
71
2
72
6
73
3
74
0
42
0.000000001
43
0.0000000001
44
0.0000000001
40
0
40
0
40
0
40
1
40
1
40
1
10
11.358768343925476
20
8.9772464074194414
30
0
10
11.194779127836227
20
8.935077313333748
30
0
10
11.087014675140381
20
8.7945152558386308
30
0
0
SPLINE
5
553
100
AcDbEntity
8
0
100
AcDbSpline
70
0
71
2
72
6
73
3
74
0
42
0.000000001
43
0.0000000001
44
0.0000000001
40
0
40
0
40
0
40
1
40
1
40
1
10
11.087014675140381
20
8.7945152558386308
30
0
10
10.974564999341965
20
8.6539531983435136
30
0
10
10.974564999341965
20
8.4196831025183183
30
0
0
SPLINE
5
554
100
AcDbEntity
8
0
100
AcDbSpline
70
0
71
2
72
6
73
3
74
0
42
0.000000001
43
0.0000000001
44
0.0000000001
40
0
40
0
40
0
40
1
40
1
40
1
10
10.974564999341965
20
8.4196831025183183
30
0
10
10.974564999341965
20
8.1900979317724687
30
0
10
11.12918347120285
20
7.9886246956884843
30
0
0
SPLINE
5
555
100
AcDbEntity
8
0
100
AcDbSpline
70
0
71
2
72
6
73
3
74
0
42
0.000000001
43
0.0000000001
44
0.0000000001
40
0
40
0
40
0
40
1
40
1
40
1
10
11.12918347120285
20
7.9886246956884843
30
0
10
11.283801943063736
20
7.7871514596044999
30
0
10
11.522757709026337
20
7.7121855057775957
30
0
0
SPLINE
5
556
100
AcDbEntity
8
0
100
AcDbSpline
70
0
71
2
72
6
73
3
74
0
42
0.000000001
43
0.0000000001
44
0.0000000001
40
0
40
0
40
0
40
1
40
1
40
1
10
11.522757709026337
20
7.7121855057775957
30
0
10
11.761713474988937
20
7.6372195519506914
30
0
10
12.244310528039932
20
7.6372195519506914
30
0
0
LINE
5
557
100
AcDbEntity
8
0
100
AcDbLine
10
12.244310528039932
20
7.6372195519506914
30
0
11
13.218875676393509
21
7.6372195519506914
31
0
0
LINE
5
558
100
AcDbEntity
8
0
100
AcDbLine
10
13.218875676393509
20
7.6372195519506914
30
0
11
13.218875676393509
21
7.323296193033455
31
0
0
LINE
5
559
100
AcDbEntity
8
0
100
AcDbLine
10
13.218875676393509
20
7.323296193033455
30
0
11
11.944444477558136
21
7.323296193033455
31
0
0
SPLINE
5
560
100
AcDbEntity
8
0
100
AcDbSpline
70
0
71
2
72
6
73
3
74
0
42
0.000000001
43
0.0000000001
44
0.0000000001
40
0
40
0
40
0
40
1
40
1
40
1
10
11.944444477558136
20
7.323296193033455
30
0
10
11.546184718608856
20
7.323296193033455
30
0
10
11.377509981393814
20
7.2811270989477617
30
0
0
SPLINE
5
561
100
AcDbEntity
8
0
100
AcDbSpline
70
0
71
2
72
6
73
3
74
0
42
0.000000001
43
0.0000000001
44
0.0000000001
40
0
40
0
40
0
40
1
40
1
40
1
10
11.377509981393814
20
7.2811270989477617
30
0
10
11.20414987206459
20
7.2389603890478593
30
0
10
11.091700196266174
20
7.0937110222876054
30
0
0
SPLINE
5
562
100
AcDbEntity
8
0
100
AcDbSpline
70
0
71
2
72
6
73
3
74
0
42
0.000000001
43
0.0000000001
44
0.0000000001
40
0
40
0
40
0
40
1
40
1
40
1
10
11.091700196266174
20
7.0937110222876054
30
0
10
10.974564999341965
20
6.9484640397131425
30
0
10
10.974564999341965
20
6.7376209534704667
30
0
0
SPLINE
5
563
100
AcDbEntity
8
0
100
AcDbSpline
70
0
71
2
72
6
73
3
74
0
42
0.000000001
43
0.0000000001
44
0.0000000001
40
0
40
0
40
0
40
1
40
1
40
1
10
10.974564999341965
20
6.7376209534704667
30
0
10
10.974564999341965
20
6.526777867227791
30
0
10
11.101070940494537
20
6.3393617905676347
30
0
0
SPLINE
5
564
100
AcDbEntity
8
0
100
AcDbSpline
70
0
71
2
72
6
73
3
74
0
42
0.000000001
43
0.0000000001
44
0.0000000001
40
0
40
0
40
0
40
1
40
1
40
1
10
11.101070940494537
20
6.3393617905676347
30
0
10
11.222891509532928
20
6.1566306389868242
30
0
10
11.438420414924622
20
6.0488654412329179
30
0
0
SPLINE
5
565
100
AcDbEntity
8
0
100
AcDbSpline
70
0
71
2
72
6
73
3
74
0
42
0.000000001
43
0.0000000001
44
0.0000000001
40
0
40
0
40
0
40
1
40
1
40
1
10
11.438420414924622
20
6.0488654412329179
30
0
10
11.653949171304703
20
5.9457875527441484
30
0
10
12.164658457040787
20
5.9457875527441484
30
0
0
LINE
5
566
100
AcDbEntity
8
0
100
AcDbLine
10
12.37550213932991
20
17.907631520181894
30
0
11
13.218875676393509
21
17.907631520181894
31
0
0
LINE
5
567
100
AcDbEntity
8
0
100
AcDbLine
10
13.218875676393509
20
17.907631520181894
30
0
11
13.218875676393509
21
17.579653386026621
31
0
0
LINE
5
568
100
AcDbEntity
8
0
100
AcDbLine
10
13.218875676393509
20
17.579653386026621
30
0
11
10.730923563241959
21
17.579653386026621
31
0
0
LINE
5
569
100
AcDbEntity
8
0
100
AcDbLine
10
10.730923563241959
20
17.579653386026621
30
0
11
10.730923563241959
21
17.907631520181894
31
0
0
LINE
5
570
100
AcDbEntity
8
0
100
AcDbLine
10
10.730923563241959
20
17.907631520181894
30
0
11
11.091700196266174
21
17.907631520181894
31
0
0
SPLINE
5
571
100
AcDbEntity
8
0
100
AcDbSpline
70
0
71
2
72
6
73
3
74
0
42
0.000000001
43
0.0000000001
44
0.0000000001
40
0
40
0
40
0
40
1
40
1
40
1
10
11.091700196266174
20
17.907631520181894
30
0
10
10.8714859187603
20
18.038818959146738
30
0
10
10.768406838178635
20
18.160641316324472
30
0
0
SPLINE
5
572
100
AcDbEntity
8
0
100
AcDbSpline
70
0
71
2
72
6
73
3
74
0
42
0.000000001
43
0.0000000001
44
0.0000000001
40
0
40
0
40
0
40
1
40
1
40
1
10
10.768406838178635
20
18.160641316324472
30
0
10
10.665328055620193
20
18.287146214395761
30
0
10
10.665328055620193
20
18.437082890421152
30
0
0
SPLINE
5
573
100
AcDbEntity
8
0
100
AcDbSpline
70
0
71
2
72
6
73
3
74
0
42
0.000000001
43
0.0000000001
44
0.0000000001
40
0
40
0
40
0
40
1
40
1
40
1
10
10.665328055620193
20
18.437082890421152
30
0
10
10.665328055620193
20
18.591702107340097
30
0
10
10.749665349721909
20
18.746321324259043
30
0
0
LINE
5
574
100
AcDbEntity
8
0
100
AcDbLine
10
10.749665349721909
20
18.746321324259043
30
0
11
11.021419018507004
21
18.577644947916269
31
0
0
SPLINE
5
575
100
AcDbEntity
8
0
100
AcDbSpline
70
0
71
2
72
6
73
3
74
0
42
0.000000001
43
0.0000000001
44
0.0000000001
40
0
40
0
40
0
40
1
40
1
40
1
10
11.021419018507004
20
18.577644947916269
30
0
10
10.979250222444534
20
18.507359150797129
30
0
10
10.979250222444534
20
18.432400349527597
30
0
0
SPLINE
5
576
100
AcDbEntity
8
0
100
AcDbSpline
70
0
71
2
72
6
73
3
74
0
42
0.000000001
43
0.0000000001
44
0.0000000001
40
0
40
0
40
0
40
1
40
1
40
1
10
10.979250222444534
20
18.432400349527597
30
0
10
10.979250222444534
20
18.287146214395761
30
0
10
11.12918347120285
20
18.155958775430918
30
0
0
SPLINE
5
577
100
AcDbEntity
8
0
100
AcDbSpline
70
0
71
2
72
6
73
3
74
0
42
0.000000001
43
0.0000000001
44
0.0000000001
40
0
40
0
40
0
40
1
40
1
40
1
10
11.12918347120285
20
18.155958775430918
30
0
10
11.279116421937943
20
18.029453877359629
30
0
10
11.518072336912155
20
17.968542698770761
30
0
0
SPLINE
5
578
100
AcDbEntity
8
0
100
AcDbSpline
70
0
71
2
72
6
73
3
74
0
42
0.000000001
43
0.0000000001
44
0.0000000001
40
0
40
0
40
0
40
1
40
1
40
1
10
11.518072336912155
20
17.968542698770761
30
0
10
11.752342730760574
20
17.907631520181894
30
0
10
12.37550213932991
20
17.907631520181894
30
0
0
SPLINE
5
579
100
AcDbEntity
8
0
100
AcDbSpline
70
0
71
2
72
6
73
3
74
0
42
0.000000001
43
0.0000000001
44
0.0000000001
40
0
40
0
40
0
40
1
40
1
40
1
10
18.813870250488151
20
21.319222450256348
30
0
10
18.741272389198173
20
21.244487762451172
30
0
10
18.634510933662284
20
21.244487762451172
30
0
0
SPLINE
5
580
100
AcDbEntity
8
0
100
AcDbSpline
70
0
71
2
72
6
73
3
74
0
42
0.000000001
43
0.0000000001
44
0.0000000001
40
0
40
0
40
0
40
1
40
1
40
1
10
18.634510933662284
20
21.244487762451172
30
0
10
18.525614141727317
20
21.244487762451172
30
0
10
18.450880944038261
20
21.319222450256348
30
0
0
SPLINE
5
581
100
AcDbEntity
8
0
100
AcDbSpline
70
0
71
2
72
6
73
3
74
0
42
0.000000001
43
0.0000000001
44
0.0000000001
40
0
40
0
40
0
40
1
40
1
40
1
10
18.450880944038261
20
21.319222450256348
30
0
10
18.376148044372428
20
21.393952369689941
30
0
10
18.376148044372428
20
21.502852439880371
30
0
0
SPLINE
5
582
100
AcDbEntity
8
0
100
AcDbSpline
70
0
71
2
72
6
73
3
74
0
42
0.000000001
43
0.0000000001
44
0.0000000001
40
0
40
0
40
0
40
1
40
1
40
1
10
18.376148044372428
20
21.502852439880371
30
0
10
18.376148044372428
20
21.611747741699219
30
0
10
18.450880944038261
20
21.688613891601562
30
0
0
SPLINE
5
583
100
AcDbEntity
8
0
100
AcDbSpline
70
0
71
2
72
6
73
3
74
0
42
0.000000001
43
0.0000000001
44
0.0000000001
40
0
40
0
40
0
40
1
40
1
40
1
10
18.450880944038261
20
21.688613891601562
30
0
10
18.525614141727317
20
21.765484809875488
30
0
10
18.634510933662284
20
21.765484809875488
30
0
0
SPLINE
5
584
100
AcDbEntity
8
0
100
AcDbSpline
70
0
71
2
72
6
73
3
74
0
42
0.000000001
43
0.0000000001
44
0.0000000001
40
0
40
0
40
0
40
1
40
1
40
1
10
18.634510933662284
20
21.765484809875488
30
0
10
18.741272389198173
20
21.765484809875488
30
0
10
18.813870250488151
20
21.688613891601562
30
0
0
SPLINE
5
585
100
AcDbEntity
8
0
100
AcDbSpline
70
0
71
2
72
6
73
3
74
0
42
0.000000001
43
0.0000000001
44
0.0000000001
40
0
40
0
40
0
40
1
40
1
40
1
10
18.813870250488151
20
21.688613891601562
30
0
10
18.886468111778129
20
21.613883972167969
30
0
10
18.886468111778129
20
21.502852439880371
30
0
0
SPLINE
5
586
100
AcDbEntity
8
0
100
AcDbSpline
70
0
71
2
72
6
73
3
74
0
42
0.000000001
43
0.0000000001
44
0.0000000001
40
0
40
0
40
0
40
1
40
1
40
1
10
18.886468111778129
20
21.502852439880371
30
0
10
18.886468111778129
20
21.393952369689941
30
0
10
18.813870250488151
20
21.319222450256348
30
0
0
LWPOLYLINE
5
587
100
AcDbEntity
8
0
100
AcDbPolyline
90
4
70
1
43
0.0
10
16.887891589904655
20
-11.91993236541748
10
18.852304517532218
20
-11.91993236541748
10
18.852304517532218
20
-12.308543920516968
10
16.887891589904655
20
-12.308543920516968
0
SPLINE
5
588
100
AcDbEntity
8
0
100
AcDbSpline
70
0
71
2
72
6
73
3
74
0
42
0.000000001
43
0.0000000001
44
0.0000000001
40
0
40
0
40
0
40
1
40
1
40
1
10
18.886468111778129
20
-5.7427072525024414
30
0
10
18.886468111778129
20
-5.9306073188781738
30
0
10
18.803194164539207
20
-6.1590766906738281
30
0
0
LINE
5
589
100
AcDbEntity
8
0
100
AcDbLine
10
18.803194164539207
20
-6.1590766906738281
30
0
11
19.853728114868034
21
-6.1590766906738281
31
0
0
LINE
5
590
100
AcDbEntity
8
0
100
AcDbLine
10
19.853728114868034
20
-6.1590766906738281
30
0
11
19.853728114868034
21
-6.5562295913696289
31
0
0
LINE
5
591
100
AcDbEntity
8
0
100
AcDbLine
10
19.853728114868034
20
-6.5562295913696289
30
0
11
16.887891589904655
21
-6.5562295913696289
31
0
0
LINE
5
592
100
AcDbEntity
8
0
100
AcDbLine
10
16.887891589904655
20
-6.5562295913696289
30
0
11
16.887891589904655
21
-5.875091552734375
31
0
0
SPLINE
5
593
100
AcDbEntity
8
0
100
AcDbSpline
70
0
71
2
72
6
73
3
74
0
42
0.000000001
43
0.0000000001
44
0.0000000001
40
0
40
0
40
0
40
1
40
1
40
1
10
16.887891589904655
20
-5.875091552734375
30
0
10
16.887891589904655
20
-5.3519606590270996
30
0
10
17.148389815593589
20
-5.0615692138671875
30
0
0
SPLINE
5
594
100
AcDbEntity
8
0
100
AcDbSpline
70
0
71
2
72
6
73
3
74
0
42
0.000000001
43
0.0000000001
44
0.0000000001
40
0
40
0
40
0
40
1
40
1
40
1
10
17.148389815593589
20
-5.0615692138671875
30
0
10
17.408888041282523
20
-4.7690415382385254
30
0
10
17.876503764892448
20
-4.7690415382385254
30
0
0
SPLINE
5
595
100
AcDbEntity
8
0
100
AcDbSpline
70
0
71
2
72
6
73
3
74
0
42
0.000000001
43
0.0000000001
44
0.0000000001
40
0
40
0
40
0
40
1
40
1
40
1
10
17.876503764892448
20
-4.7690415382385254
30
0
10
18.318496643806327
20
-4.7690415382385254
30
0
10
18.602482377792228
20
-5.0444865226745605
30
0
0
SPLINE
5
596
100
AcDbEntity
8
0
100
AcDbSpline
70
0
71
2
72
6
73
3
74
0
42
0.000000001
43
0.0000000001
44
0.0000000001
40
0
40
0
40
0
40
1
40
1
40
1
10
18.602482377792228
20
-5.0444865226745605
30
0
10
18.886468111778129
20
-5.3177952766418457
30
0
10
18.886468111778129
20
-5.7427072525024414
30
0
0
SPLINE
5
597
100
AcDbEntity
8
0
100
AcDbSpline
70
0
71
2
72
6
73
3
74
0
42
0.000000001
43
0.0000000001
44
0.0000000001
40
0
40
0
40
0
40
1
40
1
40
1
10
17.867963015342582
20
17.258005142211914
30
0
10
18.169030546451438
20
17.258005142211914
30
0
10
18.346254526878226
20
17.43950366973877
30
0
0
SPLINE
5
598
100
AcDbEntity
8
0
100
AcDbSpline
70
0
71
2
72
6
73
3
74
0
42
0.000000001
43
0.0000000001
44
0.0000000001
40
0
40
0
40
0
40
1
40
1
40
1
10
18.346254526878226
20
17.43950366973877
30
0
10
18.523478805328239
20
17.623133659362793
30
0
10
18.523478805328239
20
17.9327392578125
30
0
0
SPLINE
5
599
100
AcDbEntity
8
0
100
AcDbSpline
70
0
71
2
72
6
73
3
74
0
42
0.000000001
43
0.0000000001
44
0.0000000001
40
0
40
0
40
0
40
1
40
1
40
1
10
18.523478805328239
20
17.9327392578125
30
0
10
18.523478805328239
20
18.156938552856445
30
0
10
18.393229841495383
20
18.447332382202148
30
0
0
LINE
5
600
100
AcDbEntity
8
0
100
AcDbLine
10
18.393229841495383
20
18.447332382202148
30
0
11
18.777571319843162
21
18.447332382202148
31
0
0
SPLINE
5
601
100
AcDbEntity
8
0
100
AcDbSpline
70
0
71
2
72
6
73
3
74
0
42
0.000000001
43
0.0000000001
44
0.0000000001
40
0
40
0
40
0
40
1
40
1
40
1
10
18.777571319843162
20
18.447332382202148
30
0
10
18.886468111778129
20
18.154802322387695
30
0
10
18.886468111778129
20
17.875089645385742
30
0
0
SPLINE
5
602
100
AcDbEntity
8
0
100
AcDbSpline
70
0
71
2
72
6
73
3
74
0
42
0.000000001
43
0.0000000001
44
0.0000000001
40
0
40
0
40
0
40
1
40
1
40
1
10
18.886468111778129
20
17.875089645385742
30
0
10
18.886468111778129
20
17.413878440856934
30
0
10
18.613158463741172
20
17.138433456420898
30
0
0
SPLINE
5
603
100
AcDbEntity
8
0
100
AcDbSpline
70
0
71
2
72
6
73
3
74
0
42
0.000000001
43
0.0000000001
44
0.0000000001
40
0
40
0
40
0
40
1
40
1
40
1
10
18.613158463741172
20
17.138433456420898
30
0
10
18.339848815704215
20
16.865124702453613
30
0
10
17.88077413966738
20
16.865124702453613
30
0
0
SPLINE
5
604
100
AcDbEntity
8
0
100
AcDbSpline
70
0
71
2
72
6
73
3
74
0
42
0.000000001
43
0.0000000001
44
0.0000000001
40
0
40
0
40
0
40
1
40
1
40
1
10
17.88077413966738
20
16.865124702453613
30
0
10
17.417428790832389
20
16.865124702453613
30
0
10
17.133443056846488
20
17.13202953338623
30
0
0
SPLINE
5
605
100
AcDbEntity
8
0
100
AcDbSpline
70
0
71
2
72
6
73
3
74
0
42
0.000000001
43
0.0000000001
44
0.0000000001
40
0
40
0
40
0
40
1
40
1
40
1
10
17.133443056846488
20
17.13202953338623
30
0
10
16.849457322860587
20
17.398934364318848
30
0
10
16.849457322860587
20
17.83452033996582
30
0
0
SPLINE
5
606
100
AcDbEntity
8
0
100
AcDbSpline
70
0
71
2
72
6
73
3
74
0
42
0.000000001
43
0.0000000001
44
0.0000000001
40
0
40
0
40
0
40
1
40
1
40
1
10
16.849457322860587
20
17.83452033996582
30
0
10
16.849457322860587
20
17.98612117767334
30
0
10
16.879350542331565
20
18.105692863464355
30
0
0
SPLINE
5
607
100
AcDbEntity
8
0
100
AcDbSpline
70
0
71
2
72
6
73
3
74
0
42
0.000000001
43
0.0000000001
44
0.0000000001
40
0
40
0
40
0
40
1
40
1
40
1
10
16.879350542331565
20
18.105692863464355
30
0
10
16.907108574415076
20
18.227400779724121
30
0
10
16.986112146879066
20
18.404626846313477
30
0
0
LINE
5
608
100
AcDbEntity
8
0
100
AcDbLine
10
16.986112146879066
20
18.404626846313477
30
0
11
17.400346993709434
21
18.404626846313477
31
0
0
SPLINE
5
609
100
AcDbEntity
8
0
100
AcDbSpline
70
0
71
2
72
6
73
3
74
0
42
0.000000001
43
0.0000000001
44
0.0000000001
40
0
40
0
40
0
40
1
40
1
40
1
10
17.400346993709434
20
18.404626846313477
30
0
10
17.212446629310477
20
18.109965324401855
30
0
10
17.212446629310477
20
17.858009338378906
30
0
0
SPLINE
5
610
100
AcDbEntity
8
0
100
AcDbSpline
70
0
71
2
72
6
73
3
74
0
42
0.000000001
43
0.0000000001
44
0.0000000001
40
0
40
0
40
0
40
1
40
1
40
1
10
17.212446629310477
20
17.858009338378906
30
0
10
17.212446629310477
20
17.595372200012207
30
0
10
17.398211657310355
20
17.426691055297852
30
0
0
SPLINE
5
611
100
AcDbEntity
8
0
100
AcDbSpline
70
0
71
2
72
6
73
3
74
0
42
0.000000001
43
0.0000000001
44
0.0000000001
40
0
40
0
40
0
40
1
40
1
40
1
10
17.398211657310355
20
17.426691055297852
30
0
10
17.581841646934379
20
17.258005142211914
30
0
10
17.867963015342582
20
17.258005142211914
30
0
0
SPLINE
5
612
100
AcDbEntity
8
0
100
AcDbSpline
70
0
71
2
72
6
73
3
74
0
42
0.000000001
43
0.0000000001
44
0.0000000001
40
0
40
0
40
0
40
1
40
1
40
1
10
16.849457471872199
20
9.45587158203125
30
0
10
16.849457471872199
20
9.8466181755065918
30
0
10
17.122767119909156
20
10.079360008239746
30
0
0
SPLINE
5
613
100
AcDbEntity
8
0
100
AcDbSpline
70
0
71
2
72
6
73
3
74
0
42
0.000000001
43
0.0000000001
44
0.0000000001
40
0
40
0
40
0
40
1
40
1
40
1
10
17.122767119909156
20
10.079360008239746
30
0
10
17.396076618934501
20
10.312099456787109
30
0
10
17.855151592994559
20
10.312099456787109
30
0
0
LINE
5
614
100
AcDbEntity
8
0
100
AcDbLine
10
17.855151592994559
20
10.312099456787109
30
0
11
17.904261647964347
21
10.312099456787109
31
0
0
LINE
5
615
100
AcDbEntity
8
0
100
AcDbLine
10
17.904261647964347
20
10.312099456787109
30
0
11
17.904261647964347
21
8.9306044578552246
31
0
0
SPLINE
5
616
100
AcDbEntity
8
0
100
AcDbSpline
70
0
71
2
72
6
73
3
74
0
42
0.000000001
43
0.0000000001
44
0.0000000001
40
0
40
0
40
0
40
1
40
1
40
1
10
17.904261647964347
20
8.9306044578552246
30
0
10
18.186112343574393
20
8.9455509185791016
30
0
10
18.352660238052238
20
9.118504524230957
30
0
0
SPLINE
5
617
100
AcDbEntity
8
0
100
AcDbSpline
70
0
71
2
72
6
73
3
74
0
42
0.000000001
43
0.0000000001
44
0.0000000001
40
0
40
0
40
0
40
1
40
1
40
1
10
18.352660238052238
20
9.118504524230957
30
0
10
18.519208430553306
20
9.2935943603515625
30
0
10
18.519208430553306
20
9.5690393447875977
30
0
0
SPLINE
5
618
100
AcDbEntity
8
0
100
AcDbSpline
70
0
71
2
72
6
73
3
74
0
42
0.000000001
43
0.0000000001
44
0.0000000001
40
0
40
0
40
0
40
1
40
1
40
1
10
18.519208430553306
20
9.5690393447875977
30
0
10
18.519208430553306
20
9.9533796310424805
30
0
10
18.28006237676226
20
10.277938842773438
30
0
0
LINE
5
619
100
AcDbEntity
8
0
100
AcDbLine
10
18.28006237676226
20
10.277938842773438
30
0
11
18.660133778358329
21
10.277938842773438
31
0
0
SPLINE
5
620
100
AcDbEntity
8
0
100
AcDbSpline
70
0
71
2
72
6
73
3
74
0
42
0.000000001
43
0.0000000001
44
0.0000000001
40
0
40
0
40
0
40
1
40
1
40
1
10
18.660133778358329
20
10.277938842773438
30
0
10
18.77970665624224
20
10.098576545715332
30
0
10
18.83095234563433
20
9.9213528633117676
30
0
0
SPLINE
5
621
100
AcDbEntity
8
0
100
AcDbSpline
70
0
71
2
72
6
73
3
74
0
42
0.000000001
43
0.0000000001
44
0.0000000001
40
0
40
0
40
0
40
1
40
1
40
1
10
18.83095234563433
20
9.9213528633117676
30
0
10
18.882197737003196
20
9.7462630271911621
30
0
10
18.882197737003196
20
9.5092535018920898
30
0
0
SPLINE
5
622
100
AcDbEntity
8
0
100
AcDbSpline
70
0
71
2
72
6
73
3
74
0
42
0.000000001
43
0.0000000001
44
0.0000000001
40
0
40
0
40
0
40
1
40
1
40
1
10
18.882197737003196
20
9.5092535018920898
30
0
10
18.882197737003196
20
9.1846966743469238
30
0
10
18.747678100372184
20
8.9839863777160645
30
0
0
SPLINE
5
623
100
AcDbEntity
8
0
100
AcDbSpline
70
0
71
2
72
6
73
3
74
0
42
0.000000001
43
0.0000000001
44
0.0000000001
40
0
40
0
40
0
40
1
40
1
40
1
10
18.747678100372184
20
8.9839863777160645
30
0
10
18.613158463741172
20
8.7832736968994141
30
0
10
18.386824130321372
20
8.6615657806396484
30
0
0
SPLINE
5
624
100
AcDbEntity
8
0
100
AcDbSpline
70
0
71
2
72
6
73
3
74
0
42
0.000000001
43
0.0000000001
44
0.0000000001
40
0
40
0
40
0
40
1
40
1
40
1
10
18.386824130321372
20
8.6615657806396484
30
0
10
18.158354460502494
20
8.5419917106628418
30
0
10
17.859421967769492
20
8.5419917106628418
30
0
0
SPLINE
5
625
100
AcDbEntity
8
0
100
AcDbSpline
70
0
71
2
72
6
73
3
74
0
42
0.000000001
43
0.0000000001
44
0.0000000001
40
0
40
0
40
0
40
1
40
1
40
1
10
17.859421967769492
20
8.5419917106628418
30
0
10
17.411023377681602
20
8.5419917106628418
30
0
10
17.131308018470634
20
8.796083927154541
30
0
0
SPLINE
5
626
100
AcDbEntity
8
0
100
AcDbSpline
70
0
71
2
72
6
73
3
74
0
42
0.000000001
43
0.0000000001
44
0.0000000001
40
0
40
0
40
0
40
1
40
1
40
1
10
17.131308018470634
20
8.796083927154541
30
0
10
16.849457471872199
20
9.0501785278320312
30
0
10
16.849457471872199
20
9.45587158203125
30
0
0
SPLINE
5
627
100
AcDbEntity
8
0
100
AcDbSpline
70
0
71
2
72
6
73
3
74
0
42
0.000000001
43
0.0000000001
44
0.0000000001
40
0
40
0
40
0
40
1
40
1
40
1
10
16.849457471872199
20
-3.5263371467590332
30
0
10
16.849457471872199
20
-3.1355905532836914
30
0
10
17.122767119909156
20
-2.9028487205505371
30
0
0
SPLINE
5
628
100
AcDbEntity
8
0
100
AcDbSpline
70
0
71
2
72
6
73
3
74
0
42
0.000000001
43
0.0000000001
44
0.0000000001
40
0
40
0
40
0
40
1
40
1
40
1
10
17.122767119909156
20
-2.9028487205505371
30
0
10
17.396076618934501
20
-2.6701092720031738
30
0
10
17.855151592994559
20
-2.6701092720031738
30
0
0
LINE
5
629
100
AcDbEntity
8
0
100
AcDbLine
10
17.855151592994559
20
-2.6701092720031738
30
0
11
17.904261647964347
21
-2.6701092720031738
31
0
0
LINE
5
630
100
AcDbEntity
8
0
100
AcDbLine
10
17.904261647964347
20
-2.6701092720031738
30
0
11
17.904261647964347
21
-4.0516042709350586
31
0
0
SPLINE
5
631
100
AcDbEntity
8
0
100
AcDbSpline
70
0
71
2
72
6
73
3
74
0
42
0.000000001
43
0.0000000001
44
0.0000000001
40
0
40
0
40
0
40
1
40
1
40
1
10
17.904261647964347
20
-4.0516042709350586
30
0
10
18.186112343574393
20
-4.0366578102111816
30
0
10
18.352660238052238
20
-3.8637042045593262
30
0
0
SPLINE
5
632
100
AcDbEntity
8
0
100
AcDbSpline
70
0
71
2
72
6
73
3
74
0
42
0.000000001
43
0.0000000001
44
0.0000000001
40
0
40
0
40
0
40
1
40
1
40
1
10
18.352660238052238
20
-3.8637042045593262
30
0
10
18.519208430553306
20
-3.6886143684387207
30
0
10
18.519208430553306
20
-3.4131693840026855
30
0
0
SPLINE
5
633
100
AcDbEntity
8
0
100
AcDbSpline
70
0
71
2
72
6
73
3
74
0
42
0.000000001
43
0.0000000001
44
0.0000000001
40
0
40
0
40
0
40
1
40
1
40
1
10
18.519208430553306
20
-3.4131693840026855
30
0
10
18.519208430553306
20
-3.0288290977478027
30
0
10
18.28006237676226
20
-2.7042722702026367
30
0
0
LINE
5
634
100
AcDbEntity
8
0
100
AcDbLine
10
18.28006237676226
20
-2.7042722702026367
30
0
11
18.660133778358329
21
-2.7042722702026367
31
0
0
SPLINE
5
635
100
AcDbEntity
8
0
100
AcDbSpline
70
0
71
2
72
6
73
3
74
0
42
0.000000001
43
0.0000000001
44
0.0000000001
40
0
40
0
40
0
40
1
40
1
40
1
10
18.660133778358329
20
-2.7042722702026367
30
0
10
18.77970665624224
20
-2.8836321830749512
30
0
10
18.83095234563433
20
-3.0608558654785156
30
0
0
SPLINE
5
636
100
AcDbEntity
8
0
100
AcDbSpline
70
0
71
2
72
6
73
3
74
0
42
0.000000001
43
0.0000000001
44
0.0000000001
40
0
40
0
40
0
40
1
40
1
40
1
10
18.83095234563433
20
-3.0608558654785156
30
0
10
18.882197737003196
20
-3.2359457015991211
30
0
10
18.882197737003196
20
-3.4729552268981934
30
0
0
SPLINE
5
637
100
AcDbEntity
8
0
100
AcDbSpline
70
0
71
2
72
6
73
3
74
0
42
0.000000001
43
0.0000000001
44
0.0000000001
40
0
40
0
40
0
40
1
40
1
40
1
10
18.882197737003196
20
-3.4729552268981934
30
0
10
18.882197737003196
20
-3.7975120544433594
30
0
10
18.747678100372184
20
-3.9982223510742188
30
0
0
SPLINE
5
638
100
AcDbEntity
8
0
100
AcDbSpline
70
0
71
2
72
6
73
3
74
0
42
0.000000001
43
0.0000000001
44
0.0000000001
40
0
40
0
40
0
40
1
40
1
40
1
10
18.747678100372184
20
-3.9982223510742188
30
0
10
18.613158463741172
20
-4.1989350318908691
30
0
10
18.386824130321372
20
-4.3206429481506348
30
0
0
SPLINE
5
639
100
AcDbEntity
8
0
100
AcDbSpline
70
0
71
2
72
6
73
3
74
0
42
0.000000001
43
0.0000000001
44
0.0000000001
40
0
40
0
40
0
40
1
40
1
40
1
10
18.386824130321372
20
-4.3206429481506348
30
0
10
18.158354460502494
20
-4.4402170181274414
30
0
10
17.859421967769492
20
-4.4402170181274414
30
0
0
SPLINE
5
640
100
AcDbEntity
8
0
100
AcDbSpline
70
0
71
2
72
6
73
3
74
0
42
0.000000001
43
0.0000000001
44
0.0000000001
40
0
40
0
40
0
40
1
40
1
40
1
10
17.859421967769492
20
-4.4402170181274414
30
0
10
17.411023377681602
20
-4.4402170181274414
30
0
10
17.131308018470634
20
-4.1861248016357422
30
0
0
SPLINE
5
641
100
AcDbEntity
8
0
100
AcDbSpline
70
0
71
2
72
6
73
3
74
0
42
0.000000001
43
0.0000000001
44
0.0000000001
40
0
40
0
40
0
40
1
40
1
40
1
10
17.131308018470634
20
-4.1861248016357422
30
0
10
16.849457471872199
20
-3.932030200958252
30
0
10
16.849457471872199
20
-3.5263371467590332
30
0
0
LINE
5
642
100
AcDbEntity
8
0
100
AcDbLine
10
16.887891440893043
20
23.512105941772461
30
0
11
16.887891440893043
21
23.900713920593262
31
0
0
LINE
5
643
100
AcDbEntity
8
0
100
AcDbLine
10
16.887891440893043
20
23.900713920593262
30
0
11
18.852304517532218
21
23.900713920593262
31
0
0
LINE
5
644
100
AcDbEntity
8
0
100
AcDbLine
10
18.852304517532218
20
23.900713920593262
30
0
11
18.852304517532218
21
23.512105941772461
31
0
0
LINE
5
645
100
AcDbEntity
8
0
100
AcDbLine
10
18.852304517532218
20
23.512105941772461
30
0
11
18.602482377792228
21
23.512105941772461
31
0
0
SPLINE
5
646
100
AcDbEntity
8
0
100
AcDbSpline
70
0
71
2
72
6
73
3
74
0
42
0.000000001
43
0.0000000001
44
0.0000000001
40
0
40
0
40
0
40
1
40
1
40
1
10
18.602482377792228
20
23.512105941772461
30
0
10
18.73700201442324
20
23.388261795043945
30
0
10
18.811735212112296
20
23.228116035461426
30
0
0
SPLINE
5
647
100
AcDbEntity
8
0
100
AcDbSpline
70
0
71
2
72
6
73
3
74
0
42
0.000000001
43
0.0000000001
44
0.0000000001
40
0
40
0
40
0
40
1
40
1
40
1
10
18.811735212112296
20
23.228116035461426
30
0
10
18.886468111778129
20
23.070111274719238
30
0
10
18.886468111778129
20
22.912101745605469
30
0
0
SPLINE
5
648
100
AcDbEntity
8
0
100
AcDbSpline
70
0
71
2
72
6
73
3
74
0
42
0.000000001
43
0.0000000001
44
0.0000000001
40
0
40
0
40
0
40
1
40
1
40
1
10
18.886468111778129
20
22.912101745605469
30
0
10
18.886468111778129
20
22.726340293884277
30
0
10
18.794653116966117
20
22.568330764770508
30
0
0
SPLINE
5
649
100
AcDbEntity
8
0
100
AcDbSpline
70
0
71
2
72
6
73
3
74
0
42
0.000000001
43
0.0000000001
44
0.0000000001
40
0
40
0
40
0
40
1
40
1
40
1
10
18.794653116966117
20
22.568330764770508
30
0
10
18.700703083778251
20
22.41246223449707
30
0
10
18.542695938850272
20
22.331318855285645
30
0
0
SPLINE
5
650
100
AcDbEntity
8
0
100
AcDbSpline
70
0
71
2
72
6
73
3
74
0
42
0.000000001
43
0.0000000001
44
0.0000000001
40
0
40
0
40
0
40
1
40
1
40
1
10
18.542695938850272
20
22.331318855285645
30
0
10
18.382553457523215
20
22.252316474914551
30
0
10
18.013158737922538
20
22.252316474914551
30
0
0
LINE
5
651
100
AcDbEntity
8
0
100
AcDbLine
10
18.013158737922538
20
22.252316474914551
30
0
11
16.887891440893043
21
22.252316474914551
31
0
0
LINE
5
652
100
AcDbEntity
8
0
100
AcDbLine
10
16.887891440893043
20
22.252316474914551
30
0
11
16.887891440893043
21
22.640929222106934
31
0
0
LINE
5
653
100
AcDbEntity
8
0
100
AcDbLine
10
16.887891440893043
20
22.640929222106934
30
0
11
18.008888065124381
21
22.640929222106934
31
0
0
SPLINE
5
654
100
AcDbEntity
8
0
100
AcDbSpline
70
0
71
2
72
6
73
3
74
0
42
0.000000001
43
0.0000000001
44
0.0000000001
40
0
40
0
40
0
40
1
40
1
40
1
10
18.008888065124381
20
22.640929222106934
30
0
10
18.318496643806327
20
22.640929222106934
30
0
10
18.442340194488395
20
22.728471755981445
30
0
0
SPLINE
5
655
100
AcDbEntity
8
0
100
AcDbSpline
70
0
71
2
72
6
73
3
74
0
42
0.000000001
43
0.0000000001
44
0.0000000001
40
0
40
0
40
0
40
1
40
1
40
1
10
18.442340194488395
20
22.728471755981445
30
0
10
18.564048408771384
20
22.818155288696289
30
0
10
18.564048408771384
20
23.040218353271484
30
0
0
SPLINE
5
656
100
AcDbEntity
8
0
100
AcDbSpline
70
0
71
2
72
6
73
3
74
0
42
0.000000001
43
0.0000000001
44
0.0000000001
40
0
40
0
40
0
40
1
40
1
40
1
10
18.564048408771384
20
23.040218353271484
30
0
10
18.564048408771384
20
23.31779956817627
30
0
10
18.292873799110282
20
23.512105941772461
30
0
0
LINE
5
657
100
AcDbEntity
8
0
100
AcDbLine
10
18.292873799110282
20
23.512105941772461
30
0
11
16.887891440893043
21
23.512105941772461
31
0
0
SPLINE
5
658
100
AcDbEntity
8
0
100
AcDbSpline
70
0
71
2
72
6
73
3
74
0
42
0.000000001
43
0.0000000001
44
0.0000000001
40
0
40
0
40
0
40
1
40
1
40
1
10
10.974564999341965
20
11.184075001627205
30
0
10
10.974564999341965
20
10.481259945780037
30
0
10
11.733601093292236
20
10.265734318643807
30
0
0
LINE
5
659
100
AcDbEntity
8
0
100
AcDbLine
10
11.733601093292236
20
10.265734318643808
30
0
11
11.733601093292236
21
12.11646807566285
31
0
0
SPLINE
5
660
100
AcDbEntity
8
0
100
AcDbSpline
70
0
71
2
72
6
73
3
74
0
42
0.000000001
43
0.0000000001
44
0.0000000001
40
0
40
0
40
0
40
1
40
1
40
1
10
11.733601093292236
20
12.11646807566285
30
0
10
11.377509981393814
20
12.050869587808846
30
0
10
11.176037490367889
20
11.788489941507576
30
0
0
SPLINE
5
661
100
AcDbEntity
8
0
100
AcDbSpline
70
0
71
2
72
6
73
3
74
0
42
0.000000001
43
0.0000000001
44
0.0000000001
40
0
40
0
40
0
40
1
40
1
40
1
10
11.176037490367889
20
11.788489941507576
30
0
10
10.974564999341965
20
11.526110295206307
30
0
10
10.974564999341965
20
11.184075001627205
30
0
0
SPLINE
5
662
100
AcDbEntity
8
0
100
AcDbSpline
70
0
71
2
72
6
73
3
74
0
42
0.000000001
43
0.0000000001
44
0.0000000001
40
0
40
0
40
0
40
1
40
1
40
1
10
12.998661249876022
20
3.7295867241919023
30
0
10
12.998661249876022
20
4.1419030465185624
30
0
10
12.708166092634201
20
4.4230271615087968
30
0
0
SPLINE
5
663
100
AcDbEntity
8
0
100
AcDbSpline
70
0
71
2
72
6
73
3
74
0
42
0.000000001
43
0.0000000001
44
0.0000000001
40
0
40
0
40
0
40
1
40
1
40
1
10
12.708166092634201
20
4.4230271615087968
30
0
10
12.412985414266586
20
4.7088385857641679
30
0
10
11.995983868837357
20
4.7088385857641679
30
0
0
SPLINE
5
664
100
AcDbEntity
8
0
100
AcDbSpline
70
0
71
2
72
6
73
3
74
0
42
0.000000001
43
0.0000000001
44
0.0000000001
40
0
40
0
40
0
40
1
40
1
40
1
10
11.995983868837357
20
4.7088385857641679
30
0
10
11.583667993545532
20
4.7088385857641679
30
0
10
11.283801794052124
20
4.4183422364294511
30
0
0
SPLINE
5
665
100
AcDbEntity
8
0
100
AcDbSpline
70
0
71
2
72
6
73
3
74
0
42
0.000000001
43
0.0000000001
44
0.0000000001
40
0
40
0
40
0
40
1
40
1
40
1
10
11.283801794052124
20
4.4183422364294511
30
0
10
10.979250520467758
20
4.132533196359871
30
0
10
10.979250520467758
20
3.734271649271248
30
0
0
SPLINE
5
666
100
AcDbEntity
8
0
100
AcDbSpline
70
0
71
2
72
6
73
3
74
0
42
0.000000001
43
0.0000000001
44
0.0000000001
40
0
40
0
40
0
40
1
40
1
40
1
10
10.979250520467758
20
3.734271649271248
30
0
10
10.979250520467758
20
3.3406974114477617
30
0
10
11.283801794052124
20
3.0548883713781816
30
0
0
SPLINE
5
667
100
AcDbEntity
8
0
100
AcDbSpline
70
0
71
2
72
6
73
3
74
0
42
0.000000001
43
0.0000000001
44
0.0000000001
40
0
40
0
40
0
40
1
40
1
40
1
10
11.283801794052124
20
3.0548883713781816
30
0
10
11.583667993545532
20
2.7690793313086015
30
0
10
12.00066938996315
20
2.7690793313086015
30
0
0
SPLINE
5
668
100
AcDbEntity
8
0
100
AcDbSpline
70
0
71
2
72
6
73
3
74
0
42
0.000000001
43
0.0000000001
44
0.0000000001
40
0
40
0
40
0
40
1
40
1
40
1
10
12.00066938996315
20
2.7690793313086015
30
0
10
12.417670637369156
20
2.7690793313086015
30
0
10
12.708166092634201
20
3.0455161370336992
30
0
0
SPLINE
5
669
100
AcDbEntity
8
0
100
AcDbSpline
70
0
71
2
72
6
73
3
74
0
42
0.000000001
43
0.0000000001
44
0.0000000001
40
0
40
0
40
0
40
1
40
1
40
1
10
12.708166092634201
20
3.0455161370336992
30
0
10
12.998661249876022
20
3.3219553269445878
30
0
10
12.998661249876022
20
3.7295867241919023
30
0
0
SPLINE
5
670
100
AcDbEntity
8
0
100
AcDbSpline
70
0
71
2
72
6
73
3
74
0
42
0.000000001
43
0.0000000001
44
0.0000000001
40
0
40
0
40
0
40
1
40
1
40
1
10
13.008032292127609
20
-8.4290479384362715
30
0
10
13.008032292127609
20
-8.0214165411889571
30
0
10
12.712851315736771
20
-7.7309201918542403
30
0
0
SPLINE
5
671
100
AcDbEntity
8
0
100
AcDbSpline
70
0
71
2
72
6
73
3
74
0
42
0.000000001
43
0.0000000001
44
0.0000000001
40
0
40
0
40
0
40
1
40
1
40
1
10
12.712851315736771
20
-7.7309201918542403
30
0
10
12.412985414266586
20
-7.4357413016259688
30
0
10
11.986613124608994
20
-7.4357413016259688
30
0
0
SPLINE
5
672
100
AcDbEntity
8
0
100
AcDbSpline
70
0
71
2
72
6
73
3
74
0
42
0.000000001
43
0.0000000001
44
0.0000000001
40
0
40
0
40
0
40
1
40
1
40
1
10
11.986613124608994
20
-7.4357413016259688
30
0
10
11.569611728191376
20
-7.4357413016259688
30
0
10
11.274431049823761
20
-7.7262376509606856
30
0
0
SPLINE
5
673
100
AcDbEntity
8
0
100
AcDbSpline
70
0
71
2
72
6
73
3
74
0
42
0.000000001
43
0.0000000001
44
0.0000000001
40
0
40
0
40
0
40
1
40
1
40
1
10
11.274431049823761
20
-7.7262376509606856
30
0
10
10.974564999341965
20
-8.0120466910302657
30
0
10
10.974564999341965
20
-8.4290479384362715
30
0
0
SPLINE
5
674
100
AcDbEntity
8
0
100
AcDbSpline
70
0
71
2
72
6
73
3
74
0
42
0.000000001
43
0.0000000001
44
0.0000000001
40
0
40
0
40
0
40
1
40
1
40
1
10
10.974564999341965
20
-8.4290479384362715
30
0
10
10.974564999341965
20
-8.8460491858422774
30
0
10
11.269745528697968
20
-9.1318582259118575
30
0
0
SPLINE
5
675
100
AcDbEntity
8
0
100
AcDbSpline
70
0
71
2
72
6
73
3
74
0
42
0.000000001
43
0.0000000001
44
0.0000000001
40
0
40
0
40
0
40
1
40
1
40
1
10
11.269745528697968
20
-9.1318582259118575
30
0
10
11.560240983963013
20
-9.4129823409020918
30
0
10
11.991298347711563
20
-9.4129823409020918
30
0
0
SPLINE
5
676
100
AcDbEntity
8
0
100
AcDbSpline
70
0
71
2
72
6
73
3
74
0
42
0.000000001
43
0.0000000001
44
0.0000000001
40
0
40
0
40
0
40
1
40
1
40
1
10
11.991298347711563
20
-9.4129823409020918
30
0
10
12.422356158494949
20
-9.4129823409020918
30
0
10
12.717536836862564
20
-9.1224883757531661
30
0
0
SPLINE
5
677
100
AcDbEntity
8
0
100
AcDbSpline
70
0
71
2
72
6
73
3
74
0
42
0.000000001
43
0.0000000001
44
0.0000000001
40
0
40
0
40
0
40
1
40
1
40
1
10
12.717536836862564
20
-9.1224883757531661
30
0
10
13.008032292127609
20
-8.8319944106042403
30
0
10
13.008032292127609
20
-8.4290479384362715
30
0
0
SPLINE
5
678
100
AcDbEntity
8
0
100
AcDbSpline
70
0
71
2
72
6
73
3
74
0
42
0.000000001
43
0.0000000001
44
0.0000000001
40
0
40
0
40
0
40
1
40
1
40
1
10
10.974564999341965
20
-5.3554223738610762
30
0
10
10.974564999341965
20
-6.0582326613366622
30
0
10
11.733601093292236
20
-6.2737606726586836
30
0
0
LINE
5
679
100
AcDbEntity
8
0
100
AcDbLine
10
11.733601093292236
20
-6.2737606726586845
30
0
11
11.733601093292236
21
-4.4230245314538497
31
0
0
SPLINE
5
680
100
AcDbEntity
8
0
100
AcDbSpline
70
0
71
2
72
6
73
3
74
0
42
0.000000001
43
0.0000000001
44
0.0000000001
40
0
40
0
40
0
40
1
40
1
40
1
10
11.733601093292236
20
-4.4230245314538497
30
0
10
11.377509981393814
20
-4.4886206351220626
30
0
10
11.176037490367889
20
-4.7510026656091231
30
0
0
SPLINE
5
681
100
AcDbEntity
8
0
100
AcDbSpline
70
0
71
2
72
6
73
3
74
0
42
0.000000001
43
0.0000000001
44
0.0000000001
40
0
40
0
40
0
40
1
40
1
40
1
10
11.176037490367889
20
-4.7510026656091231
30
0
10
10.974564999341965
20
-5.0133870802819747
30
0
10
10.974564999341965
20
-5.3554223738610762
30
0
0
SPLINE
5
682
100
AcDbEntity
8
0
100
AcDbSpline
70
0
71
2
72
6
73
3
74
0
42
0.000000001
43
0.0000000001
44
0.0000000001
40
0
40
0
40
0
40
1
40
1
40
1
10
17.532731591964591
20
-5.2451992034912109
30
0
10
17.385400532985557
20
-5.3263378143310547
30
0
10
17.31920838286959
20
-5.4693984985351562
30
0
0
SPLINE
5
683
100
AcDbEntity
8
0
100
AcDbSpline
70
0
71
2
72
6
73
3
74
0
42
0.000000001
43
0.0000000001
44
0.0000000001
40
0
40
0
40
0
40
1
40
1
40
1
10
17.31920838286959
20
-5.4693984985351562
30
0
10
17.250880896354545
20
-5.6103229522705078
30
0
10
17.250880896354545
20
-5.883631706237793
30
0
0
LINE
5
684
100
AcDbEntity
8
0
100
AcDbLine
10
17.250880896354545
20
-5.883631706237793
30
0
11
17.250880896354545
21
-6.1590766906738281
31
0
0
LINE
5
685
100
AcDbEntity
8
0
100
AcDbLine
10
17.250880896354545
20
-6.1590766906738281
30
0
11
18.45942199161135
21
-6.1590766906738281
31
0
0
SPLINE
5
686
100
AcDbEntity
8
0
100
AcDbSpline
70
0
71
2
72
6
73
3
74
0
42
0.000000001
43
0.0000000001
44
0.0000000001
40
0
40
0
40
0
40
1
40
1
40
1
10
18.45942199161135
20
-6.1590766906738281
30
0
10
18.551236986423362
20
-5.9797167778015137
30
0
10
18.551236986423362
20
-5.7832765579223633
30
0
0
SPLINE
5
687
100
AcDbEntity
8
0
100
AcDbSpline
70
0
71
2
72
6
73
3
74
0
42
0.000000001
43
0.0000000001
44
0.0000000001
40
0
40
0
40
0
40
1
40
1
40
1
10
18.551236986423362
20
-5.7832765579223633
30
0
10
18.551236986423362
20
-5.5099678039550781
30
0
10
18.361201285625327
20
-5.3370141983032227
30
0
0
SPLINE
5
688
100
AcDbEntity
8
0
100
AcDbSpline
70
0
71
2
72
6
73
3
74
0
42
0.000000001
43
0.0000000001
44
0.0000000001
40
0
40
0
40
0
40
1
40
1
40
1
10
18.361201285625327
20
-5.3370141983032227
30
0
10
18.171165584827293
20
-5.1619243621826172
30
0
10
17.872233390117515
20
-5.1619243621826172
30
0
0
SPLINE
5
689
100
AcDbEntity
8
0
100
AcDbSpline
70
0
71
2
72
6
73
3
74
0
42
0.000000001
43
0.0000000001
44
0.0000000001
40
0
40
0
40
0
40
1
40
1
40
1
10
17.872233390117515
20
-5.1619243621826172
30
0
10
17.680062352920402
20
-5.1619243621826172
30
0
10
17.532731591964591
20
-5.2451992034912109
30
0
0
SPLINE
5
690
100
AcDbEntity
8
0
100
AcDbSpline
70
0
71
2
72
6
73
3
74
0
42
0.000000001
43
0.0000000001
44
0.0000000001
40
0
40
0
40
0
40
1
40
1
40
1
10
17.186824082637656
20
-3.5263371467590332
30
0
10
17.186824082637656
20
-3.7355899810791016
30
0
10
17.312802671695579
20
-3.8701105117797852
30
0
0
SPLINE
5
691
100
AcDbEntity
8
0
100
AcDbSpline
70
0
71
2
72
6
73
3
74
0
42
0.000000001
43
0.0000000001
44
0.0000000001
40
0
40
0
40
0
40
1
40
1
40
1
10
17.312802671695579
20
-3.8701105117797852
30
0
10
17.438781558776725
20
-4.0024948120117188
30
0
10
17.671521603370536
20
-4.0430641174316406
30
0
0
LINE
5
692
100
AcDbEntity
8
0
100
AcDbLine
10
17.671521603370536
20
-4.0430641174316397
30
0
11
17.671521603370536
21
-3.0544519424438477
31
0
0
SPLINE
5
693
100
AcDbEntity
8
0
100
AcDbSpline
70
0
71
2
72
6
73
3
74
0
42
0.000000001
43
0.0000000001
44
0.0000000001
40
0
40
0
40
0
40
1
40
1
40
1
10
17.671521603370536
20
-3.0544519424438477
30
0
10
17.438781558776725
20
-3.0693984031677246
30
0
10
17.312802671695579
20
-3.1932401657104492
30
0
0
SPLINE
5
694
100
AcDbEntity
8
0
100
AcDbSpline
70
0
71
2
72
6
73
3
74
0
42
0.000000001
43
0.0000000001
44
0.0000000001
40
0
40
0
40
0
40
1
40
1
40
1
10
17.312802671695579
20
-3.1932401657104492
30
0
10
17.186824082637656
20
-3.3170843124389648
30
0
10
17.186824082637656
20
-3.5263371467590332
30
0
0
SPLINE
5
695
100
AcDbEntity
8
0
100
AcDbSpline
70
0
71
2
72
6
73
3
74
0
42
0.000000001
43
0.0000000001
44
0.0000000001
40
0
40
0
40
0
40
1
40
1
40
1
10
17.88077413966738
20
4.4402146339416504
30
0
10
17.601058780456412
20
4.4402146339416504
30
0
10
17.417428790832389
20
4.250178337097168
30
0
0
SPLINE
5
696
100
AcDbEntity
8
0
100
AcDbSpline
70
0
71
2
72
6
73
3
74
0
42
0.000000001
43
0.0000000001
44
0.0000000001
40
0
40
0
40
0
40
1
40
1
40
1
10
17.417428790832389
20
4.250178337097168
30
0
10
17.233798950219978
20
4.0601444244384766
30
0
10
17.233798950219978
20
3.7718868255615234
30
0
0
SPLINE
5
697
100
AcDbEntity
8
0
100
AcDbSpline
70
0
71
2
72
6
73
3
74
0
42
0.000000001
43
0.0000000001
44
0.0000000001
40
0
40
0
40
0
40
1
40
1
40
1
10
17.233798950219978
20
3.7718868255615234
30
0
10
17.233798950219978
20
3.4921717643737793
30
0
10
17.417428790832389
20
3.3128118515014648
30
0
0
SPLINE
5
698
100
AcDbEntity
8
0
100
AcDbSpline
70
0
71
2
72
6
73
3
74
0
42
0.000000001
43
0.0000000001
44
0.0000000001
40
0
40
0
40
0
40
1
40
1
40
1
10
17.417428790832389
20
3.3128118515014648
30
0
10
17.601058780456412
20
3.1334543228149414
30
0
10
17.885044514442313
20
3.1334543228149414
30
0
0
SPLINE
5
699
100
AcDbEntity
8
0
100
AcDbSpline
70
0
71
2
72
6
73
3
74
0
42
0.000000001
43
0.0000000001
44
0.0000000001
40
0
40
0
40
0
40
1
40
1
40
1
10
17.885044514442313
20
3.1334543228149414
30
0
10
18.16689521005236
20
3.1334543228149414
30
0
10
18.346254526878226
20
3.3170843124389648
30
0
0
SPLINE
5
700
100
AcDbEntity
8
0
100
AcDbSpline
70
0
71
2
72
6
73
3
74
0
42
0.000000001
43
0.0000000001
44
0.0000000001
40
0
40
0
40
0
40
1
40
1
40
1
10
18.346254526878226
20
3.3170843124389648
30
0
10
18.523478805328239
20
3.5007143020629883
30
0
10
18.523478805328239
20
3.7889695167541504
30
0
0
SPLINE
5
701
100
AcDbEntity
8
0
100
AcDbSpline
70
0
71
2
72
6
73
3
74
0
42
0.000000001
43
0.0000000001
44
0.0000000001
40
0
40
0
40
0
40
1
40
1
40
1
10
18.523478805328239
20
3.7889695167541504
30
0
10
18.523478805328239
20
4.0750908851623535
30
0
10
18.344119488502372
20
4.256584644317627
30
0
0
SPLINE
5
702
100
AcDbEntity
8
0
100
AcDbSpline
70
0
71
2
72
6
73
3
74
0
42
0.000000001
43
0.0000000001
44
0.0000000001
40
0
40
0
40
0
40
1
40
1
40
1
10
18.344119488502372
20
4.256584644317627
30
0
10
18.162624835277427
20
4.4402146339416504
30
0
10
17.88077413966738
20
4.4402146339416504
30
0
0
SPLINE
5
703
100
AcDbEntity
8
0
100
AcDbSpline
70
0
71
2
72
6
73
3
74
0
42
0.000000001
43
0.0000000001
44
0.0000000001
40
0
40
0
40
0
40
1
40
1
40
1
10
10.974564999341965
20
15.817940358072518
30
0
10
10.974564999341965
20
15.115130070596932
30
0
10
11.733601093292236
20
14.899599675089119
30
0
0
LINE
5
704
100
AcDbEntity
8
0
100
AcDbLine
10
11.733601093292236
20
14.899599675089119
30
0
11
11.733601093292236
21
16.750338200479746
31
0
0
SPLINE
5
705
100
AcDbEntity
8
0
100
AcDbSpline
70
0
71
2
72
6
73
3
74
0
42
0.000000001
43
0.0000000001
44
0.0000000001
40
0
40
0
40
0
40
1
40
1
40
1
10
11.733601093292236
20
16.750338200479746
30
0
10
11.377509981393814
20
16.684739712625742
30
0
10
11.176037490367889
20
16.422360066324472
30
0
0
SPLINE
5
706
100
AcDbEntity
8
0
100
AcDbSpline
70
0
71
2
72
6
73
3
74
0
42
0.000000001
43
0.0000000001
44
0.0000000001
40
0
40
0
40
0
40
1
40
1
40
1
10
11.176037490367889
20
16.422360066324472
30
0
10
10.974564999341965
20
16.159975651651621
30
0
10
10.974564999341965
20
15.817940358072518
30
0
0
SPLINE
5
707
100
AcDbEntity
8
0
100
AcDbSpline
70
0
71
2
72
6
73
3
74
0
42
0.000000001
43
0.0000000001
44
0.0000000001
40
0
40
0
40
0
40
1
40
1
40
1
10
17.88077413966738
20
20.475802421569824
30
0
10
17.601058780456412
20
20.475802421569824
30
0
10
17.417428790832389
20
20.285763740539551
30
0
0
SPLINE
5
708
100
AcDbEntity
8
0
100
AcDbSpline
70
0
71
2
72
6
73
3
74
0
42
0.000000001
43
0.0000000001
44
0.0000000001
40
0
40
0
40
0
40
1
40
1
40
1
10
17.417428790832389
20
20.285763740539551
30
0
10
17.233798950219978
20
20.095729827880859
30
0
10
17.233798950219978
20
19.807472229003906
30
0
0
SPLINE
5
709
100
AcDbEntity
8
0
100
AcDbSpline
70
0
71
2
72
6
73
3
74
0
42
0.000000001
43
0.0000000001
44
0.0000000001
40
0
40
0
40
0
40
1
40
1
40
1
10
17.233798950219978
20
19.807472229003906
30
0
10
17.233798950219978
20
19.527759552001953
30
0
10
17.417428790832389
20
19.348397254943848
30
0
0
SPLINE
5
710
100
AcDbEntity
8
0
100
AcDbSpline
70
0
71
2
72
6
73
3
74
0
42
0.000000001
43
0.0000000001
44
0.0000000001
40
0
40
0
40
0
40
1
40
1
40
1
10
17.417428790832389
20
19.348397254943848
30
0
10
17.601058780456412
20
19.169039726257324
30
0
10
17.885044514442313
20
19.169039726257324
30
0
0
SPLINE
5
711
100
AcDbEntity
8
0
100
AcDbSpline
70
0
71
2
72
6
73
3
74
0
42
0.000000001
43
0.0000000001
44
0.0000000001
40
0
40
0
40
0
40
1
40
1
40
1
10
17.885044514442313
20
19.169039726257324
30
0
10
18.16689521005236
20
19.169039726257324
30
0
10
18.346254526878226
20
19.352669715881348
30
0
0
SPLINE
5
712
100
AcDbEntity
8
0
100
AcDbSpline
70
0
71
2
72
6
73
3
74
0
42
0.000000001
43
0.0000000001
44
0.0000000001
40
0
40
0
40
0
40
1
40
1
40
1
10
18.346254526878226
20
19.352669715881348
30
0
10
18.523478805328239
20
19.536299705505371
30
0
10
18.523478805328239
20
19.824552536010742
30
0
0
SPLINE
5
713
100
AcDbEntity
8
0
100
AcDbSpline
70
0
71
2
72
6
73
3
74
0
42
0.000000001
43
0.0000000001
44
0.0000000001
40
0
40
0
40
0
40
1
40
1
40
1
10
18.523478805328239
20
19.824552536010742
30
0
10
18.523478805328239
20
20.110673904418945
30
0
10
18.344119488502372
20
20.292172431945801
30
0
0
SPLINE
5
714
100
AcDbEntity
8
0
100
AcDbSpline
70
0
71
2
72
6
73
3
74
0
42
0.000000001
43
0.0000000001
44
0.0000000001
40
0
40
0
40
0
40
1
40
1
40
1
10
18.344119488502372
20
20.292172431945801
30
0
10
18.162624835277427
20
20.475802421569824
30
0
10
17.88077413966738
20
20.475802421569824
30
0
0
SPLINE
5
715
100
AcDbEntity
8
0
100
AcDbSpline
70
0
71
2
72
6
73
3
74
0
42
0.000000001
43
0.0000000001
44
0.0000000001
40
0
40
0
40
0
40
1
40
1
40
1
10
17.186824082637656
20
13.006763458251953
30
0
10
17.186824082637656
20
12.797508239746094
30
0
10
17.312802671695579
20
12.66298770904541
30
0
0
SPLINE
5
716
100
AcDbEntity
8
0
100
AcDbSpline
70
0
71
2
72
6
73
3
74
0
42
0.000000001
43
0.0000000001
44
0.0000000001
40
0
40
0
40
0
40
1
40
1
40
1
10
17.312802671695579
20
12.66298770904541
30
0
10
17.438781558776725
20
12.530603408813477
30
0
10
17.671521603370536
20
12.490034103393555
30
0
0
LINE
5
717
100
AcDbEntity
8
0
100
AcDbLine
10
17.671521603370536
20
12.490034103393555
30
0
11
17.671521603370536
21
13.478646278381348
31
0
0
SPLINE
5
718
100
AcDbEntity
8
0
100
AcDbSpline
70
0
71
2
72
6
73
3
74
0
42
0.000000001
43
0.0000000001
44
0.0000000001
40
0
40
0
40
0
40
1
40
1
40
1
10
17.671521603370536
20
13.478646278381348
30
0
10
17.438781558776725
20
13.46369743347168
30
0
10
17.312802671695579
20
13.339858055114746
30
0
0
SPLINE
5
719
100
AcDbEntity
8
0
100
AcDbSpline
70
0
71
2
72
6
73
3
74
0
42
0.000000001
43
0.0000000001
44
0.0000000001
40
0
40
0
40
0
40
1
40
1
40
1
10
17.312802671695579
20
13.339858055114746
30
0
10
17.186824082637656
20
13.21601390838623
30
0
10
17.186824082637656
20
13.006763458251953
30
0
0
SPLINE
5
720
100
AcDbEntity
8
0
100
AcDbSpline
70
0
71
2
72
6
73
3
74
0
42
0.000000001
43
0.0000000001
44
0.0000000001
40
0
40
0
40
0
40
1
40
1
40
1
10
17.186824082637656
20
9.45587158203125
30
0
10
17.186824082637656
20
9.2466187477111816
30
0
10
17.312802671695579
20
9.112098217010498
30
0
0
SPLINE
5
721
100
AcDbEntity
8
0
100
AcDbSpline
70
0
71
2
72
6
73
3
74
0
42
0.000000001
43
0.0000000001
44
0.0000000001
40
0
40
0
40
0
40
1
40
1
40
1
10
17.312802671695579
20
9.112098217010498
30
0
10
17.438781558776725
20
8.9797139167785645
30
0
10
17.671521603370536
20
8.9391446113586426
30
0
0
LINE
5
722
100
AcDbEntity
8
0
100
AcDbLine
10
17.671521603370536
20
8.9391446113586426
30
0
11
17.671521603370536
21
9.9277567863464355
31
0
0
SPLINE
5
723
100
AcDbEntity
8
0
100
AcDbSpline
70
0
71
2
72
6
73
3
74
0
42
0.000000001
43
0.0000000001
44
0.0000000001
40
0
40
0
40
0
40
1
40
1
40
1
10
17.671521603370536
20
9.9277567863464355
30
0
10
17.438781558776725
20
9.9128103256225586
30
0
10
17.312802671695579
20
9.788968563079834
30
0
0
SPLINE
5
724
100
AcDbEntity
8
0
100
AcDbSpline
70
0
71
2
72
6
73
3
74
0
42
0.000000001
43
0.0000000001
44
0.0000000001
40
0
40
0
40
0
40
1
40
1
40
1
10
17.312802671695579
20
9.788968563079834
30
0
10
17.186824082637656
20
9.6651244163513184
30
0
10
17.186824082637656
20
9.45587158203125
30
0
0
ENDSEC
0
SECTION
2
OBJECTS
0
DICTIONARY
5
C
100
AcDbDictionary
3
ACAD_GROUP
350
D
3
ACAD_MLINESTYLE
350
17
0
DICTIONARY
5
D
100
AcDbDictionary
0
DICTIONARY
5
1A
330
C
100
AcDbDictionary
0
DICTIONARY
5
17
100
AcDbDictionary
0
ENDSEC
0
EOF
